/* XPM */
static char *result[] = {
/* columns rows colors chars-per-pixel */
"64 64 202 2 ",
"   c #0B080A",
".  c #11090D",
"X  c #190E14",
"o  c #170F12",
"O  c #131213",
"+  c #1A1316",
"@  c #171817",
"#  c #1C161A",
"$  c #171818",
"%  c #1A1B1B",
"&  c #26141B",
"*  c #28161D",
"=  c #2B191E",
"-  c #221819",
";  c #331D1E",
":  c #1E201F",
">  c #36201F",
",  c #2A1721",
"<  c #241A22",
"1  c #2E1B25",
"2  c #2E1C2A",
"3  c #311E23",
"4  c #331E2D",
"5  c #391F21",
"6  c #361F30",
"7  c #1F2221",
"8  c #212424",
"9  c #2C2226",
"0  c #232826",
"q  c #262B2A",
"w  c #2B2C2C",
"e  c #2F272C",
"r  c #342226",
"t  c #3D2421",
"y  c #35232B",
"u  c #38232D",
"i  c #332B2F",
"p  c #3C2C2E",
"a  c #2A312E",
"s  c #372131",
"d  c #392235",
"f  c #3C2B32",
"g  c #3D253B",
"h  c #392C34",
"j  c #2E3533",
"k  c #2F3832",
"l  c #353335",
"z  c #3C3134",
"x  c #313A36",
"c  c #3B3539",
"v  c #343D3A",
"b  c #3B3D3E",
"n  c #49262A",
"m  c #412E2F",
"M  c #412624",
"N  c #56292C",
"B  c #4B332D",
"V  c #543628",
"C  c #432E35",
"Z  c #44273B",
"A  c #432D3A",
"S  c #4B293D",
"D  c #492733",
"F  c #572C36",
"G  c #443333",
"H  c #493736",
"J  c #473836",
"K  c #4A3937",
"L  c #45333B",
"P  c #49343E",
"I  c #4C3C39",
"U  c #45393B",
"Y  c #513D3B",
"T  c #55303A",
"R  c #622E36",
"E  c #6A3137",
"W  c #763539",
"Q  c #612D2F",
"!  c #36403C",
"~  c #38423E",
"^  c #4E403C",
"/  c #53413D",
"(  c #67442E",
")  c #734D31",
"_  c #755239",
"`  c #3C3F40",
"'  c #5E2F41",
"]  c #463C41",
"[  c #513C44",
"{  c #683442",
"}  c #793742",
"|  c #3B4442",
" . c #3E4944",
".. c #3F4B48",
"X. c #434346",
"o. c #424B46",
"O. c #4B4649",
"+. c #434D4B",
"@. c #4A4C4E",
"#. c #4A4445",
"$. c #544441",
"%. c #594643",
"&. c #564943",
"*. c #5B4C46",
"=. c #5D4C4A",
"-. c #58464B",
";. c #45514D",
":. c #4B524D",
">. c #5D5249",
",. c #465250",
"<. c #495554",
"1. c #4C5957",
"2. c #4F5B5A",
"3. c #525E5C",
"4. c #565657",
"5. c #604C4C",
"6. c #654845",
"7. c #64534B",
"8. c #69554D",
"9. c #655A4F",
"0. c #6C584F",
"q. c #644D51",
"w. c #665B51",
"e. c #6B5C52",
"r. c #635859",
"t. c #705D52",
"y. c #725D59",
"u. c #55605D",
"i. c #6D6155",
"p. c #726256",
"a. c #75655A",
"s. c #7A655E",
"d. c #77685B",
"f. c #7B6B5D",
"g. c #796354",
"h. c #7E6049",
"j. c #645F61",
"k. c #566362",
"l. c #5A6564",
"z. c #5B6867",
"x. c #5D6B6A",
"c. c #6C6261",
"v. c #626D6A",
"b. c #656867",
"n. c #7B6C64",
"m. c #766963",
"M. c #65716D",
"N. c #667272",
"B. c #6B7572",
"V. c #6D7876",
"C. c #6D7978",
"Z. c #737B7A",
"A. c #767C7B",
"S. c #92643A",
"D. c #8F6239",
"F. c #843C47",
"G. c #943F43",
"H. c #81494C",
"J. c #9B4349",
"K. c #A3444D",
"L. c #9E7145",
"P. c #816D5E",
"I. c #896F59",
"U. c #9C7A58",
"Y. c #866951",
"T. c #816F60",
"R. c #847263",
"E. c #8A7665",
"W. c #8D7867",
"Q. c #8D7A69",
"!. c #877669",
"~. c #927D6B",
"^. c #74807E",
"/. c #BC8347",
"(. c #BA8D5B",
"). c #95816E",
"_. c #9A826C",
"`. c #9A8571",
"'. c #9D8C7A",
"]. c #95877B",
"[. c #8B8075",
"{. c #A78868",
"}. c #C79051",
"|. c #7E8382",
" X c #758280",
".X c #828D8A",
"XX c #8A8A89",
"oX c #888684",
"OX c #918A85",
"+X c #88918C",
"@X c #87908A",
"#X c #8C9591",
"$X c #959D9B",
"%X c #A59A8C",
"&X c #97A09D",
"*X c #ACA89E",
"=X c #9AA4A1",
"-X c #AAADA8",
";X c #AAB1AD",
":X c #AEB5B2",
">X c #B4B8B2",
",X c #B1B3AD",
/* pixels */
"& & & & & & & & & & & & & & & & & & & & & & & & & & & & & & & & & & & & & & & & & & & & & & & & & * & & & & & & & & * & & * & & ",
"1 3 2 3 4 4 2 , 2 2 4 4 2 2 2 , 4 4 2 2 2 2 4 4 2 2 1 2 2 1 1 1 2 1 1 1 1 2 5 1 1 1 3 2 2 2 2 2 1 1 2 1 2 6 2 2 2 2 1 1 1 1 1 1 ",
"6 6 6 6 6 6 g 6 6 6 6 6 d d 6 d 6 6 g 6 6 6 6 6 6 6 6 6 6 6 6 4 6 6 6 6 6 6 6 6 6 6 6 6 6 6 6 6 6 6 d d 6 6 g 6 d d d 6 d d g 6 ",
"6 g 6 ] g g g g Z g Z g g g d d g g g g 6 ] g 6 6 4 4 4 4 4 4 2 4 4 4 6 4 6 4 4 6 4 4 6 4 4 4 6 6 6 g Z g g g g g g g g g g g 6 ",
"6 g g g g g g g g g g g g g d d g g g g g g 6 6 6 2 1 1 , 1 2 , 2 , 2 , 1 2 , 2 , 2 , , , 2 2 4 6 6 g g g g Z g g g g g g g g 6 ",
"6 g g g g g g g g g 6 g d d 6 d g g g g g g g 4 2 , & & , & & & & * * & & & & & , & , & , & , 2 6 6 6 Z g d 6 g 6 g g g g g Z 6 ",
"6 g ] g g g g g g 6 6 g 6 6 d g g g g g g 6 6 4 , & & & & & X & & & & & & & & & & & & & & & & , 1 4 6 6 d d d g g g g g g g d 6 ",
"6 g g g g g g g g g g g Z g g Z g g g g 6 6 2 2 , & X X X & X & X X + X X X & X # X + X X X # < , 4 4 6 6 g ` 6 g g g g g g Z d ",
"g g g g g g g g g g g g g g g g g g g 6 6 4 , < # + O O O O O O + + + X O O O + + + O + O # X # , , , 6 6 d g g g Z g g g g g 6 ",
"6 g g g g g g g g g Z g g g g g 6 ` 6 6 2 , & & + o O O O O O O O O O O O O O O O O O O O X O # X & , 2 6 g g g g g g g g g g 6 ",
"6 g g g g g g g g g g g g g g g 6 g 6 2 , , X X + O O O O O O O O O O O O O O $ $ % % $ $ O O O X , , , 6 d g g g g g g g g g 6 ",
"d g g g g g g g g g g Z g g g g 6 6 4 , , X & X O O O O O O O O O O O O O O O % 7 0 0 7 % $ O X X & , , 4 d g g g g g g g g g 6 ",
"6 g g g g g g g g g g g g g g 6 6 2 , , & + + O O O O O O O O O O O O O O O $ 7 q j j q 7 $ O # # X , 2 6 d g g g g g g Z g g 6 ",
"6 g g g g g g g g g g g g g g 6 3 , & # # O O O o O O O O O O O . O O O O O $ 7 j ` | a q $ O O # & & 2 6 6 g g g g g g g g g 6 ",
"6 g g g g ` g g g g g g g g 6 4 , & & + O O O O $ % $ $ : @ @ @ @ @ @ % $ 7 7 a ` | | ` q 7 $ $ X X X , 2 6 g g g g g g g g g 6 ",
"d g g g g g g g g g g g g g d 4 < & + + O O @ % 7 0 0 0 7 7 : : 7 7 7 q q k x ` ` | | x a 0 7 $ # X X & , 2 6 6 6 g g g g g ] 6 ",
"6 g g g g g g g g g g g g g 6 6 , # O + O O @ 7 q x x j a q q q 0 0 a ! ~ ......~ ~ ~ k a a q % # . . X , , 2 6 6 6 g g g g g 6 ",
"6 g g g g g g g g g g g g g 6 2 < + O O O O % 0 j | ..` v x k k ! k ! ~ ,.u.u.1.;.! ! k x k a 8 O     . X X , , 6 g g g g g g 6 ",
"6 g g g g g g g g g g g ' ' 6 6 < + O O $ % 7 a ` ..,...| v x ~ ~ ^ ;.1.u.x.z.1.;.~ ! ! o.o.o.l 7 .   . X , , 4 6 6 g g g g g 6 ",
"6 g g g g g g g g g Z ' ' ' ' D 3 # @ % 7 0 a ` ..<.1.;.| ! | ;.1.^.^.N.N.M.z.2.o.~ ! :.u.M.v.@.l # . X X , 4 6 6 g g g g g g 6 ",
"6 6 6 6 g 6 g g g g ] ' } G.} N t # $ : q j ` ..,.u.2.,.o.! X.3.^.@X#X].^.^.k.2.;.! ~ u.N.XXXXv.O.2 X & , 2 6 6 g 6 6 g 6 6 6 6 ",
"6 g g g g g g g g g S { F.K.G.E n - % 0 j | ..<.u.z.l.1.o.~ o.v.^.;X>X=X X^.k.1.;.! ^ v..X;X;XoX4.i & , 2 6 g 6 g g ] g g g g 6 ",
"6 g g g g g g g d d Z E } G.G.W N ; 1 i ` ..<.3.k.x.z.2.;.~ +.N.|.>X:X=X|.^.z.3.:.~ ..M.XX;X;XoXj.f = 2 6 6 ` g g g g g g g g 6 ",
"6 g g g g g g 6 6 4 6 D R W W E Q N F ] ] ,.<.2.k.x.z.3.,. .+.l. X|.=X|.^.^.z.u.1.~ ;.u.C.#X#XB.@.f & , 6 6 g g g g g g g g g 6 ",
"6 g g g g g g 4 2 < < 2 M n N Q E W W _ 6.@.,.2.k.x.z.3.<...,.2.^.^.^.^.^.^.2.2.1...+.2.x.C.V.4.] 4 , 2 4 d g g g g g g g g g 6 ",
"6 ` g g g g d 2 < # # # # & 5 N W J.J.H.q.@.<.3.k.x.x.k.1.,.,.<.1.2.k.z.2.z.^.k.1.<.,.<.1.2.2.] g 2 & , 6 g g g g g g g g g g 6 ",
"6 g g g g g d 2 < # # # O + , D W G.K.0.6.O.+.<.3.z.z.3.2.1.<.<.,.1.1.2.k.k.2.k.3.1.<.<.<.<.@.` w < & , 4 d g g g g g g g g g 6 ",
"6 g g g g g d 6 < < < < < , 4 Z E F.F.} [ ] ` o.<.2.k.k.2.2.2.2.2.2.2.k.k.k.^.k.k.2.2.2.2.2.<.` l 2 < 2 4 d g g g g g g g g g 6 ",
"6 g g g g g g g d 2 2 2 2 2 4 g ' ' ' S A i l b +.<.2.3.k.k.k.k.k.k.k.z.^.2.k.z.l.l.k.k.k.k.2.X.l 2 < , 4 d g g g g g g g g g 6 ",
"6 g g g g g g g d g d d g g 6 g 6 ' ' 6 4 1 9 l ` +.<.2.k.z.x.x.x.x.x.x.k.^.k.^.x.z.x.x.x.x.k.@.c 9 = 1 4 d g g g g g g g g Z 6 ",
"6 g g g g g g g g g g g g g d d 6 g 6 4 1 * = e c | +.<.1.k.z.x.N.^.^.N.x.z.2.k.k.k.l.v.N.B.N.4.] 9 & 2 6 g g g g g g Z g g g 6 ",
"6 g g g g g g g ` d g g g g g d 6 6 6 2 , & = 2 e c ` ` ] @.1.b.^. X X^.x.1.;.;.@.@.4.x.Z.|..Xb.O.u * , 6 g g g g g g g g g g 6 ",
"6 g g g g g g g g g g g g g g 6 6 3 1 = = & * < 9 w i i l c #.b.^.&X&X[.x.#.c c c c X.b.A.$X$XA.5.h & , 6 d g g g g g g g g g 6 ",
"6 g g g Z g g g Z g g g g g d 4 1 , & & & & & * * = 1 , 1 1 c j.|.;X;XXXb.c 1 1 9 1 z r.oX;X:XXXj.h & 2 4 d g g g g g g g g g 6 ",
"g g g g g g g g g g g d g d d d 4 r r r 1 = 1 > 9 r r r 3 r U c.+X>X>X#Xc.J r r r r U r.oX,X>XOXc.L 1 3 4 6 d d g g g 6 g Z g 6 ",
"6 g g g Z g g g g g g d d 6 6 C L I K K G p p G H K Y Y I Y =.m.OX*X*X].n.=.Y I Y Y =.m.OX*X*XOXi.[ p f h s 6 d d d g ` g g g 6 ",
"6 g g g g g g g g g d 6 6 1 h L $.8.8.6.&.^ / &.7.0.e.e.0.0.g.!.'.%X%X].!.a.e.e.0.0.g.!.].%X%X[.m.=.J z f y 3 6 6 g g g g g g 6 ",
"6 g g g g g g g g g d 6 1 , r I 8.P.R.a.i.7.7.i.g.R.E.W.E.E.~.).`.OX'.`.).Q.E.E.E.W.Q.~.`.'.].Q.d.w.&.^ p 9 , 1 6 g g g g g g 6 ",
"6 g g g g g g g g g d 6 1 & t Y e.R.W.R.f.i.p.f.E.)._.`.`.`._.).~.~.~.~.~.{.{._.~.W.W.~.).).).R.d.i.>.^ m 1 & 1 4 6 g g ] g g 6 ",
"6 g g g g g g 6 ` g d 6 1 & y K 7.f.R.R.f.f.n.E.Q.).`.`.`.`.).E.f.g.g.I.U.{.(.~.I.g.g.f.E.).).E.m.i.>.^ p r & 1 4 g g g g g g 6 ",
"6 g g g g g g g g g 6 6 2 & 3 G %.p.f.n.R.R.R.).).).`.`.`.`.~.P.0.%._ h.L.(.(.U.Y.( &.e.P.W.~.R.d.i.>.^ D 1 , 2 4 6 g g g g g 6 ",
"6 g g g g g 6 g g 6 6 4 , & 3 C / 9.p.f.R.).).)._._.`.`.`.`.W.t.%.C m _ L.}.}.L._ B f %.t.E._.E.f.i.>.^ m , & , 4 6 g g g g g 6 ",
"6 g g g g g g 6 6 g 6 4 2 & , f I &.9.i.f.R.R.Q.W.W.W.W.W.W.P.8.K 3 t ( S././.S.( t r H 7.P.E.f.i.9.*.I p ; & , 4 6 g g g g g 6 ",
"6 ` g g g g g g g g 6 4 , , , 4 m I / *.7.0.t.t.t.t.t.e.t.t.7./ m ; ; B ) S.S.) V > = p Y 7.0.7.*.$.I f r = & 2 4 6 g g g g g 6 ",
"g g g g g g g g g g 6 4 , = & 1 r p G G K / / / / / / / / / K p r = ; M V ( ( V M ; * r m K / K G m p r 1 & & 2 4 g g g g g g g ",
"6 g g g g g g g g g g 6 1 & & = = 1 ; r r r t r r r t y t r r > = = * = > > M > ; = & = 3 r r r r 1 9 = & & & 1 4 g g g g g g 6 ",
"6 g g g g g g g g g 6 6 3 , & = - & & * & = = = = = 1 = , = = = 1 = = * * & & * * * = = = = = * & & - & , , , 2 4 6 g g g g g 6 ",
"6 g g g g g g g g ] 6 6 4 2 , = = & - 1 r p p p p p p p p p p k p p y r > - * = r p p p p p p r ; & & = , , 2 6 6 g g g g g g 6 ",
"6 g g g g g g g g g g g d 6 2 2 , & = r p J ^ ^ J J ^ ^ ^ ^ ^ ^ I ^ J p r = - r i J J ^ ^ I J z r = & = 2 4 6 6 6 g g g g g g 6 ",
"6 g g g ` g g g g g g g g d 6 2 1 & 1 p J / *.*.*.>.*.*.*.*./ *.*.>./ J p = = p J &.*.*.*.*.&.J p 1 & , 4 6 6 g g g g g g g g 6 ",
"6 g g g g g g g g g g g g g d 6 1 & 1 G / 7.i.9.w.9.>.i.w.i.w.i.i.9.7./ p = 1 m ^ >.i.9.9.9.>.^ p 1 = , 6 6 g g g g g g g g g 6 ",
"6 g g g g g g g g g g g g g d 2 , & r G *.i.d.i.i.w.4.i.i.d.d.d.d.d.i.&.G r = G &.e.d.i.i.w.>.^ m 3 < 1 6 g g g g g g g g Z g 6 ",
"6 Z g g g Z g g g g g g g g g 4 1 & r H 7.f.T.f.p.w.9.i.f.f.f.R.R.n.d.7.K 3 3 H >.d.T.d.i.e.>.^ p 1 & 1 6 d g g g g g g g g g 6 ",
"6 g g g g g g g g g g g g g d 6 1 & r Y 0.R.Q.f.a.i.i.d.f.).).).).).R.8.Y r 3 K 8.P.Q.R.d.i.>.^ p r & 1 4 d g g g g g g g g g 6 ",
"6 g g g g g g g g g g g g g d 6 4 5 m / e.W.~.R.d.i.i.f.[.)._.).).~.P.8.K r 5 K 7.P.W.P.a.e.>.I p 3 & 1 6 d ` g g g g g g g g 6 ",
"6 g g g g g g g g g g g 6 6 6 6 G K / 7.p.T.R.R.f.f.f.E.E._.).E.P.g.8./ m 3 = m / 7.p.e.e.w.>.^ p r - 1 4 6 6 g g g g g g ` g 6 ",
"6 6 g g g g g Z g g g 6 6 6 6 S / 8.0.t.g.d.f.n.T.T.E.W.~._.~.I.0.*.Y C r = = r m Y / %.7.7.>.^ n 1 , 2 6 d g Z g g g g g g g 6 ",
"6 g ] g g g 6 g g g 6 4 , , 4 P 5.P.T.P.a.p.p.f.!.W.~.~.~.`.W.y.%.B r 3 = = * = 3 4 m H / >.>.^ C 1 & , 4 d d d g g g g g g g 6 ",
"6 g g g g g 6 g 6 g g 6 1 , r Y t.R.E.n.p.w.w.a.T.W.~.~.~.~.T.8.Y r = * * * * * * * 3 f I *.*.I p 1 , , 4 6 g 6 g 6 g g g g g 6 ",
"6 g g g g g 6 g g g g 6 4 3 u T 5.y.y.y.q.=.=.r.y.s.s.P.m.n.y.-.H r , 2 , 1 1 , , 2 3 f L #.$.U f 3 1 6 6 g g g g 6 g g g g g 6 ",
"6 g g g Z d 6 g 6 ] Z 6 6 6 s A [ 5.q.-.[ [ [ ' [ -.q.q.q.q.-.[ D d 2 6 6 4 4 4 6 4 6 f A L ] C d u 4 6 g g g g d d g g g g g 6 ",
"6 g g 6 d 6 6 6 6 6 6 6 6 s 6 f Z S S L ] A A Z ] ' ] ] A ' ] Z f 6 6 6 6 6 6 6 6 6 6 d d Z Z d d d 6 6 6 d 6 g d 6 6 d g g 6 6 ",
"1 2 2 2 2 2 2 2 4 2 1 2 2 2 3 3 1 1 2 1 2 2 2 2 2 2 , 2 1 1 2 1 3 2 1 2 1 1 2 2 2 , 1 3 3 3 2 2 , 2 3 3 1 1 1 1 2 1 , 2 2 2 4 2 ",
"& & & , & & & & & & & & & & & & & & & & & & & & & & & & & & & & & & & & * & & & & & , & & & & * & & & , & & , & & & & & & & & & "
};
