/* XPM */
static char *result[] = {
/* columns rows colors chars-per-pixel */
"64 64 192 2 ",
"   c #26141B",
".  c #28151E",
"X  c #2D191F",
"o  c #311B1F",
"O  c #2B1722",
"+  c #2E1A26",
"@  c #331E2E",
"#  c #321E22",
"$  c #351F30",
"%  c #2F2027",
"&  c #2F2028",
"*  c #33242B",
"=  c #3C2529",
"-  c #332126",
";  c #372131",
":  c #392235",
">  c #362931",
",  c #3A2B33",
"<  c #3D253B",
"1  c #3E3038",
"2  c #462B2A",
"3  c #462F32",
"4  c #4D3332",
"5  c #42343C",
"6  c #4E383D",
"7  c #523B3D",
"8  c #5B3B35",
"9  c #5F403D",
"0  c #6B473E",
"q  c #774E3F",
"w  c #413240",
"e  c #443B44",
"r  c #4A3D46",
"t  c #4A3F4B",
"y  c #543D41",
"u  c #593E41",
"i  c #4D424C",
"p  c #574247",
"a  c #5F4241",
"s  c #5A464C",
"d  c #53464B",
"f  c #524B55",
"g  c #5A4C53",
"h  c #57535C",
"j  c #59545E",
"k  c #654542",
"l  c #674840",
"z  c #6B4C47",
"x  c #60494D",
"c  c #684742",
"v  c #704C43",
"b  c #6C504E",
"n  c #78564D",
"m  c #7C5344",
"M  c #604F56",
"N  c #615057",
"B  c #66575F",
"V  c #6C5856",
"C  c #755650",
"Z  c #7E6059",
"A  c #5D5761",
"S  c #5D5863",
"D  c #635C64",
"F  c #6A5C64",
"G  c #605E68",
"H  c #67616C",
"J  c #6C636C",
"K  c #766365",
"L  c #7F6866",
"P  c #71666D",
"I  c #796868",
"U  c #6A6570",
"Y  c #6E6C77",
"T  c #706770",
"R  c #746A73",
"E  c #786F79",
"W  c #756D75",
"Q  c #6F717C",
"!  c #73737E",
"~  c #7A727C",
"^  c #835D4F",
"/  c #905D46",
"(  c #845E50",
")  c #9D6248",
"_  c #8C6554",
"`  c #8C6A5E",
"'  c #946956",
"]  c #9F6E59",
"[  c #AB684A",
"{  c #B86E4D",
"}  c #BF724F",
"|  c #A06B53",
" . c #AC6D51",
".. c #AB735A",
"X. c #BC7455",
"o. c #B0765E",
"O. c #BD7A5D",
"+. c #B9785B",
"@. c #876B65",
"#. c #8D6E64",
"$. c #89726D",
"%. c #927366",
"&. c #8C7775",
"*. c #82767B",
"=. c #85787C",
"-. c #8C7C7D",
";. c #857474",
":. c #907B76",
">. c #9B7F75",
",. c #987E7B",
"<. c #A67B69",
"1. c #A97F6D",
"2. c #B57B63",
"3. c #BC7F65",
"4. c #A77D70",
"5. c #97817A",
"6. c #9B8279",
"7. c #B4816C",
"8. c #BB836B",
"9. c #AC8A7D",
"0. c #A68578",
"q. c #BE8770",
"w. c #B68B7A",
"e. c #B88E7E",
"r. c #B98A77",
"t. c #BD907E",
"y. c #777B86",
"u. c #7D7A84",
"i. c #797F8A",
"p. c #787681",
"a. c #827F87",
"s. c #817D88",
"d. c #7A808C",
"f. c #7F8691",
"g. c #8C8185",
"h. c #82818D",
"j. c #8E848A",
"k. c #948685",
"l. c #9A8E8C",
"z. c #958886",
"x. c #858692",
"c. c #898793",
"v. c #8C8994",
"b. c #868C99",
"n. c #8D8D9A",
"m. c #938D93",
"M. c #918F9A",
"N. c #8C909D",
"B. c #9D9394",
"V. c #91919E",
"C. c #9A979D",
"Z. c #9F9B9D",
"A. c #A48B88",
"S. c #BA9485",
"D. c #B19285",
"F. c #A49593",
"G. c #A19C9C",
"H. c #AC9F9D",
"J. c #B39B94",
"K. c #B09188",
"L. c #AFA09E",
"P. c #B4A39E",
"I. c #BCA69E",
"U. c #8D97A3",
"Y. c #8D98A4",
"T. c #9496A3",
"R. c #939AA6",
"E. c #959DAA",
"W. c #9A9EAA",
"Q. c #9E9EA3",
"!. c #A19CA2",
"~. c #9BA2AC",
"^. c #9AA4B1",
"/. c #9CA8B5",
"(. c #9CABB8",
"). c #A2A4A9",
"_. c #A6A2A6",
"`. c #A1A6B0",
"'. c #A1A9B4",
"]. c #A2AFBC",
"[. c #ABACB0",
"{. c #B1AEB1",
"}. c #A5B1BC",
"|. c #ADB6BE",
" X c #B9BBBE",
".X c #B7AAA8",
"XX c #A5B5C3",
"oX c #A9B9C6",
"OX c #A9BBC9",
"+X c #A9B7C2",
"@X c #B1BEC9",
"#X c #B6C0C8",
/* pixels */
"                    .           O           O .   .           .     . .   .     . .   .                 .                       ",
"+ + + # + @ + + + + + + + + @ # + @ + + + + + + + + + + @ @ + + + + + @ + + + + + @ + + + + + @ + + + + @ @ + + + + + @ + + @ + ",
"$ : : : : : : : : : : ; $ $ $ ; $ < $ < $ : : : : : $ : < $ $ < $ : $ $ $ < $ $ $ < < $ $ : : : : $ : : $ $ < $ $ < $ < : : $ $ ",
"$ < < < < < < < < < < < < 3 : : < < < < < < < < < < < < < < < $ < < < 3 < < < < < < < < < < < < : ; < < < < < < < < < < < < < $ ",
"; < < < < < < < < < < < < w $ $ < w < < < < < < < < < < w $ < $ < < < < < < < < < < < < < < < < : : w < < < < < < < 3 < < < < $ ",
"; < < < < < < : < < $ < < $ $ < < < < < < < < < < < < < < w < $ < < < < < < < < < < < < < < < < 3 $ $ $ < $ < < $ < < < < < < $ ",
"; < < < < < < < < $ $ < < $ $ < < < < < < < < < < < < < < < < $ < < < < < < < < w < < < < < < < $ $ $ < < < $ < < < < < < < < $ ",
"; < < < < < < < < < < < < < < w < < < < < < < < < < < < < < < $ < < < < < < < w < < < < < < < < < w < < < < < < < < < < < < < : ",
"$ < < < < < < < < < < < < < < < < < < < < < < < < < < < < < : : < < < < < < < < < < < < < < < < < < < < < < < < < < < < < < < < ",
"< < < < < < < < < < < < < < < < < < < < < < < < < < < < < < < : < < < < < < < < < < < < < < < < < < < < < < < < < < < < < < < $ ",
"$ < < < < < < < < < < < < < < < : : : : < : : : < : $ < : < : $ < $ < < : : : : : : < < : : : : < < < < < < < < < < < < < < < $ ",
"$ < < < w < < < < < < < $ $ $ $ $ $ $ $ $ $ $ @ $ $ $ $ $ $ * & $ @ $ $ @ @ $ @ $ @ $ $ @ $ $ * @ $ $ $ < < < < < < < < < < < $ ",
"$ < < < < < < < < < < $ $ + + + + + + + + + + + + + + + + + + + O O O + + O + O + O + + + + + + + + @ @ $ < < < < < < < < < < < ",
"$ < < < < < < < < w $ $ @ O . O O   O   O   O O O .   O . . . . . O O   O   O     O   O     . . . . . @ $ $ < < < < < w < < < $ ",
"$ < < < < < < < < $ $ @ O . . . + & * & + & & > & > ; > > > > > $ $ : > > > * > & & * * & * + + O   . O @ $ < < < < < < < < < $ ",
"$ < < < < < < < $ $ @ + O   O $ 1 r i i i i i f f h h h j h h h j j j j h h h f f i i i i i r 1 @ O . O + @ @ $ < < < < < < < $ ",
"$ < < < < < < $ * + + O O   + 1 i j H H H H J Y ! y.d.d.d.d.d.y.d.y.d.d.d.d.y.! Y U F U H H D i 3 + . . + + + * : : < < < < < : ",
"$ < < < < < < $ % O   O     % i D ! h.h.h.h.x.N.E.~.(.(.(.(.(.(.(.(.(.(.(.(.^.E.N.x.x.s.h.h.! S e @   .   . O & $ : < < < < : ; ",
"< < < < < $ < @ + . . X + & w g P g.m.V.V.T.R.~.`.}.}.|.}.|.}.|.|.}.|.}.}.|.}.'.^.E.T.V.V.B.g.J g 5 & + O     % @ : : < < < < : ",
"$ < < $ $ @ @ + .   % > e f S P ;.5.A.B.G.).~.~.~.Z.G.Z.Z.G.G.Z.G.Z.G.Z.Z.Z.!.Q.`.'.`.G.B.A.,.;.P S f e > %   O + @ $ $ : : : $ ",
"$ $ $ @ $ + + O     % e j Q d.5.,.4.4.K.G.`.'.!.B.z.5.5.5.5.,.,.5.5.5.5.5.5.z.F.).+X}.L.K.0.1.>.g.h.! j i %     O O + $ $ ; ; $ ",
"$ 3 $ $ @ O . .     > f Q V.~.F.9.2.3.D.H.|.}.G.5.#._ ' _ _ _ ' ' _ ` _ ' ` %.l._.@X@X.Xt.8.2.9.F.~.V.Q f *     . . O + @ : : ; ",
"$ < < $ + .   O X % 1 S d.~.[.L.r.O.O.r.J.{.[.F.>.' / / / / / / / / / / / / ' 0.J.@X XI.t.8.+.w.J.[.~.d.j 1 * # O . . + $ : < ; ",
"$ < $ @ + . O @ 1 i h J ~ l.F.9.1.X.X.3.S.J.J.9.<.] ) ) ) [ ) ) ) ) ) ) ) ) | 1.S.I.I.S.q.X.X.7.9.F.l.~ J f i , * O . + $ : < ; ",
"$ < $ $ + . + 1 i D J R ;.5.6.<.2.} X.3.8.r.r.1.2. .[ [ [ [ [ [ [ [ [ [ [ [  .o.8.t.t.q.8.} X.o.<.6.:.;.W J S i , +   + $ : < : ",
"$ w < $ + . + r S ! a.&.$.` ' )  .{ } } X.O.O.X.} { { { { { { { { { { { { { { X.X.8.O.X.} } {  .| ' ` $.&.g.! S r * O + $ : < ; ",
"$ < $ $ + O * i U x.V.k.:.` ' ] ..+.O.O.O.O.O.O.3.O.O.O.O.O.O.O.O.O.O.O.O.O.O.O.O.O.+.8.8.O.+...] ' #.:.j.V.x.U i &   + $ : : : ",
"$ < < $ + . * f Y n.W.C.m.5.5.0.9.w.w.S.e.e.e.e.w.w.w.S.e.e.e.e.w.t.e.e.e.e.e.e.w.t.w.e.r.t.w.9.0.5.5.l.C.~.N.Y f *   + $ : : ; ",
"$ < < $ + . * f p.Y.(.`.).G.G.H.H.L.P.P.P.P.P.P.P.P.I.J.I.P.I.P.P.I.P.P.P.P.P.P.L.P.P.P.P.P.L.L.H.G.Z.)./.].R.Q f & O + $ : < : ",
"$ < $ $ + . ; h y./.OXXX+X+X}.|.|.+X+X+X X+X|.+X X+X+X+X+X+X+X+X|.|.+X+X+X|. X|.|.XX|.|.|.|.|.|.|.}.|.|.XXoX^.y.h ;   + $ : < $ ",
"$ < < $ + . $ f Q U.(.(.(.(.(.(.'.(.].].XXoXOXoXoXOXOXOX@XOXOXOXOXOXOXOXOXOXOXOX#XOX#XXX].(./.(.(.(.(.(.(.(.U.Q f > . + $ : < $ ",
"$ < < $ + O + e A Q d.d.d.d.d.d.i.i.x.N.R./.].XX].].].].].].].].}.}.].].].].].}.].(.(.E.N.f.d.d.d.d.d.d.d.d.Q A e & O + $ : < ; ",
": < : @ + O + > r f j j j j j j A A S p.s.^.^.'.^.^.^.^.^.^.^.^.^.^.^.^.^.^.^.^.^.^.T.s.p.G j j j A j j j j f e > + O + $ : < ; ",
"$ < < @ +     + & * > > > * , ; $ : w j p.s.T.W.T.T.T.T.T.T.T.T.T.R.T.T.T.T.T.T.E.W.n.Y j w > , > > > > > > > % +     + $ : < ; ",
"& : < : > > > > > > * * - # X X O . $ t H u.s.s.c.c.s.n.n.V.V.V.V.V.n.n.v.v.c.c.s.s.u.H t $ O O o o # # * > > > > > > , : : : @ ",
"@ @ > w i f h A h A h d 7 4 2 2 = * 3 t N T E s.*.p.s.s.s.n.V.V.V.V.n.c.s.~ ~ ~ E p.T N t 3 = = 2 2 4 r d h h h h j f i w : $ + ",
"O + > t S Q d.d.d.d.y.P V c 8 8 4 3 5 y g B H J F H T p.s.c.V.V.V.V.c.s.E J F F H F B M r 3 3 4 8 8 l V P p.d.d.i.i.p.S i > + + ",
"  O > f Q Y.(.(.(.(.~.z.&.( m 0 0 6 6 7 u u u t u u M F s.c.V.V.V.M.c.s.J M s s u g u t y y y 9 0 q ^ $.z.~.(.(.(.(.U.Q f > O   ",
"    > h y./.OXOXOXOX}.Z.4.#.^ n z a y y y y y y u s M J p.c.V.V.V.V.c.p.F M s p u y y y y y u b n ^ #.5.Z.}.OXOXOXOX/.y.h *     ",
"    & f Q R.].].].]./.C.a.&.@.( C z k a u y y x M B J E s.v.V.V.V.V.n.a.E P B M u u y u 9 k z C C #.:.k.C./.}.].].].Y.p.f &     ",
"    * f Y N.^.^.^.^.E.V.m.a.>.@.Z n v l a 7 s M F R u.s.c.n.V.V.V.V.n.x.s.s.P F M u u a c v m ( @.,.a.m.V.E.^.~.^.^.N.Y i *     ",
"    & i U x.T.T.T.R.T.V.M.m.a.&.@.^ m v k u s B R s.c.v.n.V.V.M.V.V.n.n.n.v.s.R B u u k c m ^ @.&.a.m.M.V.T.T.T.R.Y.x.U i ;     ",
"    + i U x.T.U.V.V.V.V.V.V.m.a.@.^ m v k u s B R s.c.v.c.v.v.m.v.v.v.v.a.v.s.R D g u k v ^ ( @.-.v.V.V.V.V.V.T.U.T.x.U i &     ",
"    & f Y n.~.E.R.V.V.V.V.V.v.=.@.C z 0 a y u M F R E *.=.-.-.-.-.-.-.=.s.E R F M u u u c z C @.=.v.V.V.V.V.T.T.E.~.N.Y f &     ",
"    * f p.Y.(.^.E.T.V.V.V.V.v.*.K b k a u y u s N D F K @.#.#.$.#.#.@.@.K F D M u u y u a k b K *.n.V.V.V.V.T.E.^.(.Y.p.f *     ",
"    > h y./.oX(.W.T.V.V.V.M.c.E F g u u y 7 y u u s x b C ( ( / ( / ( n b x s u t y y y u u x F *.s.V.V.V.V.T.W.(.XX^.y.h *     ",
"    > f p.U.(.^.W.E.T.T.T.R.n.s.P N s s s s s s s s s b C ( ( _ _ ( ( C b x s s x s s s u u B J s.n.T.T.R.R.E.E.^.(.U.Q f >     ",
"O + > t S Q d.b.U.W.^.^.^.^.R.c.u.P F F F F F D F F F K @.@.#.#.#.#.$.@.K F F F F F F F H F T u.c.E.^.^.^.^.E.U.b.d.p.S t > + + ",
"+ $ : w i f S y.f.(.XX(.XX].(.U.v.u.~ ~ E ~ ~ ~ ~ ~ ~ *.s.&.-.-.-.-.-.=.*.~ ~ ~ ~ ~ E ~ ~ ! u.c.T.'.XX'.(.]./.f.y.G f t w : @ & ",
"$ $ : : > > e S d.(.OXOXOXOXXX(.R.n.c.c.c.x.c.c.c.c.c.c.v.v.m.v.m.m.v.v.v.c.x.c.c.c.c.c.c.v.n.R./.XXOXOXOXOX(.d.S e > > < : : @ ",
": < : $ + O > f p.f.(.(.(.(.^.Y.N.x.h.h.h.h.h.h.h.h.h.h.s.x.x.s.s.s.h.h.h.h.h.h.s.h.h.h.h.h.x.N.E.^././.(.(.f.p.f >   + $ : < $ ",
"$ < : $ O O + e h p.d.d.i.i.y.p.Y U H H H H H H H H H H H H H H H H H H H H H H H H H H H H U Y p.y.i.i.d.d.y.j e &   + @ < < $ ",
"; < : $ + O O > e f j h A h h f f i i t i i t t i i i i t i t i i i i i i i i t i i i i i i i f f h h h h h f e > + . + $ < < $ ",
"$ < : $ O O   O & > > $ $ > > > * + * * * @ $ @ * * * # * * * # * * # * @ # * * * * * * * + * * $ $ > > > > > + + . . + @ : < $ ",
"; : < $ + O O O     . .   O     O . . . . . . . . . . . . O . .   O O O . . . . . . . . O . O   O O   O   . . . . . O + $ < < $ ",
"; < : : $ + + + + + + + + + + + + + + + + + + + + + + + + + + + + + + + + + + + + + + + + + + O O + + + + + + + + + & $ $ < < $ ",
": < < : : $ $ $ @ @ @ @ @ @ @ $ $ $ $ $ $ $ $ $ $ $ $ $ $ $ $ $ @ @ $ $ @ $ $ $ * $ $ $ $ $ $ @ + @ @ @ @ $ @ @ @ @ $ $ < < < $ ",
"; < < < : : : : $ : < $ $ $ $ $ < $ $ < < $ < < : : : : : : : : $ $ < < $ < < $ : < : : : : : : ; ; ; ; : : : : : $ : < < < < $ ",
"; : < < < < : : < < < < : > < < < w $ 3 < < < < < < < < < < < < : < < < < < < < < < < < < < < : : : : : : < < : < : < < < < < $ ",
": < < < < : : : < < < < < < : $ < < < < < < < < < < < < < < < < $ < < < < < < < < < < < < < < : : : < < < < < < < $ < < < < < $ ",
"$ : < < < : : : < < < : < < : : < < < < < < < < < < < < < < < : $ < < < < < < < < < < < < < < : : < : < < < < < : : < < < < < $ ",
"$ : : : : : : ; : : : : : : : $ ; : : : ; : : : : : : : : : : : $ : : : : : : : : : : : : : : ; ; : : : : : : : : $ : : < > : $ ",
"+ + + + + + + + + + + + + + + + + + + + + @ + + + + + @ + + + + + + + + + + + + + + + + + + + @ + + + + + + + + + + + + + + + + ",
"                  O     O                       .               . O           O                                         O       "
};
