/* XPM */
static char *result[] = {
/* columns rows colors chars-per-pixel */
"64 64 189 2 ",
"   c #26141B",
".  c #28151E",
"X  c #2D191F",
"o  c #311B1F",
"O  c #2B1722",
"+  c #2E1A26",
"@  c #331E2E",
"#  c #321E22",
"$  c #351F30",
"%  c #33242B",
"&  c #3B2529",
"*  c #332126",
"=  c #372131",
"-  c #392336",
";  c #362931",
":  c #392C34",
">  c #3D253A",
",  c #3E3139",
"<  c #462B2A",
"1  c #452E32",
"2  c #4D3332",
"3  c #42353D",
"4  c #4E383D",
"5  c #573834",
"6  c #513B3D",
"7  c #5F3D34",
"8  c #5E403D",
"9  c #6A473E",
"0  c #764E3F",
"q  c #423240",
"w  c #453C45",
"e  c #483D46",
"r  c #533C41",
"t  c #593F41",
"y  c #4F4047",
"u  c #4D434C",
"i  c #574247",
"p  c #5F4241",
"a  c #5A464C",
"s  c #53464A",
"d  c #534C56",
"f  c #594D55",
"g  c #544E58",
"h  c #57525C",
"j  c #58545E",
"k  c #664642",
"l  c #60494C",
"z  c #724D43",
"x  c #6C504D",
"c  c #78574E",
"v  c #7C5344",
"b  c #614F56",
"n  c #615057",
"m  c #65565F",
"M  c #6C5755",
"N  c #5A5761",
"B  c #5F5A64",
"V  c #615964",
"C  c #695B63",
"Z  c #605E68",
"A  c #6A626D",
"S  c #766264",
"D  c #7F6765",
"F  c #72686D",
"G  c #74676B",
"H  c #6A6671",
"J  c #6E6B76",
"K  c #6F6D78",
"L  c #706770",
"P  c #746A73",
"I  c #7A6D71",
"U  c #786F79",
"Y  c #716E79",
"T  c #6F727D",
"R  c #70737E",
"E  c #7A727C",
"W  c #825644",
"Q  c #825D4F",
"!  c #905D46",
"~  c #845D50",
"^  c #9D6248",
"/  c #8C6655",
"(  c #8C6A5D",
")  c #946956",
"_  c #9F6E59",
"`  c #AB684A",
"'  c #B86E4D",
"]  c #BF724F",
"[  c #A06B53",
"{  c #AD6D50",
"}  c #AB735B",
"|  c #BC7454",
" . c #B0765D",
".. c #B7785D",
"X. c #BD7A5D",
"o. c #BC7758",
"O. c #876C66",
"+. c #8D6E64",
"@. c #89726C",
"#. c #927265",
"$. c #857474",
"%. c #84767A",
"&. c #84797D",
"*. c #8C7C7D",
"=. c #917C76",
"-. c #9B7E75",
";. c #997F7B",
":. c #A67B6B",
">. c #A97F6C",
",. c #B57B63",
"<. c #BC7F65",
"1. c #968078",
"2. c #9B837A",
"3. c #B4816B",
"4. c #BB836B",
"5. c #AC897D",
"6. c #A68579",
"7. c #BE8770",
"8. c #B78977",
"9. c #B88E7E",
"0. c #B48D7D",
"q. c #BE917E",
"w. c #757580",
"e. c #777880",
"r. c #7D7B85",
"t. c #787C88",
"y. c #7C7680",
"u. c #847E87",
"i. c #817D88",
"p. c #7A808C",
"a. c #7F8691",
"s. c #818087",
"d. c #83828E",
"f. c #8A8188",
"g. c #948584",
"h. c #988E8E",
"j. c #968886",
"k. c #858692",
"l. c #888692",
"z. c #8B8995",
"x. c #8D8D9A",
"c. c #958F93",
"v. c #8D919E",
"b. c #9D9393",
"n. c #90919E",
"m. c #9F9A9C",
"M. c #99969C",
"N. c #A48B88",
"B. c #B38F82",
"V. c #BB9484",
"C. c #B59387",
"Z. c #A49593",
"A. c #A49D9D",
"S. c #AB9F9B",
"D. c #B39B93",
"F. c #AD948E",
"G. c #ADA09D",
"H. c #B4A39E",
"J. c #BCA59E",
"K. c #8E99A5",
"L. c #9497A4",
"P. c #959AA6",
"I. c #949CA9",
"U. c #9A9FA9",
"Y. c #9E9EA3",
"T. c #A09DA1",
"R. c #97A1AE",
"E. c #9BA2AB",
"W. c #9BA4B2",
"Q. c #9CA9B6",
"!. c #9CACB9",
"~. c #A2A4AA",
"^. c #ABABAF",
"/. c #A6A2A6",
"(. c #A1A6B0",
"). c #A1A9B4",
"_. c #A2AFBD",
"`. c #B1AEB0",
"'. c #A4B1BD",
"]. c #ACB6BE",
"[. c #B9BBBE",
"{. c #B7AAA8",
"}. c #A5B5C3",
"|. c #A9B9C6",
" X c #AABCCA",
".X c #A9B7C2",
"XX c #B1BEC8",
"oX c #ADC0CE",
"OX c #B6C0C9",
/* pixels */
"              .                   . .                       .   .                                       O .   .     . .         ",
"+ + # + @ @ + + + + @ @ O + + + + + + + + + + + @ + + + + + + + + + + + + + # + + @ + + + + + @ + + + + + + + + + + + + + + + + ",
"$ - - - > $ $ > $ $ > $ $ $ $ $ $ $ $ $ $ = $ = = = $ = $ $ $ $ $ = = = $ $ $ - $ $ $ $ $ = = = $ $ $ = $ - - - - - - - - - - $ ",
"$ > > > > > > > > > > - $ @ @ @ $ @ $ @ @ $ @ @ @ @ @ @ $ $ $ # @ @ @ @ $ @ $ $ @ @ $ @ @ @ @ @ @ @ $ = - - > > - > > > > > > $ ",
"= > > > > > > > > > > $ $ @ O O + + + + + + + + + + + + + + + O + + + + + + + O + + + + + + + + O O + $ - - > > > > > > > > > = ",
"= > > > q > > > > - $ @ + O . . . O . . . . . . . . . . . . O     O   . . . O O . O . . . . . . . . O # $ $ - > > > > > > > > = ",
"= > > > $ > > $ - - @ @ O . . X + * % * % % % = % ; ; ; ; ; ; ; ; ; ; ; ; ; = % % % % * % % @ + X   . O @ $ - > $ > > > > > > = ",
"= > > > q > $ > $ $ @ + O . . & , e u u u u u d g j j j j j j j N j j j j h h h d u u u u u e , % X   O + + $ $ $ > 1 > > > > = ",
"= > > > > > > = @ @ + O .   + , e V A H A A H K w.t.p.p.p.p.p.t.p.p.p.p.p.p.p.R T H A A A A V u , +     O + + $ > > > > > > > > ",
"= > > > > > - @ @ O . .     * e C y.i.k.k.i.l.n.I.W.!.Q.!.!.!.Q.!.!.!.!.!.!.R.K.v.k.d.a.k.u.w.V u *     . O O + $ > > > > > > $ ",
"= > > > > - = @ O .   O * ; 3 f L u.c.n.n.L.P.U.Q.'.'.]..X'.'.].].].'.'.].].'.Q.E.E.P.M.n.c.u.F d , % % O     + $ $ $ > > > > $ ",
"= > > - - @ @ + O   O : w g V F $.;.N.Z.Y.U.W.U.Y.A.m.m.A.A.M.A.m.m.m.m.m.m.m.G.~.).E.Y.Z.N.;.$.G Z d w : +   O + @ $ $ $ > > - ",
"= > - = % + + O     * y N T p.1.-.:.6.N.S.(.Q.m.b.g.1.1.;.;.;.;.1.1.1.1.1.1.j.m.~..X]./.F.8.>.;.1.d.T N w *     O O + $ - - > $ ",
"= > - $ + O O       % g T K.W.Z.0.,.<.B.G.].'.m.2.#./ / / / ~ ) / / / / / ( #.j./.XXOX{.C.<.,.5.Z.E.K.T d ;     O O O + $ > > - ",
"= > - $ + .   . + % 3 j p.E.^.D.8.o.X.8.D.`.^.Z.-.) ! ! ! ! ! ! ! ! ! ! ! ! ) 2.G.[.[.J.V.X.X.8.D.^.E.p.V 3 * + O   . + $ - > $ ",
"= > - $ + . O % , y f A &.c.Z.5.3.o.| 4.V.D.D.5.:._ ^ ^ ^ ^ ^ ^ ^ ^ ^ ^ ^ ^ _ 3.C.H.J.V.7.X.| <.5.Z.c.&.A g w , % O O + $ - > $ ",
"= > - @ + O O , s B F I $.1.1.:. .] | 4.4.8.8.3. .{ ` ` ` ` ` ` ` ` ` ` ` ` { ,.4.q.q.7.4.| |  .:.-.=.@.I F B u , + O + @ - > = ",
"= > > @ + O % w Z R s.$.@.( ) _ { ' ] | ] o.X.| ] ] ' ' ' ' ' ' ' ' ' ' ' ' ' | o.X.X.o.] ] ' { _ ) ( @.&.s.E B w %   + @ - > = ",
"= > - @ +   % u H k.v.1.=.+.) _ } ..o.X.X.X.X.X.X.X.X.X.X.o.X.X.X.X.X.X.X.X.X.X.X.X.X.X.X.X...} _ ) ( =.g.c.k.H u % X + $ - > = ",
"= - - @ + O % d T v.E.M.h.2.1.6.5.0.0.9.9.9.9.9.9.B.q.q.B.B.B.q.9.9.9.9.9.9.9.9.9.9.9.9.9.9.9.5.6.1.2.h.M.E.v.J d %   + @ - - = ",
"= = = @ + O % g e.K.).(.E.m.m.G.G.H.H.H.H.J.H.H.J.H.H.D.J.D.H.H.H.H.H.H.H.H.H.J.H.H.H.H.H.H.H.G.G.Y.Y.E.(.'.R.R g % . + @ $ = = ",
"= - = @ +   ; h t.Q.oX.X.X].'.].].].].].].].].]..X.X.X.X.X.X.X.X.X].].].].].].].].XX].]..X].].].].'.'.]..X.XQ.p.j ; . + @ = - $ ",
"= > - @ +   % g T K.!.!.!.!.!.!.!.!.!.'.}.|.oX X}.|. X|.XX X}.|. X X X X X X X|. X X X'.'._.!.!.!.!.!.!.!.!.K.R d % . + $ - > = ",
"= > - @ + O + w j T p.p.p.p.p.p.p.p.a.v.I.Q.'.'.}.).}._._.}.}.}._._.'.'.'.!.'._.'.'.Q.R.v.p.p.p.p.p.p.p.p.p.T j w * . + @ - > = ",
"= > - = +   + : w d j j j j j j j j Z T k.P.W.W.R.W.W.W.W.W.W.W.E.W.W.W.E.W.W.W.W.E.P.k.T B j j j j j j j j d w : +   + = - > = ",
"= - - @ + O   O % ; ; ; ; ; ; ; ; ; 3 j Y z.L.L.L.L.L.L.L.L.L.L.L.L.L.L.L.L.L.L.L.L.z.Y h w ; ; ; ; ; ; ; ; % % +     + @ - > = ",
"= > - = +     + % % ; % X X o X X X ; y Z r.k.k.l.l.l.z.n.n.n.n.n.n.n.x.z.z.l.l.l.l.r.C u % O X X X # * % ; % % O     + = - > = ",
"= > - @ +   + : w d d u 8 2 < < & & : y n L E E U U y.i.u.x.n.n.n.n.x.l.i.y.U U E E L j e 1 & & < < 1 8 s d g y : + O + @ - > = ",
"= > - $ + O + w N T e.F M 8 8 5 2 1 3 r f m C C C C G U i.z.n.n.n.n.z.i.U A C C C C m a 8 3 1 2 5 8 9 M G R R j w @ O + @ - > = ",
"= > - @ + O ; g T K.R.j.1.c 0 9 8 6 6 6 t i a a a a b A y.z.n.n.n.n.z.y.A b a l a a i i 8 2 8 8 9 0 c @.f.R.K.R d % O + @ > > = ",
"= > - $ + O = g T K.R.c.1.( Q c x l a i t r r t a t b A y.l.n.n.n.n.l.y.L b t a i 6 6 i u u l x c c ( 1.c.R.K.w.g ; O + = - > = ",
"= > > = @ + ; u B w.p.E I @.+.D S C m n a i r f b C A U i.z.n.n.n.n.z.i.U C C b a i i a n j C S O.O.@.$.e.t.w.B u ; + @ = - > = ",
"= > > - = = - q e g C A $.u.u.u.i.i.w.C h f t b C P y.i.l.x.n.n.n.n.x.u.i.y.P C b t t b C w.u.u.u.u.u.u.A V g e q > $ $ > > > $ ",
"= > > > > > - - - - q h G u.u.u.u.i.i.w.C t t V P i.z.x.x.n.n.n.n.n.n.n.x.x.i.P V a f V L i.u.u.u.u.u.O.h q $ > - > - > > > > $ ",
"= > > > > > - $ + . $ u A i.v.n.u.L.i.i.C t t A P i.u.z.l.l.u.l.k.l.l.u.z.u.i.P V t t C i.u.u.W.u.U.u.A e $ . + $ - > > > > > = ",
"= > > > > > - @ + . $ e H u.n.v.n.L.i.y.A t t n C P U U y.w.%.U w.U U y.y.w.P C m t a C w.i.L.u.W.u.i.A e $ . + $ - > > > > > = ",
"= > > > > > > $ + . % u H i.v.L.n.n.u.i.A t t f n C C C C C C C A C C A C C m b a t a C i.u.n.n.u.W.i.w.q > . O $ > > > > 1 > $ ",
"= > > > > > - $ + . % u H i.L.v.n.n.i.i.A t r t t t t f a a a a t f t t t f t t r r a A i.i.n.n.W.u.i.V e $ . @ $ > > > > > > $ ",
"= > > > > > - $ + . % u H i.n.n.L.L.i.i.C t e r r r r r r 4 r r r r r r r r r r r r a C w.i.n.n.u.W.i.w.u $ . O $ $ > > > > > $ ",
"= > > > > > > @ + . % u H i.n.n.L.u.i.y.A t r r r r r r r r r 4 r r r r r r r r r r a C i.u.n.n.W.u.i.w.u - . + $ > q > > > > $ ",
"= > > > > > > $ @ . @ e H t.n.n.u.P.u.i.m a r r 6 r r r r 4 r r r r r r r r r r r r p C y.i.u.n.n.v.a.A u @ O + $ $ > > > > > > ",
"= > > > > > - # O . @ w H k.n.L.L.L.u.w.C a r r r r r r r r r r r r e r r r r r r 4 t C i.i.P.L.n.v.d.A u %   + $ $ > > > > > $ ",
"= > > > - - - = > $ > h w.k.v.n.u.u.i.w.m a r r r r r r r t t t t t t t r r r r r r t C P i.u.u.x.n.a.J h , % = $ $ > > > > > $ ",
"= > - - = $ - q u h Z w.t.i.v.i.i.i.i.C b r r r r r r t p k k k k k p t t r r r r r t n C y.i.i.k.x.z.t.J Z g u q $ $ $ $ > > - ",
"= > - - $ + - u w.w.t.t.L.u.u.u.i.A m b a i r r r r r 8 k z z v z z z p p r r r r r t b n V A y.i.x.x.z.a.p.w.N e : + $ - > > $ ",
"= > - $ + + ; g t.i.R.I.W.W.u.i.C b a i r r r r r r t k z W W W W W v z k t r r r r t e t t b A E z.L.I.R.Q.K.w.g - O + $ > > $ ",
"= > - @ +   ; N t._.oX_._.I.u.i.C b a a a a a a a a a x c Q ~ ~ / / ~ c x l a a t t f t b t V L r.x.P.Q.}. X!.p.N : . O $ - > $ ",
"= > - @ + O ; h t._.oX}._.W.L.u.i.L C C C C C C C C C S O.O.+.+.+.+.O.O.S C C C A C C C V C L y.l.L.Q._.}. X!.p.N = O + $ - > - ",
"= - - $ + O ; j p.!. X X}.}.Q.K.l.r.U E E U U E U E E %.*.*.*.*.*.*.*.u.%.E w.U E E E E E E r.k.L.Q._.}. XoX!.p.h ;   + @ > > = ",
"= > - $ +   ; j p.!.oX X X X}.Q.I.x.l.l.l.l.k.k.l.l.l.l.l.z.c.l.l.c.l.z.z.l.l.l.k.l.l.l.l.d.v.I.Q.}. X XoXoX!.p.h ; O + @ - > = ",
"$ > - $ +   ; d w.K.!.!.!.!.R.I.x.l.d.d.d.k.i.a.k.k.k.d.k.k.i.k.u.i.t.k.u.k.a.i.d.d.p.d.d.d.k.v.I.Q._.Q.!.!.K.T g %   + $ - > @ ",
"- > - $ + O + w N w.p.p.p.p.t.w.K H A A A A A A Z Z A A Z A H Z H H A A A A A A A A A A A A H J w.t.p.t.p.p.w.N w % O O @ - > = ",
"$ - - $ + O + ; w d j j j N j d d u u u u u e e u u u u u u u u e u u u u u u u u u u u u u u d g h h N j j g w : + O + $ - > = ",
"- > - @ O O   + + ; ; ; ; ; ; ; % @ % % % % - @ & % % @ % * % % & = % % * % % % % * % % % * % = ; ; ; ; ; ; % + O     + @ > > = ",
"= > - $ + O O O . . . . . .     . . . . O . . . O O     O O . . . . . . O .     O     O   O O   .   O .   O   O O   + + $ - > = ",
"= - > - $ + O + + + + + + + + + + + + + + + + @ + + + + O + + + + + + + + + + + + + + + + + + + O + + + + + + + + + + @ - - > = ",
"= > > - = = @ @ $ $ $ $ $ $ $ $ $ $ $ $ $ $ $ $ $ $ $ $ $ $ $ $ $ @ $ $ $ $ $ $ @ $ @ @ @ $ @ + @ $ $ $ $ $ $ $ @ @ $ - - > > = ",
"= > > > > - = - $ - - - $ $ $ $ > > > $ > $ > > $ > $ > $ > > $ $ - - - - - > $ > > > - - - > = $ $ $ $ $ - - = - ; - - - > > = ",
"= > > > > > - - - - > - - - - - > > > > > > > > > > > > > > 1 $ $ > > > > > > > > > > > > > > - $ - - - - > > - - - > > > > > = ",
"= > > > > > - - > > > > - > - - > > > > > > > > > > > > > q > > - > > > > > > > > > > > > > > > - > > > > > > > - - > > > > - = ",
"= > > > > > = > > > > > > > - - > > > > > q > > > > > > > > > > $ > > > > > > > > > > > > > > - - - > > > > > - - - - > > > > - ",
"= = - - - = = = - - - - - - - $ $ $ > $ $ $ $ $ > $ $ > - - = - = - - $ > - - - - - - - = - - - = - - - - - - - = = - - - - - $ ",
"+ + + + + + + + + + + + + + + + + + + + @ @ + + + + $ @ + + + + @ + + + + + @ + + + + + + + + + + + + + + + + + + + + + + + + + ",
"                  O                       .                             .                                         O           O "
};
