/* XPM */
static char *result[] = {
/* columns rows colors chars-per-pixel */
"64 64 183 2 ",
"   c #26141B",
".  c #28151E",
"X  c #2C191F",
"o  c #321D1F",
"O  c #36221F",
"+  c #38231F",
"@  c #2E1A27",
"#  c #2C1823",
"$  c #341E2E",
"%  c #311D25",
"&  c #351F30",
"*  c #2F2027",
"=  c #2F2028",
"-  c #332026",
";  c #3E2A23",
":  c #34232B",
">  c #3B2529",
",  c #3C2828",
"<  c #372131",
"1  c #392236",
"2  c #3D2B31",
"3  c #3C243A",
"4  c #372A32",
"5  c #442B29",
"6  c #482C2A",
"7  c #4D322A",
"8  c #5A3F29",
"9  c #54382A",
"0  c #422D32",
"q  c #4C3332",
"w  c #4C363B",
"e  c #493439",
"r  c #563833",
"t  c #523A3C",
"y  c #5D3D36",
"u  c #5E4229",
"i  c #5E403D",
"p  c #5A4032",
"a  c #64482D",
"s  c #6B4838",
"d  c #764D3F",
"f  c #755A37",
"g  c #765636",
"h  c #6C5132",
"j  c #483C45",
"k  c #533C41",
"l  c #593F41",
"z  c #4C414B",
"x  c #564146",
"c  c #5F4241",
"v  c #5A464C",
"b  c #53464B",
"n  c #514B54",
"m  c #5A4950",
"M  c #57525C",
"N  c #5D545C",
"B  c #654642",
"V  c #654A43",
"C  c #6B4D45",
"Z  c #644848",
"A  c #734E43",
"S  c #69504C",
"D  c #78564D",
"F  c #7B5543",
"G  c #604F56",
"H  c #685252",
"J  c #65565D",
"K  c #6C5856",
"L  c #755650",
"P  c #7E6059",
"I  c #595660",
"U  c #6A5C63",
"Y  c #655C67",
"T  c #67616C",
"R  c #6C636C",
"E  c #766669",
"W  c #6E6C77",
"Q  c #696570",
"!  c #706770",
"~  c #756C75",
"^  c #6E717C",
"/  c #7A727C",
"(  c #72737E",
")  c #815A3A",
"_  c #886338",
"`  c #996F3F",
"'  c #93713C",
"]  c #A37B3F",
"[  c #825644",
"{  c #885E44",
"}  c #845D4F",
"|  c #835E50",
" . c #966944",
".. c #987747",
"X. c #8A6151",
"o. c #937859",
"O. c #876949",
"+. c #A47645",
"@. c #866B65",
"#. c #8C6F66",
"$. c #937C67",
"%. c #8C7775",
"&. c #8D7D7D",
"*. c #84777C",
"=. c #937E70",
"-. c #89746E",
";. c #AB823E",
":. c #AB8A4B",
">. c #B28546",
",. c #B48947",
"<. c #B59154",
"1. c #938075",
"2. c #96837E",
"3. c #BF9E61",
"4. c #BFA271",
"5. c #C0944A",
"6. c #C79C49",
"7. c #CEA24C",
"8. c #D0A351",
"9. c #D7AB52",
"0. c #D5AC58",
"q. c #DCB054",
"w. c #DEB458",
"e. c #CDA652",
"r. c #E4BB5D",
"t. c #EABF5D",
"y. c #E3BB60",
"u. c #EDC567",
"i. c #F0C560",
"p. c #F7CC64",
"a. c #F8CD65",
"s. c #FBD167",
"d. c #FFD56B",
"f. c #FFD770",
"g. c #FFD875",
"h. c #FFDB7F",
"j. c #777A85",
"k. c #7D7984",
"l. c #797F8A",
"z. c #7C7781",
"x. c #817D88",
"c. c #82808D",
"v. c #8F8387",
"b. c #92898A",
"n. c #868592",
"m. c #888692",
"M. c #8C8994",
"N. c #8D8D9A",
"B. c #918D95",
"V. c #8D909D",
"C. c #90919E",
"Z. c #9C999D",
"A. c #BFA781",
"S. c #BFAD98",
"D. c #BFAB90",
"F. c #8C97A3",
"G. c #9295A2",
"H. c #939AA6",
"J. c #969CAA",
"K. c #999EAA",
"L. c #99A1AD",
"P. c #9BA6B3",
"I. c #9BAAB7",
"U. c #A1ADBA",
"Y. c #A5B1BE",
"T. c #FFDB80",
"R. c #FFDF8B",
"E. c #EAD29A",
"W. c #EACB85",
"Q. c #FFE08F",
"!. c #FFE295",
"~. c #FFE49E",
"^. c #EADBB9",
"/. c #FFE6A6",
"(. c #FFE8AB",
"). c #FFEAB4",
"_. c #FFEDBF",
"`. c #A6B6C4",
"'. c #ABBDCB",
"]. c #ADC0CE",
"[. c #FFEFC3",
"{. c #FFF0C7",
"}. c #FFF1CC",
/* pixels */
"                          .     .           .           #                 #     .     .     . . .       . .                     ",
"@ @ @ @ @ @ @ @ @ @ % @ @ @ @ @ @ @ @ @ @ @ @ @ @ @ @ @ % % @ @ @ @ @ % @ % @ @ @ @ @ @ @ @ % % @ @ @ @ % $ @ @ @ @ $ $ @ @ @ @ ",
": 1 1 1 1 1 3 & 1 1 & & & & & & < < < < < < < < & < 1 < & & & $ & & & & & & & & 1 & & < : & & & & & & & & & & & & & 1 & 3 & & & ",
"& 3 3 3 3 3 3 3 & & & $ & & % $ $ $ $ $ $ $ $ $ $ $ $ $ $ $ & % & $ & & & $ & & $ $ $ $ $ $ & & $ % $ & & & & & 3 3 0 3 3 3 0 & ",
"1 3 3 3 3 3 1 & $ @ @ @ @ @ # @ @ @ @ @ @ @ @ * @ @ @ @ @ @ @ @ @ @ @ @ @ @ @ # @ @ @ @ @ @ @ # @ @ @ @ @ @ % & & 3 3 3 3 3 3 & ",
"& 3 0 3 3 3 3 & % # . . X . . .     . . . . . # . . . . . . . . . . . . #   . . . .   . . . .   . . . . . . @ % & 3 3 3 3 3 j & ",
"1 3 3 3 3 3 & & @ # o X X o o o O O + - ; ; ; ; ; ; ; ; ; ; ; ; , 5 ; ; ; ; , ; ; ; ; ; + + O o o o o X . X # % $ & 3 3 3 3 & & ",
"& 3 3 1 & & & & $ $ % > 5 6 6 9 9 u a a h f f f f f f f f f f f g g f f f f f g f f g h a a u 8 9 6 6 5 5 % $ % & & & & 3 3 3 & ",
"& 3 3 & & % % > , 5 6 q r y s s g ) _ ' ;.:.:.:.:.:.:.:.:.:.:.:.:.:.:.:.:.:.:.:.:.:.:.;.' _ f g s s y r q 0 0 > & @ % $ & & 3 & ",
"& 3 3 & % # # % 2 e t i s A [ _ ` +.;.6.e.0.w.r.y.y.y.y.y.y.y.y.r.w.w.u.y.w.y.y.r.r.0.e.6.;.;.` _ ) d B i w q 3 & # # % & 3 j & ",
"& 0 3 & @ . X $ 0 t B C [ {  .+.>.5.7.q.r.s.d.d.f.g.g.g.g.g.g.g.g.g.g.g.d.g.g.g.d.d.a.u.q.7.5.,.+. .{ [ A i r 0 $ . . @ & 3 & & ",
"& 3 & & @ . X > q i B F { +.+.+.5.8.q.r.i.s.d.g.T.R.R.Q.R.R.R.R.Q.Q.Q.Q.Q.Q.Q.T.g.d.a.i.t.q.7.<.+.+. .{ A A i q 5 X . @ $ 3 3 & ",
"& 3 3 & @ . X 6 r s [ {  .+.,.6.8.w.t.i.p.s.d.h.R.~././././././././././././.~.Q.Q.d.s.a.i.t.w.e.6.+.+.+. .[ B r 5 # . # & & 3 & ",
"& 3 & & @ . X 6 y A {  .+.+.5.8.w.i.a.s.s.d.f.R./.)._._._.[.[._._._._._._._.).~.Q.f.s.s.s.a.i.w.8.5.+.+. .{ d y 6 # . @ $ 3 3 & ",
"& 3 3 & @ . o 6 s )  .+.+.5.7.q.t.a.d.d.f.f.h.!.(.[.}.}.}.}.}.}.}.}.}.}.}.}.{.(.Q.h.f.d.d.d.a.t.q.7.6.5.+. .) s 6 o . $ & 1 3 & ",
"& 3 3 & % . o 9 s { +.,.6.7.q.t.i.s.d.g.T.R.!./.).[.}.}.}.}.}.}.}.}.}.}.}.}.{.(./.!.Q.h.g.f.s.i.t.q.8.5.+.+._ s 9 o . @ $ 3 3 1 ",
"& 3 3 & @ . % 9 g ' ;.6.8.r.t.i.p.s.d.T.!.~.(.).[.{.}.}.}.}.}.}.}.}.}.}.}.}.[._.).(.~.R.T.f.a.p.t.t.w.8.5.,.` g 8 o . @ & 1 0 & ",
"& 3 & & @ . % u g ;.6.7.q.t.a.a.s.d.f.R.~.)._.[.}.}.}.}.}.}.}.}.}.}.}.}.}.}.}.}.[.[.).~.R.f.d.d.a.p.t.w.7.5.] ) 8 + . @ & 1 & & ",
"& 3 & & % . + u _ ;.6.9.t.p.s.d.d.g.h.!.(.[.}.}.}.}.}.}.}.}.}.{.[.[.[.[.}.}.}.}.{.}.[.(.!.h.f.f.d.d.a.t.9.6.] _ u o   % & 3 j $ ",
"3 3 3 & @ . + u f ;.6.9.t.p.d.g.T.R.!./.).[.}.}.}.}.}.}.}.}.{.[.).(.(.)._.{.}.}.}.}.[.)./.!.R.T.g.d.p.t.9.6.;._ u +   o & & & & ",
"& & & % # . o u _ ;.7.9.r.p.f.T.Q.~.(.)._.{.}.}.}.}.}.}.}.}.[.)./.!.!.(.).[.}.}.}.}.{.[.).(.~.Q.T.f.a.r.9.6.;._ u o . @ $ & & & ",
"& 3 & & @ . + u _ ;.6.9.r.p.g.Q.~.).[.}.{.}.}.}.}.}.}.}.}.}.[./.!.T.T.!.(._.}.}.}.}.}.[.[.[.).~.R.g.a.y.9.6.;._ u % . @ & & 3 & ",
"1 0 3 & @ . o u f +.,.6.0.r.u.W.E.^.^.^.^.^.^.^.^.^.^.^.^.^.^.E.W.u.u.W.E.^.^.^.^.^.^.^.^.^.^.E.W.y.y.0.6.<.] g u o . @ & & 3 & ",
"& 3 & & @ . o 9 h _ ..:.<.<.3.4.4.D.S.S.S.S.S.S.S.S.S.S.S.S.D.A.4.3.3.4.A.S.S.S.S.S.S.S.S.D.D.A.4.3.3.:.+.+._ h 9 o . @ & 3 3 3 ",
"& 3 3 & @ . o 5 y h D O.O.o.o.o.$.1.1.1.=.1.1.1.1.1.1.1.=.=.=.$.$.o.o.o.1.1.1.1.=.=.1.1.1.1.=.$.o.o.o.O.O.F h p 6 o . @ & 1 0 & ",
"& 3 & & @ . X , 7 i c V V C s S S H H H H H H H H H H H H H H H S S V Z S S S S H H H H H H H S S S C V V c i q > X . @ & 1 & & ",
"& 3 3 & @ . X % 2 e w w w w w w w w w k k v v v v v m v v v v v v v v v v v b m v v v x j j w w e w w w w w q 2 % . . @ & 3 j $ ",
"& 3 & & @ . . # - 2 0 2 0 0 0 0 0 2 0 x m J U U U Y U U U U U U U U U U U U U U U U J v k e 0 0 0 2 0 0 2 2 2 - % . . @ & 3 & & ",
"3 3 & & $ . . . * - - - : , - - : : 0 j J ! / / / / / / / / / / / / / / / / / / / / ! N x 2 : - - , - - - - - @ . . . @ $ 3 3 & ",
"& 3 3 & @ . . .   X X X X X X X X X > z Y k.m.n.n.n.n.m.n.n.m.m.n.n.n.m.n.n.m.n.m.n.k.Y z : X X X X X X X . X . . . . @ $ & 3 & ",
"& & 3 & @ . . @ * : 4 : - * o X X X : z Y k.m.m.m.n.m.M.N.C.C.C.C.C.C.N.N.m.m.m.n.n.z.Y z : # X X X - - : 4 : @ # . . @ & 3 3 & ",
"& j & & @ . # & j n n b t q 5 5 , > 0 j N ! / / / / z.x.n.N.C.C.C.C.C.c.x./ / / / / ! N x 2 > ; 5 5 e p b M n j 1 @ . @ & 3 3 & ",
"< 3 1 $ @   @ j N z.x.@.L B y r q 0 e k G Y U T U U R ~ x.N.C.C.C.C.M.x./ R U U Q T J G j j 0 q r y B L @.k.z.n j @   # & 1 3 & ",
"< 3 1 & @ # = n z.G.K.x.#.} d B i k k k k l l m v v G R z.m.C.C.C.C.M.z.R G v v l l l l k k k i A d } -.x.K.F.j.n $ # @ & 1 3 < ",
"< 3 1 & @ # 4 M j.J.Y.Z.x.#.X.[ Z c l k k k k k l l G R z.x.C.C.C.C.m./ R G v x l k k k k l c Z [ { @.x.G.`.J.j.M & # # & 3 3 & ",
"& 3 1 & #   1 n j.F.K.S.x.%.#.#.L C Z v l k l l G U R z.x.N.C.C.C.C.M.x.~ R J G v l k l l c A L | #.=.x.G.P.F.z.n & # # & 1 3 < ",
"< 3 1 & @ . $ n z.V.J.C.x.x.x.+.| D A Z c l l J U ~ z.x.m.N.C.C.C.C.N.n.x.z.~ U G l l v Z A L | #.x.x.Z.Z.K.G.z.n & . @ $ 1 3 & ",
"< 3 1 & @ . $ j Y l.G.C.Z.x.x.x.@.| [ A Z l l Y ~ x.x.M.N.C.C.C.C.C.N.N.M.M.x.~ Y l l Z A [ | #.%.x.Z.x.x.Z.x.R z = . @ $ 1 3 < ",
"< 3 1 & @ # & j Q x.C.C.K.G.x.=.#.X.[ A Z l l J ! x.M.M.x.M.m.m.m.m.n.m.m.m.x.~ U l l B A [ X.#.x.Z.Z.G.K.K.x.U z =   @ & 1 3 < ",
"< 3 1 $ @ # & j Q x.C.C.x.Z.Z.x.#.} [ A Z l l G U ! z.z./ / / / / / / / / / ! U G l l B A [ X.#.=.x.x.K.G.x.x.z.z = # @ & 1 3 < ",
"< 3 1 & # . = z Q x.C.C.C.C.Z.=.#.X.[ A B l l v N Y U Y U U U Y U U U U T U J J m l l Z A [ X.#.&.M.C.C.N.G.l.T z =   @ $ 1 3 < ",
"& 3 1 & @ # = z Q l.C.C.C.C.x.x.#.X.[ A B l l l l l l v v v m l v v v v l l l l k k l Z A [ X.#.&.M.C.N.G.N.n.T z = # @ $ 1 3 < ",
"< 3 1 $ #   = n Y x.H.G.C.G.x.x.@.| [ A c k k k k t k k l l l l l l t l k k k k k k l Z A A | @.&.M.C.G.G.G.c.Q n = # @ $ 1 3 < ",
"1 3 1 & @ # = n z.N.P.J.J.C.N.x.@.L C B c k k k k k l l c B B B B B B i k k k k k k l c B A L @.*.M.G.H.J.L.F.Q n =   @ & 1 3 < ",
"& 3 1 & @   = n z.G.I.P.K.G.x.x.E H Z v l l k k k k k l B A A A A A A B c k k k k k k l c B H E *.M.G.K.I.I.H.j.n : # @ $ < 3 < ",
"< 3 3 & @ # 4 M j.P.`.I.K.K.x.z.U G l l k k k k k k l B A F [ [ [ { F A B l k k k k k l k l Z U / M.H.K.I.`.P.j.M &   @ $ 3 3 < ",
"< 3 < & #   : M l.I.`.`.U.J.C.x.E G l l l l l l Z m Z S D | X.X.} X.} L S Z l m k l m v l l J R k.N.K.P.Y.'.I.l.M 4   @ & < 3 < ",
"< 3 3 $ @ # 4 M x.P.'.`.U.U.J.x.x.E U R Q U T R U U U E E #.#.#.#.#.#.@.E U R U Y U U T R U ! x.m.K.I.U.`.].I.l.M : # @ & 3 3 < ",
"< 3 < & @ . 4 M l.I.].'.`.U.I.F.m.l./ / / / / / / / / *.*.&.&.&.&.&.&.x.*./ / / / / / / / / k.m.H.U.U.`.`.].I.l.M 4 . @ & 1 3 & ",
"< 3 1 & @ . 4 M l.I.'.'.'.'.`.I.H.N.m.m.m.m.M.m.n.m.m.M.M.M.M.B.b.M.M.N.M.m.m.m.m.m.m.n.m.m.N.H.P.`.'.'.].].I.l.M 4 . @ & 1 3 4 ",
"& 3 1 & @ . = n ^ F.P.I.I.I.I.F.N.n.c.c.c.c.c.c.x.n.n.l.c.c.c.c.x.x.x.x.x.x.n.l.x.n.x.n.x.n.n.F.H.P.I.I.I.I.F.^ n = . @ & 1 3 & ",
"< 3 1 & @ . = j M j.j.l.l.l.l.j.W Q Q T T T T T Q Y Q Y T T T T Q Q T T Q Q T Q T T T T Q Y Q ^ j.j.l.l.l.l.^ M j # . @ & 1 3 & ",
"< 3 1 & @ # # 4 j n M M M M M n n z z z z z z j j z z z z z z z j j z z z z z z j z z z j z z z n M M M I M n j 4 # # @ & 1 3 & ",
"< 3 1 & @     # @ = 4 4 & : 4 4 = @ = : : = : $ : < $ : = = = = < : : < = @ = = < : : = : = : 4 : < : 4 4 4 : @ #   . @ $ 1 3 < ",
"< 3 3 & @ # # #   . . . . . . . # # # # #   # . # #     # . . #   # #   # # # #   # #   #   . . . . . .   #   # . . # @ & 3 3 < ",
"< 3 1 < & @ # # @ @ @ @ @ @ @ # # # # @ @ # @ @ # @ @ @ # @ @ @ @ @ @ @ # # # # # @ @ @ @ @ @ @ # @ @ @ # @ # @ @ @ = & & 3 3 < ",
"< 3 3 3 < & $ = $ & & & $ & & $ & & & & & & & & $ $ $ $ $ $ $ $ $ & & & & & & & < : & & & & & @ $ $ $ $ $ & $ & $ $ & < 3 3 3 & ",
"< 3 3 3 3 3 < 1 & 1 3 & & & & 1 1 3 & 3 3 & 3 3 1 1 3 3 3 1 3 1 & & 3 3 1 1 3 & 1 3 1 1 1 1 1 1 $ < < < 1 1 1 < 1 & 1 3 3 3 3 & ",
"< 3 3 3 3 3 1 1 1 3 3 3 1 1 & 1 3 3 0 3 3 3 3 3 3 3 3 3 3 3 3 3 1 3 3 3 3 3 3 3 3 3 3 3 3 3 3 1 < < 1 1 1 3 3 1 1 1 3 3 3 3 3 & ",
"< 3 3 3 3 3 1 3 3 3 3 3 3 3 1 1 3 3 3 3 3 3 3 3 3 3 3 3 3 3 3 3 & 3 3 3 3 3 3 3 3 3 3 3 3 3 3 3 1 3 3 3 3 3 3 3 3 < 3 3 3 3 3 1 ",
"< 3 3 3 3 3 < 1 3 3 3 3 3 3 4 1 3 3 3 3 3 3 3 3 0 3 3 3 3 3 3 3 < 3 3 3 3 3 3 3 3 3 3 3 3 3 3 1 1 3 3 3 3 3 3 3 1 1 3 3 3 3 3 < ",
"& 1 1 1 1 1 & 1 1 1 1 < 1 1 & & 1 1 1 1 1 1 1 1 1 1 1 1 1 1 1 1 < 1 1 1 1 1 1 1 1 1 1 1 1 < 1 < < 1 1 1 1 1 1 1 4 & 1 1 1 1 1 & ",
"@ @ @ @ @ @ @ @ @ @ # @ @ @ @ @ @ @ @ @ @ @ @ @ @ @ @ @ @ @ @ @ @ @ @ @ @ @ $ @ @ * @ @ @ @ @ @ @ @ @ @ @ @ @ @ @ @ @ @ @ @ @ @ ",
"                  #     . . . .                       #                                                                       # "
};
