/* XPM */
static char *result[] = {
/* columns rows colors chars-per-pixel */
"64 64 194 2 ",
"   c #26141B",
".  c #29161F",
"X  c #2A1721",
"o  c #2E1B26",
"O  c #2F1B28",
"+  c #311C2B",
"@  c #351F30",
"#  c #2F2028",
"$  c #3C2526",
"%  c #33232B",
"&  c #37242A",
"*  c #372132",
"=  c #392235",
"-  c #362931",
";  c #392B34",
":  c #3D253B",
">  c #3F313A",
",  c #432A2A",
"<  c #452E32",
"1  c #453236",
"2  c #41343D",
"3  c #4E383D",
"4  c #4F3332",
"5  c #593933",
"6  c #573C3C",
"7  c #63433C",
"8  c #734C3F",
"9  c #433742",
"0  c #453B44",
"q  c #4A3D44",
"w  c #483F48",
"e  c #533C41",
"r  c #593F41",
"t  c #4C424B",
"y  c #564146",
"u  c #5C4141",
"i  c #50444D",
"p  c #59464C",
"a  c #5C484F",
"s  c #4F4752",
"d  c #4E4851",
"f  c #504750",
"g  c #534B54",
"h  c #5E4C53",
"j  c #574F59",
"k  c #56515A",
"l  c #59555F",
"z  c #624442",
"x  c #6A4942",
"c  c #654949",
"v  c #734E43",
"b  c #785043",
"n  c #72524D",
"m  c #775043",
"M  c #604E55",
"N  c #665153",
"B  c #64545B",
"V  c #675659",
"C  c #7F5C52",
"Z  c #7C5F59",
"A  c #735855",
"S  c #5B5660",
"D  c #5D5B65",
"F  c #5F5E68",
"G  c #645A62",
"H  c #6B5E66",
"J  c #605E68",
"K  c #62616B",
"L  c #6D616A",
"P  c #72656B",
"I  c #7C696C",
"U  c #6D6974",
"Y  c #6D6B76",
"T  c #746B73",
"R  c #746E79",
"E  c #786A71",
"W  c #6E707B",
"Q  c #71727D",
"!  c #7A727C",
"~  c #7E787D",
"^  c #825644",
"/  c #8B5B45",
"(  c #805A4B",
")  c #805D52",
"_  c #97654F",
"`  c #9B6148",
"'  c #8A6454",
"]  c #8A6558",
"[  c #8E695B",
"{  c #9A6A55",
"}  c #A6694F",
"|  c #AB684A",
" . c #BB6E4C",
".. c #B56D4E",
"X. c #BF714E",
"o. c #AD6D51",
"O. c #BE7454",
"+. c #BC795C",
"@. c #B97456",
"#. c #856C66",
"$. c #876D67",
"%. c #8B726B",
"&. c #927569",
"*. c #9B7768",
"=. c #857372",
"-. c #8D7671",
";. c #8E7976",
":. c #82797F",
">. c #8A7B7C",
",. c #967D76",
"<. c #9C7D74",
"1. c #937E78",
"2. c #A67966",
"3. c #AB7B69",
"4. c #BC7E63",
"5. c #B27E69",
"6. c #B27A61",
"7. c #A57F70",
"8. c #94827E",
"9. c #9A867F",
"0. c #BB8269",
"q. c #B7806B",
"w. c #A78579",
"e. c #B38673",
"r. c #BC8A74",
"t. c #B88E7D",
"y. c #B08878",
"u. c #767681",
"i. c #7B7681",
"p. c #777B87",
"a. c #7E7984",
"s. c #7C7F8B",
"d. c #847C85",
"f. c #817E8A",
"g. c #7D828D",
"h. c #7F8691",
"j. c #8D8186",
"k. c #84828D",
"l. c #8D858B",
"z. c #9E8681",
"x. c #978887",
"c. c #9C918F",
"v. c #858591",
"b. c #888692",
"n. c #828995",
"m. c #858D99",
"M. c #8D8D9A",
"N. c #8C8B97",
"B. c #948E93",
"V. c #87909C",
"C. c #8A929E",
"Z. c #9D9493",
"A. c #90919E",
"S. c #9A9699",
"D. c #AA948E",
"F. c #A5918B",
"G. c #B3968C",
"H. c #BE9685",
"J. c #A49392",
"K. c #B69990",
"L. c #BD9E92",
"P. c #A58781",
"I. c #8E96A2",
"U. c #9395A2",
"Y. c #9599A6",
"T. c #9D9BA1",
"R. c #969CA9",
"E. c #999FAC",
"W. c #A09FA3",
"Q. c #9AA0AD",
"!. c #95A2AF",
"~. c #9AA6B3",
"^. c #9EA9B6",
"/. c #9FAFBC",
"(. c #A4A2A7",
"). c #B1ACAF",
"_. c #B3A5A3",
"`. c #A5ACB4",
"'. c #AAAEB4",
"]. c #A1AEBB",
"[. c #A1A6B0",
"{. c #B0AEB1",
"}. c #AEB1B6",
"|. c #A3B0BD",
" X c #A8B2BB",
".X c #B0B1B6",
"XX c #BCB3B1",
"oX c #A6B4C2",
"OX c #A7B8C5",
"+X c #A8B9C7",
"@X c #AABCCA",
"#X c #ADC1CF",
"$X c #B0C1CE",
"%X c #BBCFDB",
/* pixels */
"        .                                                           .       .                                                   ",
"O O o o + + O O O O + + + O O + O O O O O O + o O O o o + + O O O O O O O O O O + @ O O O O + + + O O O O + O O O O O O O O O O ",
"& = = = @ @ @ @ @ @ @ @ = = @ @ : @ @ : = = = = = = = = @ : : @ @ @ @ : : @ @ @ @ @ : @ @ @ @ @ = @ @ = = = = = = = = = = * * * ",
"@ : : : : : 9 : : : 9 : : : = = : : : : : : : : : : : : : : : @ : < : : < : : : : : : : 9 @ 9 : = = : : : : : : : : : : : : : * ",
"= : : : : : : : : : : : : : = = : : : : : : : : : : : : : : @ @ : : : : : : : : : : : : : : : : = = : : : : : : : : : : : : : * ",
"@ : : : : : < = : = = : = = = = : : : : : : : : : : : : : : 9 @ : : : : : : : : : < : : : : : : = = = : = = = : = : : : : : : * ",
"@ : : : : : : = : = = : = = = = : : : : : : : : : : < : : : : @ : : : : : : : : : : : : : : : : : = @ = : = = : : : : : : : : $ ",
"= : : : : : : : : : : : : : : : : : : : : : : : : : : : : : : @ : : : : : : : : : : : : : : : : : : : : : : : : : : : : : : : @ ",
"@ : : : : : : : : : : : : : : : : : : : : : @ : : : = = : : : % : : : : @ : : : : @ 9 : : : : : : : : : : : : : : : : : : : : = ",
"@ : : : : : : : : : : : : @ + X                                 X                             o @ : : : : : : : : : : : : : : = ",
"@ : : : : : : : : : : : : @ +                                                                 O @ : : : : : : : : : : : : : : @ ",
"@ : : : : : : : : : : : : @ O                                                                 O @ : < : : : : : : : : : : : : @ ",
"@ : : : : : : : < : = = @ + X . X & ; > > > > > 9 0 w w t 0 t 0 9 w 0 w w 9 9 2 : 2 2 = & X   X + @ @ : : : : : : : : : : : : = ",
"@ : : : : : : : @ : = + + X X   & 2 g G F G J K K u.u.u.W u.W u.u.u.W u.W U J G G S G g 9 %   . O O @ @ : : : : : : : : : : : @ ",
"@ : : 9 : : : : 9 @ @ o . .     ; f U f.k.s.k.b.I.!.!.!.~.~.~.~.!.!.~.~.!.I.m.f.f.f.f.T g ;     X   O @ = : : : : : : : : : : @ ",
"@ : : : : : : : : @ + .   o + = q G :.B.S.A.Y.!.~./.oX/. X X X XoX].oX X].[.Q.R.U.A.B.d.G t - & X   X + @ : : : : : : : : : : * ",
"@ : : : : : : @ % + O .   ; t S U I ,.w.c.S.[.Q.T.Z.Z.Z.Z.Z.J.Z.Z.Z.Z.Z.J.Q.[.`.Q.J.9.,.=.P l t = . X o O + = = : : : : : : : * ",
"@ : : : : : @ @ o o .     0 K h.B.z.w.q.F._. X(.c.,.&.&.&.&.&.&.&.&.&.&.8.Z.'.#X).G.q.q.9.B.n.K q X   . . O + : : : : : : : : * ",
"@ : : : : : @ + .       o d g.^.}.G.0.@.t._.@X(.z.] / / / / / / / / / / _ z.{.%XXXH.+.0.G.{.|.g.g O .   . . + @ : : : : : : : * ",
"= : : : : : @ + . . % > q G ~ S.D.y.0.X.0.H._.D.7.{ ` ` ` ` ` ` ` ` ` ` { w.K.XXL.r.X.0.y.D.S.~ G w > & X X + @ : : : : : : = * ",
"@ = = = : @ @ + . # 2 g K P ~ 8.*.2.@.O.0.0.H.e.6.o.| | | | | | | | | | o.6.r.H.r.4.O.O.2.w.-.=.E L j 2 o . + @ : : = : = = = & ",
"= = = : : : @ + . % i U v.8.$.] _ } ..X.X.O.@.O.O.X. . . . . . .X. . . ...X.@.+.O.O.X. .} _ ' %.>.n.U i % . + * : : = : = = : @ ",
"= : : : : : @ + . % g ~ Q.c.8.&.*.2.5.0.0.0.0.0.0.0.0.0.4.0.5.0.0.0.0.0.0.0.0.0.0.0.0.q.2.*.&.8.B.Y.i.k - . + @ : : : : : : : @ ",
"= = : : : : @ + . % k g.~.Q.S.c.F.D.G.K.K.K.K.G.K.K.K.K.K.K.K.K.K.G.K.K.K.K.K.K.K.K.K.G.D.F.c.S.Q.`.g.S - . + * : : : : : : : * ",
"@ : : : : : = + . = G b.#X/. X`.`.}.}.}.}.}.}.}..X.X.X.X.X.X.X.X.X.X}.}.}..X.X.X}.}.}.}.}.`.`.|.oXOXm.D - X + @ : : : : : : : = ",
"= : : : : : @ + . @ l g././././././././.oXOX@X@X@X@X@X@X@X@X@X@X#X#XOX#X#X+X#X+XOX|.|./././././././.h.S - X + = : : : : : : : * ",
"= = : : : : = O X # t F g.Q g.g.p.p.p.g.m.R./.].].].].].].].].].`./.`.`././.|.].!.m.g.g.g.p.p.p.p.p.K t % X O @ : : : : : : : * ",
"@ : : : : : @ + . . - 9 d d t d d d d k Y k.R.E.Q.!.Q.Q.Q.!.Q.E.Q.Q.!.!.E.Q.Q.Q.h.Y g i d d d d d d 0 - X . O = : : : : : : : * ",
"= : : : : : @ + X                     o i T M.A.A.C.A.A.M.A.A.A.A.A.I.M.C.A.A.A.T d #                     . O @ : : : : : : : * ",
"@ : : : : : = O . X - > t t 1 $ $ & & & t G i.d.i.d.d.v.N.A.A.A.A.N.v.d.:.i.d.i.K t - $ $ $ $ < 0 t 9 - o X O * : : : : : : : * ",
"@ : : : : : = O X # t D u.U N 7 5 4 < 1 e j H H H H T i.b.A.A.A.A.b.! T H H H H h y 1 1 4 5 7 N P u.F t O X O @ : : : : : : : & ",
"* : : : : : = O X - k g.~.B.%.C 8 7 6 3 e y p p p p M T f.A.A.A.A.f.T B p p p p y e 3 6 7 8 C %.B.~.g.l - X O : : : : : : : : @ ",
"= : : : : : @ + X - S n.+XW.x.[ ) n c r r r e e r a B T f.A.A.A.A.f.T G a r r e e r r z n ) [ d.W.+XN.G - X O @ : : : : : : : = ",
"@ : : : : : = O X * l s.[.Y.x.,.$.) n x z r e p B H T d.b.A.A.A.A.b.d.R H B a e r 7 x n ) #.,.x.W.[.f.S - X O = : : : : : : : * ",
"= : : : : : @ + X % j i.E.U.A.f.>.$.) ( x z e M L i.f.b.N.A.A.A.A.M.b.f.i.L h e u x ^ ) #.d.d.B.A.R.p.j * X @ @ : : : : : : : * ",
"@ : : : : : = O X + f R A.A.M.A.f.-.) ^ v z e M T f.N.N.N.N.N.N.N.N.N.M.f.U B e z v ^ ] -.d.T.A.A.M.u.g & X + @ : : : : : : : * ",
"* : : : : : = O X % f R U.A.A.A.x.-.) / v z r h H T i.! i.! ! ! i.=.! i.R H M 3 z v ^ ] <.f.A.A.A.A.R w @ X + @ : : : : : : : * ",
"* : : : : : = O X % f R M.A.M.U.B.-.) / b z e r h B G G G H G G B G G G B M r e z v ^ ] -.f.A.A.A.A.u.g = X + @ : : : : : : : * ",
"@ : : : : : = + X % g R U.A.A.M.f.;.[ / v z e e e e r e e e e r e e e e e e e e z v / [ -.f.A.A.A.A.i.g & X + @ : : : : : : : @ ",
"* : : : : : @ O X % g u.R.Y.U.U.B.=.) b x r e e e e e r r z c r z u r e e e e e z x b ) ;.d.A.Y.R.R.i.g - X O @ : : : : : : : * ",
"* : : : : : * + X - k h./.!.Y.U.f.=.A x z r e e q 6 e u x v v v v x u r e e e e e z z A =.f.U.Y.~.^.g.S - X O = : : : : : : : * ",
"+ : : : : : + O   - D h.+X/.~.I.f.E B r r r e e e e r x v ^ ^ ( ( v x r e e e e e e r N T f.U.E.].OXm.F - X O + = : : : : : : * ",
"= : : : : : * O X - K h.@XoX~.R.f.d.B r h r r a a a c n C ) / / ) C n M r j a r a a a B u.f.R.^.oX@XV.K - X O + = = : : : : : * ",
"* : : : : : = o O ; K I.#X@XoX~.E.f.! H L L L L L H P I #.%.-.-.%.#.#.P L L L H H L L T f.I.^.oX@X@XI.K - X O = : : : : : : : * ",
"@ : : : : : * + X - F h.@X@X@X@X^.U.f.d.a.a.a.a.d.a.f.d.j.j.j.j.d.d.d.d.d.d.d.d.d.d.d.f.Y.^.+X+X@X#XI.F ; X O @ : : : : : : : * ",
"* : : : : : * O X = D h.@X@X@X@XoX^.R.M.A.A.A.M.M.M.M.M.M.M.C.M.A.A.M.M.M.M.M.A.M.M.M.Y.Q.oX@X@X@X@XV.F - X O = : : : : : : : * ",
"* : : : : : = @ O = w u.m.h.n.f.s.p.i.U U u.U U U U Y T T U T U E R T i.U u.U R U u.U i.a.s.m.f.h.h.Y g : O + : : : : : : : : & ",
"@ : : : : : : = @ : 9 s S S S S k g g w w w w w t t s t t t t t w w w w w w w w w w w w g k S S D S s 9 - @ = : : : : : : : : @ ",
"* : : : 9 @ : : : @ @ @ @ @ + % + + O O o o o o # # o # o o # # # o # O # # o # o # o + + + + @ % % % = = : : : : : : : : : : = ",
"* : : : @ 9 : : : : @ + X X X X X X . X X X X X . X X . X X . . X X X X X X X X X X X X X X X X X X O @ : : : : : : : : : : : * ",
"@ : : : : : : : : : @ @ + + + + O O + + + + + + + + + o + + + + O + O + O + + + + + + + + + @ + + + @ * : : : : : : : : : : : * ",
"* : : : : : : : : : : @ = @ = = @ @ @ @ @ + @ + + @ & * = + = = = - * = = = = : = * = = @ = : @ @ @ = : : : : : : : : : : : : * ",
"* : : : : : : : : : 9 : : : : : : : : : : : : : : : : : : : : : : : : : : : : : : : : : : : : : : : : : : : : : : : : : : : : * ",
"& : : : : : : : : : @ : : : : : : : : : : : : : : : : : : : : : : : : : : : : : : : : : : : : : : : : : : : : : : : : : : : : * ",
"@ : : : : : : : : 9 : : : : : : : : : : : : : : : : : : : : : : : : : : : : : : : : : : : : : @ = : : : : : : : : : : : : : : % ",
"@ : : : : : : : : @ : : : : : : : : : : : : : : : : : : : : : : : : : : : : : : : : : : : : : @ = : : : : : : : : : : : : : : @ ",
"@ : : : : : : : : : : : : : : : : : : : : : : : : : : : : : : : : : : : : : : : : : : : : : : : = : : : : : : : : : : : : : : * ",
"@ : : : : : = : @ : : : @ : @ : : : : : : : : : : : : : : : : : : : : : : : : : : : : : : : : @ * = = - = : : = : : : : : : : * ",
"@ : : : : : = = : : : @ : @ @ : : : : : : : : : : : : : : : : : @ : : : : : : : : : : : : : 9 : * = = = = : : = : = : : : : : @ ",
"@ : : : : < @ : : : : : : : @ : : : : : : : : : : : : : : : : @ = : : : : : : : : : : @ : : : @ = : : : : : : : = = : : : : : * ",
"@ : : : < = @ : : : : : : : @ : < : : 9 : : : : : : : : < : : 9 = : : : : : : : < : : 9 : : = = = : : : : : : : = * : : : : : @ ",
"@ : = = = = @ = = = = = @ : = @ = @ @ @ @ : @ @ : @ @ : = = @ @ + = = = : = = = = = @ @ = = = = * = = = = * = = = * = = * = = * ",
"O O + O O O O O O O O O O O + O O O O + + + + O O O @ O o o o o o o o o O O O O o o o o o o o o O O O O o O O O o o o o O O O O ",
"                                                                .                 .                               .             "
};
