/* XPM */
static char *result[] = {
/* columns rows colors chars-per-pixel */
"64 64 200 2 ",
"   c #26141B",
".  c #28151E",
"X  c #2D191E",
"o  c #311D1E",
"O  c #37221F",
"+  c #2A1721",
"@  c #2E1A26",
"#  c #2F1B28",
"$  c #331D20",
"%  c #341E2E",
"&  c #351F30",
"*  c #3B2520",
"=  c #34242C",
"-  c #3B252A",
";  c #382322",
":  c #372131",
">  c #392235",
",  c #362931",
"<  c #392B33",
"1  c #3D253A",
"2  c #422C2B",
"3  c #4C2F2B",
"4  c #402B25",
"5  c #4C3226",
"6  c #583C2A",
"7  c #442D32",
"8  c #4E3333",
"9  c #4B363B",
"0  c #573A37",
"q  c #613E35",
"w  c #5F4134",
"e  c #62452B",
"r  c #684D2F",
"t  c #654035",
"y  c #62433E",
"u  c #6B473C",
"i  c #744E3A",
"p  c #795A35",
"a  c #6E5333",
"s  c #463D46",
"d  c #4D3E40",
"f  c #543D42",
"g  c #593F41",
"h  c #4E444D",
"j  c #5F4241",
"k  c #55434A",
"l  c #59454B",
"z  c #5A454A",
"x  c #544F59",
"c  c #544B53",
"v  c #58535C",
"b  c #644542",
"n  c #694B48",
"m  c #714C43",
"M  c #784F40",
"N  c #7D5241",
"B  c #78564E",
"V  c #76544C",
"C  c #604F56",
"Z  c #615057",
"A  c #64565E",
"S  c #685859",
"D  c #7D5F58",
"F  c #6C514E",
"G  c #77614B",
"H  c #776558",
"J  c #5A5761",
"K  c #5C5963",
"L  c #6A5B63",
"P  c #675A63",
"I  c #6B636D",
"U  c #796565",
"Y  c #6C6772",
"T  c #706F7A",
"R  c #746B74",
"E  c #73747F",
"W  c #7A727B",
"Q  c #886535",
"!  c #886536",
"~  c #99753C",
"^  c #A97F3F",
"/  c #865944",
"(  c #8C5D45",
")  c #835C4E",
"_  c #835744",
"`  c #845E50",
"'  c #8A604F",
"]  c #916245",
"[  c #966845",
"{  c #9B6C45",
"}  c #996B4A",
"|  c #966748",
" . c #9E7143",
".. c #9F7D43",
"X. c #8B6455",
"o. c #A67846",
"O. c #A87A44",
"+. c #A47749",
"@. c #876B64",
"#. c #8C6F67",
"$. c #84716A",
"%. c #82767B",
"&. c #8C7C7C",
"*. c #8A7775",
"=. c #AF853F",
"-. c #AC844C",
";. c #B48746",
":. c #B48749",
">. c #B88D48",
",. c #B68953",
"<. c #B48651",
"1. c #AD8F54",
"2. c #93837C",
"3. c #AD956B",
"4. c #C2954A",
"5. c #C99C49",
"6. c #C2994B",
"7. c #C59953",
"8. c #D0A34D",
"9. c #CFA355",
"0. c #D1A552",
"q. c #D8AD52",
"w. c #D4A85C",
"e. c #D0A853",
"r. c #DDB357",
"t. c #E1B559",
"y. c #E8BD5C",
"u. c #E7BC5B",
"i. c #EBC05D",
"p. c #E8C066",
"a. c #F1C764",
"s. c #F8CE65",
"d. c #F6CC64",
"f. c #FBD167",
"g. c #FFD56C",
"h. c #FFD771",
"j. c #FFD976",
"k. c #F1D07B",
"l. c #F1CF7A",
"z. c #747681",
"x. c #7B7B86",
"c. c #827D88",
"v. c #7C828E",
"b. c #84838F",
"n. c #8E8486",
"m. c #93888B",
"M. c #878692",
"N. c #888691",
"B. c #878894",
"V. c #8C8994",
"C. c #8C8C99",
"Z. c #918D97",
"A. c #8E919E",
"S. c #90919E",
"D. c #9E9A9C",
"F. c #969399",
"G. c #A79A8A",
"H. c #B7A994",
"J. c #BCAE96",
"K. c #8E97A3",
"L. c #9295A2",
"P. c #9E9DA4",
"I. c #949CAA",
"U. c #969CA7",
"Y. c #99A0AE",
"T. c #9CA6B3",
"R. c #9EADBA",
"E. c #9BA9B6",
"W. c #BAB5AE",
"Q. c #BAB1A1",
"!. c #A3AFBA",
"~. c #A3B1BE",
"^. c #B2ACA5",
"/. c #D5BE85",
"(. c #C7BCA9",
"). c #D5C294",
"_. c #FFDC81",
"`. c #FFDE8A",
"'. c #E8CD8D",
"]. c #FFE08F",
"[. c #FFE194",
"{. c #D5CDBB",
"}. c #D3C9B4",
"|. c #D5C6A4",
" X c #E9D8B2",
".X c #FFE5A2",
"XX c #FFE7A8",
"oX c #FFE8AC",
"OX c #FFEBB5",
"+X c #FFEDBE",
"@X c #F1E2BB",
"#X c #AABCCA",
"$X c #A6B5C3",
"%X c #ACC0CE",
"&X c #ECDFC0",
"*X c #F1E5C6",
"=X c #FFEEC2",
"-X c #FFF1CC",
";X c #FFF0C7",
":X c #EFE3C4",
/* pixels */
"        .           . . . .                       .                 .     .     .     . .   .                 .           . .   ",
"# # # # # % # # @ @ # % @ @ @ @ @ % @ @ @ @ @ @ @ @ $ @ @ @ @ @ @ $ @ @ @ @ @ @ % @ @ $ @ @ @ @ @ @ @ @ @ $ @ @ @ @ @ @ $ @ @ @ ",
"= > > > 1 & & 1 & & 1 & 1 & & & > > > 1 > > > > > > > > > > > : > > > > > > > > > > > 1 > > > > : : > > > > > > > > > > > > > : ",
"& 1 1 1 1 1 1 1 1 1 1 1 1 1 1 & 1 1 1 1 1 1 1 1 1 1 1 1 1 1 1 > 1 1 1 1 1 1 1 1 1 1 1 1 1 1 1 1 > > 1 1 1 1 1 1 1 1 1 1 1 1 1 : ",
"& 1 1 1 1 1 1 1 1 1 1 1 1 7 & 1 1 1 1 1 1 1 1 1 1 1 1 1 1 1 1 & 1 1 1 1 1 1 1 1 1 1 1 1 1 1 1 1 > > 1 1 1 1 1 1 1 1 1 1 1 1 1 : ",
"> 1 1 1 1 1 1 1 1 1 & 1 1 & & & 1 1 1 1 1 1 1 1 1 1 1 1 1 1 1 & 1 1 1 1 1 1 1 1 1 1 1 1 1 1 1 1 > : > > 1 > > 1 1 1 1 1 1 1 1 : ",
"& 1 7 & 1 1 1 & & & & & & & & 1 > > > > 1 > > > 1 > > 1 1 > > % > > > > > > > 1 > > > > > > > > > : : : > : : > > 1 1 1 1 1 1 : ",
"= 1 & s 1 1 1 1 & & & & & & & & % % % % % % % % % % % % % % % % % & % % & & % & & % % % % % % % % % % % % % % > > 1 1 1 1 1 1 : ",
"& 1 1 1 1 1 1 & & & @ @ @ @ @ @ @ @ @ @ @ @ @ @ @ @ @ @ @ @ @ @ @ @ @ @ @ @ @ @ @ @ @ @ $ @ @ @ @ @ @ @ @ @ # % > 1 1 1 1 1 1 > ",
"& 1 1 1 1 7 & % # @ . . . . . .     . . . . . . . . . . . . . . . . . . . . . . . . . . . . . . . . . . . . + # % > 1 1 1 1 1 : ",
"& s 1 1 1 & 2 % # $ + + + $ $ $ $ $ $ $ $ $ $ $ $ $ $ $ o $ $ $ $ $ o $ $ $ $ $ $ $ $ $ $ $ $ $ o $ o o $ + o $ % : > 1 1 1 1 : ",
"& 1 1 1 & & % % % % - 4 2 3 3 3 3 3 3 3 3 3 3 3 3 3 3 3 3 3 3 8 3 3 3 3 3 3 3 3 3 3 3 3 3 3 3 3 3 3 3 2 4 & % % % % : : > 1 1 : ",
"& 1 & & % # # & & 7 7 8 0 q q q q q q q q q q q q q q q t t t q q q q q q q q q q q q q q q q q q q q 8 8 7 7 > % @ @ % : 1 1 : ",
"& 1 1 & @ + + & 7 9 0 j u i _ _ _ _ _ _ _ _ _ _ _ _ _ _ N N N p _ _ _ _ _ _ _ _ _ _ _ _ _ / _ _ _ _ _ q q f 9 > - @ + @ % > 1 : ",
"& 1 1 & @ . X & 7 0 j m _ _ ( ( ] ] } } ] [ } } { { [ [ } } } } | { { } | | { { | { | } ] ] ] ( ( / / M m j g 3 - X . @ % > 1 & ",
"& 1 & & @ . o - 8 j u u _ _ ( ] | } +.O.O.O.,.,.,.,.<.<.,.,.,.,.<.,.,.,.<.<.,.,.<.<.<.O.o.+.{ | ] ( _ _ m u y 8 - X . @ % > 1 : ",
"& 1 1 & @ . + 2 0 q _ _ _ _ ] ]  .O.O.4.7.w.w.w.w.w.w.w.w.w.w.w.w.w.w.w.w.w.w.w.w.w.9.7.>.;.O. .[ ( ( _ _ i q 6 2 $ . @ & 1 1 & ",
"& 1 & & @ . $ 3 q i _ / / / ] { O.;.4.8.r.i.a.a.a.a.a.a.a.a.a.a.a.a.a.a.a.a.a.a.a.a.p.t.0.4.;.O.{ ] / / / / _ q 3 $ . @ & & 1 & ",
"> 1 1 & @ . $ 3 q _ ( ( ( ] { o.:.4.8.r.p.s.g.g.h.j.j.j.j.j.j.j.j.j.j.j.j.j.j.j.g.g.s.i.r.8.4.;.o.{ ] ( ( / _ q 3 $ . + % 1 1 & ",
"& 1 & & @ . $ 3 q _ ( ] | { o.:.4.0.t.u.a.s.g.j._.`.].].[.[.].].].[.[.`.[.[.`.j.j.g.s.a.y.q.0.4.O.o.{ | ] ( _ q 3 $ . + % > 1 & ",
"& : % % @ . $ 3 q _ ( [ +.O.:.4.0.t.y.a.a.f.h._.].[.oXXXXXoXoXoXXXXXXXXXXXXX.X[._.h.f.d.a.i.t.0.7.4.o. .| ( _ q 3 $ . + @ & > & ",
": > : % @   $ 3 q _ !  .O.;.4.8.t.a.s.s.f.f.j.`..XOX;X=X+X+X+X=X=X+X+X=X=X=XOX.X`.j.g.f.f.s.a.t.8.4.4.O.{ ] / q 3 $ . @ % & > & ",
": 1 > % @ . $ 3 u / [ o.;.4.8.r.y.s.g.g.h.j._.[.oX;X-X-X;X-X-X-X-X-X-X-X-X-X=XoX[._.j.h.g.g.s.y.r.8.4.O.o.{ ( t 3 $ . @ % > 1 > ",
": 1 > % @ . * 3 i ! o.:.4.8.r.u.a.f.h.j._.`.[.XXOX;X-X-X-X-X-X-X-X-X-X-X-X-X=XOXXX[.`._.j.g.f.a.u.r.8.4.O.O.] i 6 O X @ % > 1 & ",
": 1 > % @ . O 6 _ ~ ^ 4.e.t.i.a.s.f.h._.[..XoXOX+X;X-X-X-X-X-X-X-X-X-X-X-X-X;X=XOXoX.X[.j.j.f.s.a.y.t.0.4.=.~ _ 6 ; . @ % > 1 & ",
": 1 > % @   * q Q ^ 4.8.r.a.s.f.f.f.j.`..XOX=X=X;X-X-X-X-X-X-X-X-X-X-X;X-X-X-X;X;X=XOX.X`.j.g.f.s.s.a.t.8.4.^ ! q O . @ % & 1 & ",
"& 1 > % o   * e Q =.5.q.y.s.g.h.h.j._.[.oX=X-X-X-X-X-X-X-X-X;X;X;X=X=X=X;X-X-X-X-X-X=XoX[._.j.h.g.f.s.y.q.5.=.Q 6 * X @ % > 1 > ",
": 1 > % o X * e Q ^ 5.q.y.s.h.j._.`.[.XXOX-X-X-X-X-X-X-X-X-X;X+XOXoXoXOX=X;X-X-X-X-X=XOXXX[.`._.j.h.s.y.q.5.=.Q e * X $ % > 1 & ",
": 1 > % @ . * e Q =.5.q.u.d.h.j.[.[.oXOX=X;X-X-X-X-X-X-X-X-X=XOX.X[.[.XXOX=X-X-X-X-X;X=XOXoX.X]._.h.s.y.q.5.=.Q q * . + % > 1 & ",
"& 1 > % @ . * q Q =.5.q.u.d.l.`..X+X=X-X;X-X-X-X-X-X-X-X-X-X+XXX[.j.].[.XX=X-X-X-X-X-X;X=X=XOX[.`.j.s.y.q.5.=.Q e O . @ & > 1 & ",
"> 1 > % @ . $ 6 Q ~ =.5.8.r.p.l.'. X X X&X&X:X:X*X*X*X*X*X*X*X X].k.f.'. X@X*X*X:X*X:X:X X{. X'.'.p.r.e.5.=.~ Q 6 * . @ % > 1 > ",
": 1 > % @ . $ 3 q Q Q ~ ^ -.1.3.3.G.H.Q.(.}.{.{.{.{.{.{.{.{.}.|.)./.).).|.}.{.{.{.{.}.(.Q.H.G.3.3.1.-...Q Q ! e 5 o X @ % > 1 & ",
"& 1 > & # X o O 5 e r r a p p N H H #.c.F.(.(.(.W.W.W.W.W.W.W.Q.H.H.J.J.Q.W.W.W.(.(.!.m.&.#.H G G p p a r e e 5 O X   # = > 1 : ",
"& 1 > & +     X X O O O - 4 - 2 2 7 f L c.c.I.T.P.P.P.P.P.P.P.P.D.D.D.D.D.P.Y.D.P.P.Z.c.P f 7 2 - 4 * - * O O o X     # = > 1 : ",
"> 1 > & #     # o = , = ; @ X o X X & s L c.c.c.c.C.V.V.V.S.S.S.A.A.A.C.V.V.N.N.c.c.x.L f > + X X o ; = = = = o X     # % > 1 : ",
"> > , = #   + < h x x k 9 8 3 2 - = 1 f Z I z.z.z.z.c.c.c.C.S.S.A.A.A.b.b.W W W z.z.R A s 7 - - - 2 7 w h x x h < o   # % > 1 : ",
": 1 > # @   = s v E E I S b q 0 8 7 7 f J P L P L L I %.c.V.S.S.S.S.V.c.R I L L L I A v s 7 7 8 w w u S I W E K s # + + % > 1 & ",
": 1 > & @ X , x E K.Y.n.#.' M b y 0 s f f g g C z z Z L z.V.S.S.S.S.N.c.I Z l z l l g f f f 0 j u m ) #.m.Y.A.E x = + # % > 1 : ",
"& 1 > & #   < v v.E.!.D.c.} ) B n b g f f f f f g g C I z.V.S.S.S.S.V.W I C z z f f g f f f j n V ) X.2.D.!.E.v.J ,   # % > 1 : ",
"& 1 > & o   , x E Y.T.F.m.#.@.` V n b j g f f g A P L %.c.C.S.S.C.S.V.c.W I S Z g f f g j b n V D @.*.m.F.T.Y.E x , + # % > 1 : ",
": 1 > & + + = c z.C.I.S.Z.c.*.#.D V m n g f z C L R z.c.V.C.S.S.S.S.C.N.c.z.R L Z z g j b m V D #.*.n.m.F.I.K.T x ,   # % > 1 & ",
": 1 > % @ + : h Y B.L.A.F.m.c.*.X.) M m b g z A R c.V.V.Z.C.S.S.S.S.C.C.C.N.c.R P g g b m N ) @.*.c.Z.Z.S.K.M.Y h = + # % > 1 : ",
": 1 > % #   , h I B.L.L.S.S.V.&.@.` N m b g l P R c.V.V.V.V.Z.m.V.m.V.V.V.N.c.R P l g b m M ) @.&.V.S.L.L.L.M.Y c = + + % > 1 : ",
": 1 > & @ + , c z.A.Y.I.U.S.V.%.U B m n b f g C L R W z.c.*.&.&.&.&.&.c.%.W R L Z g f j b m V @.*.V.L.L.I.Y.K.z.c ,   # % > 1 : ",
": 1 > % @ + : x z.Y.R.E.U.L.V.%.U F b j g f f l Z P L U U #.#.#.#.#.@.U U L P C l f f g j b F U %.V.L.I.E.E.I.z.x , + # % > 1 & ",
": 1 > & @   < v x.E.$XR.Y.U.c.R P n g g f f f f z l n F B ` X.' ' X.` B F C l l f f f f f g n L W c.L.Y.R.$XE.x.J : + + % > 1 : ",
": 1 > : @   < J x.~.$X$X!.L.C.c.L Z z l z z l l l l b F B ` ( ' ' ' ' V F b l l l l l l l g Z I c.C.I.!.~.#XR.v.J , + + % > 1 : ",
": 1 > # # + < J x.R.#X$X!.!.L.V.z.Y P L L P P P P P L U U #.#.#.#.#.@.@.U L P P L L L L P L I x.N.L.Y.!.$X#XR.v.K , + # % > 1 : ",
": 1 > % # + , J v.R.#X#X$X~.E.K.B.x.W W W R T W W W W %.%.&.&.&.&.&.*.c.%.W T W W T W W W W z.M.L.Y.$X$X#X%XE.v.J , + # # > 1 & ",
": > > % + + , J v.R.%X#X#X#X~.E.K.C.b.N.N.N.M.M.N.b.V.b.V.N.V.V.m.V.V.B.N.V.N.M.N.M.b.M.b.b.C.I.T.$X#X#X%X%XR.v.K <   # % > 1 : ",
": 1 > % #   , x z.I.R.R.R.R.E.I.A.B.b.b.b.b.b.b.c.M.c.N.v.M.M.v.N.M.M.c.c.M.M.x.b.b.M.b.b.b.B.A.I.E.R.R.R.R.K.z.x ,   # % > 1 : ",
": 1 > % # + = s K z.v.v.v.v.x.z.T Y I Y I I I I I I I I I I I I Y L I I I I I I I I I I I I Y T z.x.v.x.v.v.z.J s =   # % > 1 : ",
": 1 > & # + + < s x J J J J J x c h h h h h h f h h h h h h h h h h h h h h h h h h h h h h h c x J J J J J x h < #   # % > 1 & ",
": 1 > % + + + + # , , : , < , , : % = = = = > & = : = = = = = % : = = = = = = = = = = = = % = : : < < < < , : # +   + # % > 1 : ",
": 1 > & # + + + + + + + + + + +   . . . + . . . +   + + + +   + + + +   . . . . . .   . + + . + + +     + +   + +   + # & > 1 : ",
": 1 1 & % # + @ + @ @ @ + + # + @ @ @ @ @ @ + @ @ @ @ + + # @ @ + + # # @ @ @ @ @ @ # # @ @ + + + # # @ + # @ @ # # # % : 1 1 : ",
"= 1 1 1 > : % % % % % % % % % % % % % % & % % % & & & & % & % % & & & & % & % & % % % % % % & % # % & % % & % % % % & > > 1 1 & ",
"& 1 1 1 > > : > : > 1 : & & : : 1 1 & 1 > > 1 1 & & 1 & > > > > & & & 1 & 1 1 & 1 > > > > > 1 & : & : : : > > & > & > > 1 1 1 & ",
"& 1 1 1 1 1 : > > 1 1 > > > : 1 1 1 1 1 1 1 1 1 s 1 1 1 1 1 1 1 > 1 1 1 1 1 1 1 1 1 1 1 1 1 1 & : > > > > 1 1 > > > 1 1 1 1 1 : ",
": 1 1 1 1 1 > 1 1 1 1 1 1 1 : > 1 1 1 1 1 1 1 1 1 1 1 1 7 1 1 1 > 1 1 1 1 1 1 1 1 1 1 1 7 1 1 1 > 1 1 1 1 1 1 1 1 : 1 1 1 1 1 : ",
"& 1 1 1 1 1 & > 1 1 1 1 1 1 : 1 1 1 1 1 1 1 1 1 1 1 1 1 1 1 1 1 > > 1 > 1 1 1 1 1 1 1 1 1 1 1 : : 1 1 1 1 1 1 1 > > 1 1 1 1 1 : ",
"& > > > > : : > > , > , > > : : 1 & & 1 & 1 & & & & & 1 1 & & > = > > > 1 & > 1 > > > > > > , : : > > > > > > > , : , : > > : : ",
"$ + % # # # # # # # # # # @ # # + @ @ + % # # # # # % # @ # @ @ % $ # # # # # # # # # # # # @ # # # @ # # # # # # # # # # # # # ",
".                 .             . . . . . .                       .                                                             "
};
