/* XPM */
static char *result[] = {
/* columns rows colors chars-per-pixel */
"64 64 183 2 ",
"   c #26141B",
".  c #28151E",
"X  c #2C191F",
"o  c #321D1F",
"O  c #36221F",
"+  c #38231F",
"@  c #2E1A27",
"#  c #2D1925",
"$  c #341E2E",
"%  c #311D25",
"&  c #351F30",
"*  c #2F2027",
"=  c #2F2028",
"-  c #332026",
";  c #3E2923",
":  c #34232B",
">  c #3B2529",
",  c #3C2828",
"<  c #372131",
"1  c #392236",
"2  c #3D2B31",
"3  c #3C243A",
"4  c #372A32",
"5  c #442B29",
"6  c #4B2E2A",
"7  c #5A3F29",
"8  c #54382A",
"9  c #422D32",
"0  c #4C3332",
"q  c #4C363B",
"w  c #493439",
"e  c #523A3C",
"r  c #5A3B35",
"t  c #4F3629",
"y  c #5E4229",
"u  c #5E403D",
"i  c #5A4032",
"p  c #64482D",
"a  c #6A463E",
"s  c #6B4934",
"d  c #764D3F",
"f  c #755A37",
"g  c #765636",
"h  c #6C5132",
"j  c #483C45",
"k  c #533C41",
"l  c #593F41",
"z  c #4C414B",
"x  c #564146",
"c  c #5F4241",
"v  c #5A464C",
"b  c #53464B",
"n  c #514A54",
"m  c #5A4950",
"M  c #57525C",
"N  c #5D545C",
"B  c #654642",
"V  c #654A43",
"C  c #6B4D45",
"Z  c #644848",
"A  c #734E43",
"S  c #69504C",
"D  c #78564D",
"F  c #7B5543",
"G  c #604F56",
"H  c #685252",
"J  c #65565D",
"K  c #6C5856",
"L  c #755650",
"P  c #7E6059",
"I  c #595660",
"U  c #6A5C63",
"Y  c #655C66",
"T  c #67616C",
"R  c #6C636C",
"E  c #766669",
"W  c #6E6C77",
"Q  c #696570",
"!  c #706770",
"~  c #756C75",
"^  c #6E717C",
"/  c #7A727B",
"(  c #72737E",
")  c #815A3A",
"_  c #886338",
"`  c #996F3F",
"'  c #93713C",
"]  c #A37B3F",
"[  c #825644",
"{  c #885E44",
"}  c #845D4F",
"|  c #835E50",
" . c #966944",
".. c #987747",
"X. c #8A6151",
"o. c #937859",
"O. c #876949",
"+. c #A47645",
"@. c #866B65",
"#. c #8C6F66",
"$. c #937C67",
"%. c #8C7775",
"&. c #8D7D7D",
"*. c #84777C",
"=. c #937E70",
"-. c #89746E",
";. c #AB823E",
":. c #AA8A4B",
">. c #B28546",
",. c #B48947",
"<. c #B59154",
"1. c #938075",
"2. c #96837E",
"3. c #BF9E61",
"4. c #BFA271",
"5. c #C0944A",
"6. c #C79C49",
"7. c #CEA24C",
"8. c #D0A351",
"9. c #D7AB52",
"0. c #D5AC58",
"q. c #DCB054",
"w. c #DEB458",
"e. c #CDA652",
"r. c #E4BB5D",
"t. c #EABF5D",
"y. c #E3BB60",
"u. c #EDC567",
"i. c #F0C560",
"p. c #F7CC64",
"a. c #F8CD65",
"s. c #FBD167",
"d. c #FFD56B",
"f. c #FFD770",
"g. c #FFD875",
"h. c #FFDB7F",
"j. c #777A85",
"k. c #7D7984",
"l. c #797F8A",
"z. c #7C7781",
"x. c #817D88",
"c. c #82808D",
"v. c #8F8387",
"b. c #92898A",
"n. c #868592",
"m. c #888692",
"M. c #8C8994",
"N. c #8D8D9A",
"B. c #918D95",
"V. c #8D909D",
"C. c #90919E",
"Z. c #9C999D",
"A. c #BFA781",
"S. c #BFAD98",
"D. c #BFAB90",
"F. c #8C97A3",
"G. c #9295A2",
"H. c #9299A6",
"J. c #969CA9",
"K. c #999EAA",
"L. c #99A1AD",
"P. c #9BA6B3",
"I. c #9BAAB7",
"U. c #A1ADBA",
"Y. c #A5B1BE",
"T. c #FFDB80",
"R. c #FFDF8B",
"E. c #EAD29A",
"W. c #EACB85",
"Q. c #FFE08F",
"!. c #FFE295",
"~. c #FFE49E",
"^. c #EADBB9",
"/. c #FFE6A6",
"(. c #FFE8AB",
"). c #FFEAB4",
"_. c #FFEDBF",
"`. c #A6B6C4",
"'. c #ABBDCB",
"]. c #ADC0CE",
"[. c #FFEFC3",
"{. c #FFF0C7",
"}. c #FFF1CC",
/* pixels */
"                          #                                               #                       #           X                 ",
"@ @ @ @ @ @ @ % @ % @ % @ % @ # @ @ @ @ @ $ % @ @ @ % @ @ @ @ @ @ @ % % % @ @ # @ @ @ @ @ @ % % % @ @ # % % @ @ @ # @ $ @ @ @ @ ",
": 1 1 1 1 1 1 & & 3 & & & & & & & & < < < < & < & & & 3 < & 1 $ 1 : & & & & & & 1 $ < < 1 1 : & & & & & & 1 & & & & & 3 3 & & & ",
"& 3 3 3 3 3 3 3 & & & & & $ @ $ $ $ & $ $ $ $ $ & $ $ & $ $ $ @ $ $ & & & $ & & $ $ $ $ $ $ $ $ $ % & & & & & & 3 9 3 3 3 & j & ",
"1 3 3 3 3 3 3 & & @ @ @ @ # # # @ @ @ # @ @ @ * @ @ # # @ @ @ # @ # @ @ @ @ @ @ @ @ @ @ @ @ # % # # @ @ @ @ @ $ & 3 3 3 3 3 3 & ",
"& 3 9 3 3 3 3 & @ #     #   #       #   # .   X   # #     #     #   #   #   .   . . . . .     X #         # # @ & 3 3 3 3 3 3 & ",
"1 3 3 3 3 3 & & @ # X X X o X o O O + + - + ; ; ; ; ; ; > ; ; ; ; ; ; ; ; ; 5 ; ; ; + 5 + + o o X o X X X # # % $ & 3 3 3 3 3 1 ",
"& 3 3 1 & & & & $ $ % 5 5 5 6 8 7 y p p h f f f g f f f g f f f g g f f f f g g f f g h p p 7 7 8 6 6 5 5 % % $ & & & & 3 3 3 & ",
"& 3 3 & $ @ % $ 5 > 6 0 r r s s g ) _ ' ;.:.:.:.:.:.:.:.:.:.:.:.:.:.:.:.:.:.:.:.:.:.:.;.' _ _ g s s r r 0 9 9 < $ $ $ $ & 1 3 & ",
"& 3 3 & @ # o > 2 w e u B d [ _ ` ] ;.6.e.0.y.w.r.y.r.y.y.r.y.y.w.y.w.y.r.r.r.r.r.w.0.e.6.;.] ' { ) d a u q 0 9 % # . $ $ 3 3 1 ",
"& 9 3 & @ X X % 9 e c B [ {  .+.,.5.7.q.t.s.s.f.g.g.g.g.g.g.g.g.f.f.h.g.f.g.g.f.d.d.s.u.q.7.5.,.+. .{ F A c e 9 > X . @ & 1 3 & ",
"& 3 & $ # . X & 0 u A F { +.+.+.5.7.q.r.i.s.f.g.h.Q.R.R.Q.Q.R.R.Q.Q.Q.Q.Q.Q.Q.h.g.f.s.t.t.q.7.<.+.+. .{ A A u 6 > X . @ & 1 3 < ",
"& 3 3 & @ . X 5 r a [ {  .+.,.6.8.w.t.i.p.s.f.h.Q.~././././././././././././.~.Q.h.f.s.p.i.t.w.e.6.>.+. .{ [ a r 5 o . @ $ 1 3 1 ",
"& 3 & & @ . o 6 r d {  .+.+.5.8.w.i.p.s.s.d.f.Q.~.)._._._._._._._._._.{._._.).~.Q.f.s.s.s.p.i.w.8.5.>.+. .{ d r 6 X . @ $ 1 3 & ",
"& 3 3 & @ . o 6 s )  .+.>.5.7.q.t.p.d.d.f.f.h.!./._.}.}.}.}.}.}.}.}.}.}.}.}.{.(.!.h.f.f.d.d.a.t.q.7.5.>.+.+.) s 6 X . @ & 3 3 & ",
"3 3 & & @ X o 6 s { +.>.5.8.q.r.i.s.d.g.h.Q.!./.).{.}.}.}.}.}.}.}.}.}.}.}.}._.)./.!.Q.h.g.f.s.i.t.q.8.5.+.+.{ s 8 o . @ $ 1 3 < ",
"& 3 & & @ . % r g ` ;.6.7.r.t.i.p.s.f.h.Q.~.(.).[.[.}.}.}.}.}.}.}.}.}.}.}.}.{._.).(.~.Q.T.d.s.p.t.t.r.8.6.>.` g 7 o   # $ & 9 & ",
"& 3 3 & @ . o 7 g ;.6.7.r.t.p.s.s.d.f.R.~.)._.[.}.}.}.}.}.}.}.}.}.}.}.}.}.}.}.{.[.[.).~.R.g.s.d.a.a.t.w.9.;.] ) 7 + X # $ 3 j & ",
"& & 3 & @ . O y f ;.6.9.r.p.s.d.d.g.h.!.(._.}.}.}.}.}.}.}.}.}.}.{.[.[.[.{.}.}.}.}.}.[.(.!.T.f.d.d.d.a.t.9.6.;._ p +   % & 3 & & ",
"& j & & @ . O y _ ;.6.9.r.p.s.g.h.R.!./.).{.}.}.}.}.}.}.}.}.}._.).(.(.)._.{.}.}.}.}.[.)./.!.R.h.g.s.p.t.9.6.;._ 7 o   % & & 3 & ",
"& < & $ @ . o y _ ;.7.9.r.p.f.h.Q.~.(.)._.{.}.}.}.}.}.}.}.}.[.)./.!.!./.).{.}.}.}.}.{._.).(.~.!.T.f.p.r.9.6.;._ y % . @ $ & & & ",
"< 1 1 $ @ . + y _ ;.6.9.t.p.f.Q.~.).{.}.{.}.}.}.}.}.}.}.}.}.[./.!.h.T.!.(.[.}.}.}.}.}.{.{.[.).~.R.g.p.r.9.6.;._ y % . @ $ & 3 & ",
"< 3 1 $ @ . o 7 f +.,.6.0.w.u.W.E.^.^.^.^.^.^.^.^.^.^.^.^.^.^.E.W.u.u.W.E.^.^.^.^.^.^.^.^.^.^.E.W.u.y.0.6.,.+.g y o . @ $ 3 3 & ",
"< 3 1 $ @ . o 8 h _ ..:.:.3.3.4.4.A.S.S.S.S.S.S.S.S.S.S.S.S.D.A.4.3.3.4.A.D.S.S.S.S.S.S.S.S.D.4.4.3.<.<.:..._ h 8 o . @ $ 3 3 & ",
"< 3 1 $ #   % 5 r d F O.O.o.o.o.1.1.1.1.1.1.1.1.1.1.1.1.=.&.=.$.$.o.o.o.$.1.1.1.1.1.1.1.1.1.=.$.o.o.o.O.O.F h i 6 o   # & & j $ ",
"< 3 1 & # # X > 0 i c V V V C S S H H H H H H H H H H H H H H S S S V S S H H H H H H H H H H H S C C V V c u 0 > . # @ & & 3 & ",
"1 3 1 & #   X % 2 w q q q q q q q q q e k v v v v v v m v v v v x m v v v v v v v v x l k e q q w w q q q q w , % X   @ & 3 & & ",
"& 3 1 $ # X   % - 2 9 2 9 9 9 9 2 2 w x m J U U U U U U U U U U Y U U U U U U U U U J m j w 2 9 9 2 2 w 2 2 4 > o X   # & 3 3 & ",
"& 3 1 & @ .   X * - - - - - - - - > 2 k N ! / / / / / / / / / / / / / / / / / / / / ! G z 2 > - - - - - - > - # . . . @ & 3 3 & ",
"< 3 1 $ @ .       X X X X X X X X X > z Y k.m.m.n.n.m.m.n.n.n.n.n.n.n.n.c.m.m.m.n.n.x.Y z : X X X X X o X . . . . . . @ & & 3 & ",
"< 3 1 & @ . . # * : : : - * X X X . : z Y k.m.m.n.n.m.M.N.C.C.C.C.C.V.N.M.M.m.m.n.n.z.Y z > X X X # - - > 4 : @ #   . @ & 3 3 & ",
"< 3 1 & @ . # 2 z n M b i w 6 5 , > 2 z N ! / / / / z.x.n.N.C.C.C.C.V.n.x./ / / / / ! N z 2 , , 5 5 w i b M n j 1 # . @ & 3 3 & ",
"< 3 1 $ # # # j N / x.#.L a r r 0 9 j j m Y U T U U R ~ x.N.C.C.C.C.N.x.~ R U U T T J G j j 9 0 r r a L @.k.j.n j @   # $ 1 3 < ",
"< 3 1 $ #   : n z.G.K.x.%.X.d a u q k k l l l n v v G R z.M.C.C.C.C.N./ R G v v l m l l k k k u a A } %.x.K.F.j.n $ # @ $ 1 3 < ",
"< 3 1 & # # 4 M j.J.Y.Z.x.#.X.[ a c l l k k k l l v G R z.x.C.C.C.C.m./ R G v x l k k l k l c C [ { #.x.G.`.J.j.M : # @ $ 1 3 < ",
"< 3 1 & #   : n j.H.U.Z.x.#.#.X.L A Z Z l k l l G J R z.x.N.C.C.C.C.N.x./ R J G l k l l l c C L | #.=.x.G.P.F.z.n &   # $ 1 3 < ",
"< 3 1 $ @   $ n Q F.K.G.x.x.x.=.| L A Z c l l G U ~ x.x.x.C.G.C.C.C.N.m.x./ ~ U J k l x B A L | @.x.x.Z.Z.K.G.z.n & . @ $ 3 3 & ",
"< 3 1 & @   : z Q x.G.C.Z.x.x.=.@.| [ A Z l l Y ~ x.M.x.N.C.C.C.C.C.N.N.M.M.x.~ Y l l Z A [ } #.%.x.x.C.Z.Z.x.R z = . @ & 1 3 < ",
"& 3 3 $ @ # 1 j Q x.C.C.C.C.x.&.#.X.[ A B c v J ~ x.x.N.x.M.M.x.n.n.M.m.m.M.x.~ U l l B A [ X.#.&.x.Z.C.C.C.x.R z =   @ & 1 3 < ",
"< 3 1 $ @ # : j T x.C.C.B.Z.Z.&.#.} [ A B l l G J ~ ~ x./ ~ x./ / / / / ~ / ! U G l l B A [ X.#.&.B.Z.C.C.C.x.R z = # @ $ 1 3 < ",
"< 3 1 $ @ # # z T x.G.C.C.V.Z.x.#.X.[ A B l l v G U U U U U U U U U U U U U U N m k l Z A [ X.#.&.M.C.C.N.G.l.T z =   # & 1 3 < ",
"< 3 3 $ @ # = z T l.G.C.C.C.x.%.#.X.[ A B l k l l l l m m l v v v x v v v l l l k k l Z A [ X.#.&.N.C.N.G.N.n.T z = # @ $ 1 3 < ",
"< 3 1 & # # = z T x.G.G.G.C.x.x.@.| [ A c l k k k k k k k l l l l k r l k k k k k k l B A A } @.&.M.C.G.G.G.c.Q n = # # $ 3 3 < ",
"< 3 1 $ #   : n z.V.P.J.G.G.C.x.@.L C Z c k k k k k k l v B B B B B B B k k k k k k k B B A L @.*.M.G.H.J.L.V.W n =   # $ 1 3 < ",
"< 3 3 $ #   : n j.G.I.P.K.G.x.*.E L c c l k k k k k k u B A A A A A C B c l k k k k k l c Z H E *.M.G.J.I.I.H.j.n : # # $ 3 3 < ",
"< 3 1 $ # # 4 M j.P.`.I.K.J.x.x.U v l l l k k k k k k c A F { [ [ [ F A B l k k k k k k l l Z U / M.G.K.I.`.P.j.M =   # $ 1 3 < ",
"< 3 < & #   : I k.I.`.`.U.J.C.x.R G v m m m l l m m Z S D | X.X.X.X.| L S Z v v l l m m l m J R x.N.J.U.Y.'.I.l.M 4 # # $ 1 3 < ",
"< 3 3 $ # # : M x.U.'.`.Y.P.K.x.x.! U U U U U T U U U E @.@.#.#.#.#.#.@.E U U U Y U U U U U R x.n.G.U.U.`.'.I.l.I : # @ $ 1 3 < ",
"< 3 1 $ @ . 4 M l.I.'.'.`.U.I.F.m.k./ / / / / / / / / / *.&.&.&.&.&.&.*.*./ / / / / / / / / l.m.G.P.U.`.'.'.I.l.M 4   # $ 1 3 < ",
"< 3 1 $ @ . : M l.I.'.'.'.'.`.I.J.N.m.m.m.m.m.m.m.m.n.N.N.m.M.M.M.M.M.M.m.m.n.n.m.m.m.m.m.m.N.H.U.`.'.'.].'.I.l.M : # @ $ 1 3 < ",
"& 3 1 $ @ . = n j.F.I.I.I.I.I.F.V.n.c.c.n.c.c.c.c.c.c.c.x.n.x.n.c.c.n.c.c.c.c.c.x.n.n.x.c.c.n.N.H.P.I.I.I.I.F.^ n = # @ & 3 3 & ",
"< 3 3 $ @ . @ j M ^ l.l.l.l.j.j.W Q T T T T T T T T T T T T T T T R T T T T T T T T T T T T Q W ( l.l.l.l.l.^ M j @   @ & 1 3 < ",
"< 3 1 $ @ # # 4 j n M M M I M n n z z z z z z z z z z z z z j z z z z z z z z z j z z z z z z n n M M M M M n j 4 # # @ = 1 3 < ",
"< 3 3 $ @     # = : : 4 4 : 4 & = $ : = : = : @ : - : @ = : : : - : - : = @ = : < = = : : = : : : 4 < 4 4 4 : # #     @ $ 3 3 < ",
"< 3 3 & @ #   . . . . . . .     #     # #   #   #     #     #     #     # #   #   # #   #     #     #     #   #     # @ $ 3 3 < ",
"< 3 1 < $ $ @ @ @ @ @ @ @ @ @ @ # @ # # # # @ # @ @ @ @ @ @ @ # @ @ @ @ @ # # # # @ @ # # # # # @ @ # # @ @ # @ @ @ $ $ < 1 3 < ",
"& 3 3 3 < & & & & & $ $ & & & $ & & & & & & & & & & & & $ $ $ $ & & & & & & & & : < & $ $ $ = $ $ $ $ & $ & $ $ $ $ & 1 1 3 3 < ",
"< 3 3 3 3 3 & 1 & 1 1 1 & & & 1 3 3 & 3 3 & 3 3 1 1 3 3 < 3 1 3 & < 1 3 & 3 3 & 3 3 1 3 3 1 3 < $ < < < < 1 1 < < < 1 3 3 3 3 < ",
"< 3 3 3 3 3 1 1 1 3 3 3 1 1 & 1 3 3 3 3 3 3 3 3 3 3 3 3 3 3 3 3 < 3 3 3 3 3 3 3 3 3 3 3 3 3 3 1 < < 1 < 3 3 3 3 3 < 3 3 3 3 3 & ",
"& 3 3 3 3 3 < 3 3 3 3 3 3 3 & 3 3 3 9 3 3 3 3 3 3 3 3 3 3 3 3 3 3 3 3 3 3 3 3 3 3 3 3 3 3 3 3 1 1 3 3 3 3 3 3 3 1 1 3 3 3 3 3 < ",
"< 3 3 3 3 1 < 1 3 3 3 3 3 3 1 1 3 3 3 3 3 3 3 3 3 3 3 3 3 3 3 3 & 3 3 3 3 3 3 3 3 3 3 3 3 3 3 1 1 3 3 3 3 3 3 3 3 < 3 3 3 3 3 < ",
"& 4 < 3 1 1 < 1 1 1 1 1 1 1 1 & 1 1 1 1 1 1 1 3 1 1 < 3 < 3 3 < < 1 1 < 3 1 < 1 1 1 1 1 1 1 1 < < 1 < 3 1 1 3 < < < < < 3 1 < & ",
"# # @ @ = @ @ @ @ @ @ @ @ @ @ @ @ @ @ @ @ @ @ @ @ @ @ @ @ % @ @ @ % @ @ @ @ @ @ @ @ @ @ @ @ @ @ @ @ @ @ # @ # # @ @ # # # # @ = ",
"      #           .                                                           #                                   #     #     # "
};
