/* XPM */
static char *result[] = {
/* columns rows colors chars-per-pixel */
"64 64 110 2 ",
"   c #26141B",
".  c #28151E",
"X  c #37221F",
"o  c #2B1722",
"O  c #2F1B27",
"+  c #331D2D",
"@  c #351F30",
"#  c #372224",
"$  c #382222",
"%  c #37212B",
"&  c #38222B",
"*  c #372131",
"=  c #392235",
"-  c #3D253B",
";  c #432B2C",
":  c #493125",
">  c #4E342B",
",  c #593E2A",
"<  c #5E4229",
"1  c #63462F",
"2  c #6D4F2E",
"3  c #6D5033",
"4  c #7A5832",
"5  c #856234",
"6  c #8B6938",
"7  c #916D39",
"8  c #9A743A",
"9  c #8B6D46",
"0  c #916F40",
"q  c #AB823E",
"w  c #A98342",
"e  c #B58B43",
"r  c #B58E4D",
"t  c #A98A59",
"y  c #C69B49",
"u  c #C89C4A",
"i  c #C79E53",
"p  c #C89E53",
"a  c #CEA24D",
"s  c #CEA557",
"d  c #CFA658",
"f  c #D7AC53",
"g  c #D9AD53",
"h  c #D7AF5F",
"j  c #DCB155",
"k  c #DDB35B",
"l  c #E2B658",
"z  c #E7BB5B",
"x  c #E8BD5B",
"c  c #CEA762",
"v  c #CFA964",
"b  c #C8A76C",
"n  c #D7AF60",
"m  c #D8B060",
"M  c #D7B268",
"N  c #D8B369",
"B  c #C2A572",
"V  c #D7B575",
"C  c #D8B573",
"Z  c #DCBA75",
"A  c #D8B778",
"S  c #DAB97B",
"D  c #E7BE63",
"F  c #E8BF63",
"G  c #E7BF69",
"H  c #ECC15E",
"J  c #EBC163",
"K  c #F1C660",
"L  c #F7CC64",
"P  c #F8CE65",
"I  c #F4CD6F",
"U  c #FBD167",
"Y  c #F7D06F",
"T  c #FDD46B",
"R  c #E7C272",
"E  c #E8C373",
"W  c #F0CC78",
"Q  c #FCD471",
"!  c #FFD875",
"~  c #F6D27B",
"^  c #DDBE82",
"/  c #DABF8B",
"(  c #E7C781",
")  c #E8C882",
"_  c #E2C58C",
"`  c #F5D485",
"'  c #FCDA85",
"]  c #F6D78B",
"[  c #FDDC88",
"{  c #E6CB93",
"}  c #EACE93",
"|  c #E7CD98",
" . c #E8CE9A",
".. c #EAD29F",
"X. c #F7DC9A",
"o. c #FADF9C",
"O. c #FFE090",
"+. c #FDE29E",
"@. c #EBD3A0",
"#. c #EDD8AA",
"$. c #F0DBAD",
"%. c #F7E2AF",
"&. c #F7E2B0",
"*. c #F8E3B1",
"=. c #FEEAB5",
"-. c #F7E5BA",
";. c #F8E7BE",
":. c #FBEBC4",
">. c #FEEFCA",
",. c #FEF0CA",
/* pixels */
"                                      o                                                                                         ",
"O O O O O O O O O O O O O O O O O + O O O O O + O O O O O O O O + O O O O O O O + + O O O O O O O O O O O O O O O O O O O O O O ",
"% = = = = = = = = = = = = = = & @ - - - @ @ - @ = = = = = = = = = = = = = = = = - @ @ - @ - @ - = @ = = = = = = = = = = = = = & ",
"@ - - - - - - - - - - - - - = = - - - - - - - - - - - - - - - @ = - - - - - - - - - - - - - - - = = - - - - - - - - - - - - - = ",
"= - - - - - - - - - - - - ; @ - - - - - - - - - - - - - - - - @ - - - - - - - - - - ; - - - - - = = - - - - - - - - - - - - = = ",
"@ - - - - - - - - - @ - = = @ - - - - - - - - - - - - - - - - = - - - - ; - - - - - - - - - - - = @ = = - = = - - - - - - - - % ",
"* - - - - - - = - = @ - - - @ - - - - - - - - - - - - - - - - @ - - - - - - - - - - - - - - - - - = = = - * = - = - - - - - - @ ",
"* - - - - - - - - - - - - - - - - - - - - - - - - - - - - - - = - - - - - - - - - - - - - - - - - - - - - - - - - - - - - - - * ",
"- - - - - - - - - - - - - - - - - - - - - - - - - - - - - - - * - - - - ; - - - - - - - - - - - - - - - - - - - - - - - - ; - @ ",
"- - - - - - - - - - - - - - - - ; - - - - - - - - - - - - - - = - - - - - - - - - - - - - - - - - - - - - - - - - - - - - - - - ",
"= - - - - - - - - - - - - - - - - - - - - - - - - = = = = = = * @ @ @ - - = = - - - - - - - - - - - - - - - - - - - - - - - - @ ",
"* - - - - - - - - - - - - - - - - - - - - - - - @ @ @ @ @ @ @ + @ @ @ @ @ + + + @ - - - - - - - - - - - - - - - - - - - - - - @ ",
"* - - - - - - - - - - - - - - - - - - - - - - = @ + O O O O O o + O o O o O O + @ @ = @ - = - - - - - - - - - - - - - - - - - @ ",
"* - - - - - - - - - - - - - - - - - - - - - = + + o o   . . . . . o . . . . . O @ @ = - - - - = - - - - - - - - - - - - - - - = ",
"@ - - - - - - - - - - - - - - - - - - - - = = = # X O X X X X $ O X X X X X $ & - = - - - - - = - - - - - - - - - - - - - - - @ ",
"* - - - - - - - - - - - - - - - - - - = = @ & ; > , < < < < < < < < < < < < , > ; = + @ = - - = - - - - - - - - - - - - - - - @ ",
"* - - - - - - - - - - - - - - - - - - @ + O O > 1 4 5 5 5 5 5 5 5 5 5 5 5 5 4 1 > & O + @ - - = - - - - - - - - - - - - - - - = ",
"@ - - - - - - - - - - - - - - - - - - @ + o $ , 4 8 q q q q q q q q q q q w 8 4 , $ o O + - - = - - - - - - - - - - - - - - - * ",
"* - - - - - - - ; - - - - - - - - - @ = & $ : 3 0 r i i i i i i i i i i a y e 6 2 : & & & = - = = - - - - - - - - - - - - - - * ",
"@ - - = - - - - - - - - - - - - @ @ = ; > , 3 9 t b A A A V A A V V V M n f u w 6 2 , > ; & % % * - - - - - - - - - - - - - = * ",
"* = * = - * - - - - - - - - - + + O + > 1 4 7 t B /  .| | | |  .| | { ( R D j y q 6 4 1 : & O O * - - - - - - - - - * - * = * % ",
"* = = - - - - - - - - - - - = + O . $ , 4 8 r b / #.-.-.-.-.-.-.-.-.%.X.` I H j a e 8 4 , & . O @ = - - - - - - - - - - - = - * ",
"* - - - - - - - - - - - - = & @ & X : 2 9 r n ^ @.-.,.:.:.:.-.-.;.;.&.+.[ ! L J k d r 7 3 : $ % * = = - - - - - - - - - - - - * ",
"* - - - - - - - - - - = = @ % ; > , 2 9 t b ^ | #.:.:.-.#...| | | | { ` ~ T Y I R Z b t 9 2 , > ; * * * - - - - - - - - - - - * ",
"* - - - - - - - - - - - + + O > 1 4 7 t B / @.#.-.:.:.$.| ^ A V A A Z R I Y T ~ ` { / B t 0 4 1 > # + + = - - - - - - - - - - * ",
"* - - - - - - - - - - @ O o X , 4 8 r b / #.;.:.:.,.;...^ v s i i s d k J L ! [ o.%.#./ b r 8 4 , O o O @ - - - - - - - - - - * ",
"% - - - - - - - - - = @ O . X < 5 q s V | -.,.>.:.;.$.| S v i i y y s f z K Y ' +.=.%.{ C i w 5 < $   O @ = - - - - - - - - - * ",
"* - - - - - - - - - = + O . X < 5 q i V | -.:.-.$.@.{ _ ^ S C M n f f j l z J W ] +.X.( M u q 5 < X o O @ = - - - - - - - - - * ",
"* - - - - - - - - - = @ O o X < 5 q i V | -.:.#.| ^ S ^ _ | { ( R x z l j g k G W ] ` R n u q 5 < X . O @ = - - - - - - - - - * ",
"@ - - - - - - - - - = @ O   X < 5 q i V | -.-.@.^ v c S { $.&.O.` Y K z g a a k J Q Y D f y q 5 < X . O @ = - - - - - - - - - * ",
"* - - - - - - - - - - @ O   O < 5 q i C { &.&.{ C p p C { &.=.+.[ ! L z f u u f x L L z f y q 5 < X . O + = - - - - - - - - - * ",
"* - - - - - - - - - = @ O o X < 5 q i M ( X.X.( M p u M ( X.%.[ ! ! L z f u u f x L L z f y q 5 < $   O @ - - - - - - - - - - * ",
"- - - - - - - - - - @ @ O o X < 5 q i n E ` ` E n a u h E ` [ ! ! ! L x f y y f x L L z f y q 5 < X   O @ @ - - - - - - - - - - ",
"@ - - - - - - - - - - @ O   X < 5 q u f J Y Y J f u u f J Q ! T T T L x f y u f x L L z f y q 5 < X   O + - - - - - - - - - - @ ",
"= - - - - - - - - - - @ O   X < 5 q u f D I Y J k s a g z K L L U L J z g a a j H U L z f y q 5 < X . O + = - - - - - - - - - @ ",
"@ - - - - - - - - - @ + O o X < 5 q u h E ` ' W J j j j k z z z x x x l j g j z H U L z f y q 5 < X . O + - - - - - - - - - - = ",
"= - - - - - - - - - - @ O   $ < 5 q i M W X.%.` W J z k l f f g g g g j l z H K L U L x f u q 5 < X   O @ - - - - - - - - - - @ ",
"@ - - - - - - - - - @ @ O . X < 5 q i C { %.*.+.] Y K x g a y y y y a j z K L U U U L x f y q 5 < X o O @ = - - - - - - - - - * ",
"@ - - - - - - - - - - @ O O # , 4 8 r b / #.&.X.[ ! U H j a y y y y a j H P U U U U J j u e 8 4 , $ o O @ - - - - - - - - - - @ ",
"* - - - - - - - - - - @ * O # > 1 4 6 t B / | ` ~ T U H z j f f g g j z K U U L H H j y q 7 4 1 > # O + @ - - - - - - - - - - * ",
"* - - - - - - - - - - - @ @ % & > < 3 9 t b Z R I P U L H H x x z x H K L U U K z g u q 6 2 , > & % @ * = - - - - - - - - - - * ",
"@ - - - - - = = = = = @ = @ @ % & # : 3 9 r s k J U U Y U U L L L L L L U U L H j a q 7 2 : $ % & @ * * * = = = = - - - - - - * ",
"* - - - - - - * - @ @ - = = @ @ O o $ < 4 8 e u g H L L L L L L L L L L L L H g a e 8 5 , $ o O % = = = = * - = = = - - - - - * ",
"* - - - - - - - - - - ; - - - * * O % > 1 4 7 w y j z z x x z z z x x x x x g y w 7 4 1 > % O + = = - - - - - - - - - - - - - * ",
"= - - - - - - - - - - - - - - = = + = ; > , 2 6 w a f f f f f f g f f f f f a q 6 2 , > ; % + = = - - - - - - - - - - - - - - * ",
"* - - - - - - - - - - - - - - - - - = & & X : 2 7 q y y y y y y y y y y y y q 6 2 : $ # = = - - - - - - - - - - - - - - - - - * ",
"* - - - - - - - - - - - - - - - - - = @ O o $ , 4 8 q q q q q q q q q q 8 q 8 5 , $ o + % = - - - - - - - - - - - - - - - - - * ",
"* - - - - - - - - - - - - - - - - - - = % O & > 1 4 5 5 5 5 5 5 5 5 5 5 6 5 5 < > # O + = - - - - - - - - - - - - - - - - - - * ",
"* - - - - - - - - - - - - - - - - - - = @ @ % ; > , < < < < < < < < < < < < , > ; & % * = - - - - - - - - - - - - - - - - - - - ",
"* - - - - - - - - - - - - - - - - - - - - - = * % # X $ X $ X X X X X X X # # & * = - - - - - - - - - - - - - - - - - - - - - = ",
"@ - - - - - - - - - - - - - - - - = = = = = @ @ O o . .   . . .       o . . o O * - - - - - - - - - - - - - - - - - - - - - - = ",
"* - - - - - - - - - - - - - - - * = = = = = = @ O O O o O O O O O O O O O O O @ * = - - - - - - - - - - - - - - - - - - - - - * ",
"* - - - - - - - - - - - - - - - - - - - - - - - * + + + + + @ + @ @ @ @ * % @ * - - - - - - - - - - - - - - - - - - - - - - - = ",
"* - - - - - - - - - - - - - - - - - - - - - - - - - - = = - = - = = = = = - = - - - - - - - - - = - - - - - - - - - - - - - - * ",
"* - - - - - - - - - - - - - - - - - - - - - - - - - - - - - - - - - - - - - - - - - - - - - - = = - - - - - - - - - - - - - - * ",
"* - - - - - - - - - - - - - - - - - - - - - - - - - - - - - - - - - - - - - - - - - - - - - - = = - - - - - - - - - - - - - = * ",
"= - - - - - - - - - - - - - - - - - - - - - - - - - - - - - - - - - - - - - - - - - - - - - - = = - - - - - - - - - - - - - - = ",
"& - - - - - = - - - - - = * * - - - - - - - - - - - - - - - - - = - - - - - - - - - - - - - - = * = * = = - - = - - - - - - - * ",
"* - - - - - = = - - - - = = * = - - - - - - - ; - - - - - - - - = - - - - - - - - - - - - - - = * = = = = - - = - = - - - - - * ",
"* - - - - - = = - - - - - - = = - - - - - - - - - - - - - - - - = - - - - - - - - - - - - - - - = - - - - - - - = = = - - - - * ",
"* - - - - = = = - - - - - - = = - - - - - - - - - - - - - - - - = = - - - - - - - - - - - - - = = - - - - - - - = * - - - - - % ",
"* = = * = = * = * = = = = = * * = = = = = = = = = = = = = = = = * = = = = = = = = = = = * = = * * = = = = = = = = * = = = = = * ",
"O O O O O O O O O O O O O O O O O O O O O O O O O O O O O O O O O O O O O O O + O O O O O O O O O O O O O O O O O O O O O O O O ",
"                  .           .                       .                                                                         "
};
