/* XPM */
static char *result[] = {
/* columns rows colors chars-per-pixel */
"64 64 32 1 ",
"  c #26141B",
". c #2F1B27",
"X c #362030",
"o c #362031",
"O c #372031",
"+ c #372131",
"@ c #372132",
"# c #372133",
"$ c #382132",
"% c #382133",
"& c #382233",
"* c #382234",
"= c #392234",
"- c #392235",
"; c #392335",
": c #3A2335",
"> c #392236",
", c #392336",
"< c #3A2236",
"1 c #3A2336",
"2 c #3A2337",
"3 c #3B2337",
"4 c #3B2437",
"5 c #3B2338",
"6 c #3B2438",
"7 c #3B2439",
"8 c #3C2438",
"9 c #3C2439",
"0 c #3C243A",
"q c #3C253A",
"w c #3D253A",
"e c #3D253B",
/* pixels */
"                                                                ",
"................................................................",
"o=------------$$--------------=+=---------------$$------------=o",
"O9wwwwwwwwwwww=>wwwwwwwwwwwwww9@9wwwwwwwwwwwwwww>=wwwwwwwwwwww9O",
"+0eeeeeeeeeeee=<eeeeeeeeeeeeee0%0eeeeeeeeeeeeeee<=eeeeeeeeeeee0+",
"+0eeeee171*73*@1eeeeeeeeeeeeee0%0eeeeeeeeeeeeeee1@*37*171eeeee0+",
"+0eeeee19,*92**4eeeeeeeeeeeeee0%0eeeeeeeeeeeeeee4**29*,91eeeee0+",
"+0eeeeeeeeeeeeeeeeeeeeeeeeeeee0%0eeeeeeeeeeeeeeeeeeeeeeeeeeeee0+",
"+0eeeeeeeeeeeeeeeeeeeeeeeeeeee0%0eeeeeeeeeeeeeeeeeeeeeeeeeeeee0+",
"+0eeeeeeeeeeeeeeeeeeeeeeeeeeee0%0eeeeeeeeeeeeeeeeeeeeeeeeeeeee0+",
"+0eeeeeeeeeeeeeeeeeeeeeeeeeeee0:0eeeeeeeeeeeeeeeeeeeeeeeeeeeee0+",
"+0eeeeeeeeeeeeeeeeeeeeeeeeeeeee7999999999999qqweeeeeeeeeeeeeee0+",
"+0eeeeeeeeeeeeeeeeeeeeeeeeeeeeq-************336wweeeeeeeeeeeee0+",
"+0eeeeeeeeeeeeeeeeeeeeeeeeeeeew222222222222279966eeeeeeeeeeeee0+",
"+0eeeeeeeeeeeeeeeeeeeeeeeeeeeeeeeeeeeeeeeeeeeee;;eeeeeeeeeeeee0+",
"+0eeeeeeeeeeeeeeeeeeeee0eeeeeeeeeeeeeeeeeeeeeee;;eeeeeeeeeeeee0+",
"+0eeeeeeeeeeeeeeeeeeee7-weeeeeeeeeeeeeeeeeeeeee;;eeeeeeeeeeeee0+",
"+0eeeeeeeeeeeeeeeeeeee6&weeeeeeeeeeeeeeeeeeeeee;;eeeeeeeeeeeee0+",
"+0eeeeeeeeeeeeeeeeeeee6&weeeeeeeeeeeeeeeeeeeeee;;eeeeeeeeeeeee0+",
"O389w9qeeeeeeeeq8888881$689w0eeeeeeeeeeeee08886=;eeeeeeeeq9w983O",
"X$&=7;7eeeeeeee1&&&&&&$+$&=71qeeeeeeeeeeee1&&&&+:eeeeeeee7;7=&$X",
"O146w8qeeeeeee2144444444446w9eeeeeeeeeeeee9444449eeeeeeeeq8w641O",
"+0eeeeeeeeeeee-<eeeeeeeeeeeeeeeeeeeeeeeeeeeeeeeeeeeeeeeeeeeeee0+",
"+0eeeeeeeeeeee-<eeeeeeeeeeeeeeeeeeeeeeeeeeeeeeeeeeeeeeeeeeeeee0+",
"+0eeeeeeeeeeee-<eeeeeeeeeeeeeeeeeeeeeeeeeeeeeeeeeeeeeeeeeeeeee0+",
"+0eeeeeeeeeeee-<eeeeee9,eeeeeeeeeeeeeeeeeeeeeeeeeeeeeeeeeeeeee0+",
"+0eeeeeeeeeeee-<eeeeee6&weeeeeeeeeeeeeeeeeeeeeeeeeeeeeeeeeeeee0+",
"+0eeeeeeeeeeee13eeeeee6&weeeeeeeeeeeeeeeeeeeeeeeeeeeeeeeeeeeee0+",
"+0eeeeeeeeeeee90eeeeee6%9wwwwwwweeeeeeeeeeeeeeeeeeeeeeeeeeeeee0+",
"+0eeeeeeeeeeee36eeeeee6O=------,weeeeeeeeeeeeeeeeeeeeeeeeeeeee0+",
"+0eeeeeeeeeeee56eeeeee6+=;;;;;*@0eeeeeeeeeeeeeeeeeeeeeeeeeeeee0+",
"+0eeeeeeeeeeeeeeeeeeee6&qeeeee9#0eeeeeeeeeeeeeeeeeeeeeeeeeeeee0+",
"+0eeeeeeeeeeeeeeeeeeee6&weeeee0&0eeeeeeeeeeeeeeeeeeeeeeeeeeeee0+",
"+0eeeeeeeeeeeeeeeeeeee6&weeeeew4weeeeeeeeeeeeeeeeeeeeeeeeeeeee0+",
"+0eeeeeeeeeeeeeeeeeeee92eeeeeeeeeeeeeeeeeeeeeeeeeeeeeeeeeeeeee0+",
"+0eeeeeeeeeeeeeeeeeeeeeweeeeeeeeeeeeeeeeeeeeeeeeeeeeeeeeeeeeee0+",
"+0eeeeeeeeeeeeeeeeeeeeeeeeeeeeeeeeeeeeeeeeeeeeeeeeeeeeeeeeeeee0+",
"+0eeeeeeeeeeee25eeeeeeeeeeeeeeeeeeeeeeeeeeeeeeeeeeeeeeeeeeeeee0+",
"+0eeeeeeeeeeee-<eeeeeeeeeeeeeeeeeeeeeeeeeeeeeeee99eeeeeeeeeeee0+",
"+0eeeeeeeeeeee-<eeeeeeeeeeeeeeeeeeeeeeeeeeeeeeee<-eeeeeeeeeeee0+",
"+0eeeeeeeeeeee-<eeeeeeeeeeeeeeeeeeeeeeeeeeeeeeee<-eeeeeeeeeeee0+",
"+0eeew1*******O<eeeeeeeeeeeeeeeeeeeeeeeeeeeeeeee<O*******1weee0+",
"+0eeeq1********5eeeeeeeeeq64444444444444444q99ee5********1qeee0+",
"+0eeeeeeeeeeeeeeeeeeeeeee7%%%%$O$%%%%%%O@%%723eeeeeeeeeeeeeeee0+",
"+0eeeeeeeeeeeeeeeeeeeeeeeq98883@3888888&188qq0eeeeeeeeeeeeeeee0+",
"+0eeeeeeeeeeeeeeeeeeeeeeeeeeee0%0eeeeee=5eeeeeeeeeeeeeeeeeeeee0+",
"+0eeeeeeeeeeeeeeeeeeeeeeeeeeee0%0eeeeee=5eeeeeeeeeeeeeeeeeeeee0+",
"+0eeeeeeeeeeeeeeeeeeeeeeeeeeee0%0eeeeee:7eeeeeeeeeeeeeeeeeeeee0+",
"+0eeeeeeeeeeeeeeeeeeeeeeeeeeee0%0eeeeee0eeeeeeeeeeeeeeeeeeeeee0+",
"+0eeeeeeeeeeeeeeeeeeeeeeeeeeee0%0eeeeeeeeeeeeeeeeeeeeeeeeeeeee0+",
"+0eeeeeeeeeeeee922222222222696w1weeeeeeeeeeeeee99eeeeeeeeeeeee0+",
"+0eeeeeeeeeeeee3***********;61eweeeeeeeeeeeeeee33eeeeeeeeeeeee0+",
"+0eeeeeeeeeeeeeq999999999990wqeeeeeeeeeeeeeeeeeqqeeeeeeeeeeeee0+",
"+0eeeeeeeeeeeeeeeeeeeeeeeeeeeeeeeeeeeeeeeeeeeee22eeeeeeeeeeeee0+",
"+0eeeeeeeeeeeeeeeeeeeeeeeeeeeeeeeeeeeeeeeeeeeee;;eeeeeeeeeeeee0+",
"+0eeeeeeeeeeeeeeeeeeeeeeeeeeeeeeeeeeeeeeeeeeeee;;eeeeeeeeeeeee0+",
"+0eeeeeeeeeeeeeeeeeeeeeeeeeeeeeeeeeeeeeeeeeeeee;;eeeeeeeeeeeee0+",
"+0eeew18,9e1***4eeeeeeeeeeeeeeeq-qeeeeeeeeeeeee;@***1e9,81weee0+",
"+0eeeq*3-9e1**@1eeeeeeeeeeeeeee0%0eeeeeeeeeeeee;+***1e9-3*qeee0+",
"+0eeeq*6eeeeee=<eeeeeeeeeeeeeee0%0eeeeeeeeeeeee;-weeeeee6*qeee0+",
"O9www9%2wwwwww=>wwwwwwwwwwwwwww9@9wwwwwwwwwwwwq==qwwwwww2%9www9O",
"o=---=+&------$$---------------=+=-------------@@-------&+=---=o",
"................................................................",
"                                                                "
};
