/* XPM */
static char *result[] = {
/* columns rows colors chars-per-pixel */
"64 64 212 2 ",
"   c #26141B",
".  c #29161E",
"X  c #2B191E",
"o  c #27181E",
"O  c #311B1F",
"+  c #2A1721",
"@  c #2C1B24",
"#  c #2F1C28",
"$  c #331D21",
"%  c #321D2C",
"&  c #351F30",
"*  c #2D2226",
"=  c #2F2529",
"-  c #2F282B",
";  c #342225",
":  c #3B2324",
">  c #32232B",
",  c #322B2D",
"<  c #3B2C2C",
"1  c #3A232B",
"2  c #372131",
"3  c #392235",
"4  c #332F31",
"5  c #3D253A",
"6  c #3A2B34",
"7  c #363536",
"8  c #3A3435",
"9  c #3A3837",
"0  c #3D363A",
"q  c #3C3A3A",
"w  c #3F302F",
"e  c #422625",
"r  c #432827",
"t  c #492926",
"y  c #432B2A",
"u  c #4B2D2A",
"i  c #522E29",
"p  c #44302E",
"a  c #4D322D",
"s  c #54332D",
"d  c #5B352D",
"f  c #442A31",
"g  c #4D3A35",
"h  c #41363D",
"j  c #443D3B",
"k  c #4A3E3A",
"l  c #463533",
"z  c #523631",
"x  c #543A34",
"c  c #5B3A32",
"v  c #583D39",
"b  c #62382E",
"n  c #623C32",
"m  c #6A3E31",
"M  c #4C423C",
"N  c #46413D",
"B  c #53433C",
"V  c #5A453C",
"C  c #5F483E",
"Z  c #5C4037",
"A  c #644136",
"S  c #6D4135",
"D  c #63443A",
"F  c #6C463A",
"G  c #644A3E",
"H  c #6B4A3D",
"J  c #734334",
"K  c #734B3C",
"L  c #7A4C3B",
"P  c #784738",
"I  c #7F503E",
"U  c #3F3F40",
"Y  c #443E44",
"T  c #493E46",
"R  c #513D40",
"E  c #454545",
"W  c #4A4643",
"Q  c #4B444B",
"!  c #4A4B4C",
"~  c #484647",
"^  c #544A45",
"/  c #524D4E",
"(  c #5C4B47",
")  c #4C4D50",
"_  c #4E4750",
"`  c #524E56",
"'  c #515152",
"]  c #595959",
"[  c #585458",
"{  c #5D504C",
"}  c #6C4D40",
"|  c #624C46",
" . c #714F41",
".. c #6B5649",
"X. c #755141",
"o. c #7B5442",
"O. c #775A4C",
"+. c #6C5C53",
"@. c #605F5E",
"#. c #675858",
"$. c #775D53",
"%. c #766356",
"&. c #6C635C",
"*. c #5D5B64",
"=. c #5F5F68",
"-. c #615B65",
";. c #5D6468",
":. c #616060",
">. c #63626C",
",. c #6C6768",
"<. c #746A62",
"1. c #746763",
"2. c #676772",
"3. c #656B72",
"4. c #6B6B75",
"5. c #6B6B76",
"6. c #6E7377",
"7. c #77747C",
"8. c #834C3A",
"9. c #89523E",
"0. c #94563F",
"q. c #835643",
"w. c #855944",
"e. c #8C5B45",
"r. c #885C46",
"t. c #945B43",
"y. c #995C43",
"u. c #A25E43",
"i. c #8E624B",
"p. c #9A6047",
"a. c #95664D",
"s. c #886956",
"d. c #9C6C52",
"f. c #946B56",
"g. c #99745A",
"h. c #A36449",
"j. c #A96649",
"k. c #B66C4B",
"l. c #BA6E4C",
"z. c #AC7B5B",
"x. c #A57355",
"c. c #B77A58",
"v. c #B86F50",
"b. c #856D61",
"n. c #8A7364",
"m. c #957664",
"M. c #897873",
"N. c #997F71",
"B. c #A67C64",
"V. c #A47D72",
"C. c #B7835F",
"Z. c #988278",
"A. c #8D837A",
"S. c #AD8263",
"D. c #BE8963",
"F. c #B68664",
"G. c #B49076",
"H. c #C48C64",
"J. c #C98F66",
"K. c #CB9167",
"L. c #CE9369",
"P. c #C4916B",
"I. c #D1966A",
"U. c #D6996C",
"Y. c #DA9C6E",
"T. c #C59572",
"R. c #C49B7C",
"E. c #DE9F70",
"W. c #D49C73",
"Q. c #DFA071",
"!. c #DAA37A",
"~. c #E1A171",
"^. c #797A86",
"/. c #827D86",
"(. c #7B828D",
"). c #778289",
"_. c #7E8691",
"`. c #8E8B8A",
"'. c #968A89",
"]. c #858D99",
"[. c #8A8F9C",
"{. c #848793",
"}. c #8E919C",
"|. c #85929B",
" X c #92929A",
".X c #908B94",
"XX c #AB9688",
"oX c #B7A393",
"OX c #8D96A2",
"+X c #929AA6",
"@X c #949DA9",
"#X c #97A1AD",
"$X c #9BA8B5",
"%X c #98A5B2",
"&X c #B8ACA2",
"*X c #A5B1BB",
"=X c #AEB1B3",
"-X c #C59F82",
";X c #C8A388",
":X c #D7AB88",
">X c #C6AB96",
",X c #D4B399",
"<X c #C7B3A3",
"1X c #CBBFB4",
"2X c #C8C3BC",
"3X c #D5C1B0",
"4X c #A3B5C2",
"5X c #AABECB",
"6X c #B1BCC1",
"7X c #B4C6CF",
"8X c #CBD0D0",
"9X c #CBDDE5",
/* pixels */
"                                                                                                                    .           ",
"# # # # % & # # # # % % # + # % # + .                                                       + # $ # # # # # # # # # + # # # % + ",
"2 2 2 3 5 & & 5 & & 5 & 3 3 & & & % # .       o o o                   o         o         @ % 2 & & & & 5 5 & 5 & 5 & 5 3 3 3 & ",
"2 5 5 5 5 5 5 5 5 5 5 5 3 3 & % > % % # @ @ * X * X o o * * * *   o * o * * o o * * X * @ * > % & % 5 5 5 5 5 5 5 5 5 5 5 5 5 & ",
"2 5 5 5 5 5 5 5 5 5 5 5 3 & % # # = = = = - - = - = - - - - - - - - - - - - - - - - - - * * ; * % % & 5 f 5 5 5 5 5 5 5 5 5 5 3 ",
"2 5 5 5 f 5 5 & 5 5 & 5 3 % + O @ @ = , 4 4 4 4 4 4 4 4 4 4 4 4 4 4 4 4 , 4 4 , 4 4 , 4 , - * o + + % & 5 & & 5 5 5 5 5 5 5 3 3 ",
"2 5 5 5 U 5 5 5 5 & 3 5 & % + + X * , , 0 0 0 0 9 9 9 q 9 q 9 q 9 9 9 9 9 9 9 9 7 9 9 9 4 , * o . + % & & U & 5 3 5 5 5 5 5 5 3 ",
"2 5 5 5 & & & & 3 & & & % # +   X ; y g V ^ ^ ( ! ' ! ^ V V V V V V V B B M M N M M M M p < ; X . + # % & & & & & 3 3 3 5 5 5 & ",
"2 5 5 3 3 & % # % % & % # + + . X r s D o.O.#.#.:.>.#.$...o.o.o.I I I H H G G G C C C C M t ; X   + @ # % % # % % % & & 5 5 5 & ",
"2 5 5 3 & # @ @ + + + + . . . . O u n 8.t.a.b.M.7.7.M.n.f.p.p.p.a.p.a.i.r.o.I H H o.o.H A a e X         + + @ @ + O % & & 5 f & ",
"2 5 5 & % @     .               O d J t.l.z.V.V.'..XZ.Z.S.k.l.l.l.l.k.j.h.t.r.r.r.o.O.r.F Z t X                   + # % & 5 5 & ",
"# 2 3 2 # # @ @ + + + + . + . . ; s S 9.h.d.m.M./.`.M.m.g.h.j.h.j.h.h.p.i.r.o.o.o.o.o.I A Z w ;   @ @ X o @ o @ + + + % & & & & ",
"# % % % # = # * * * * * * * * * < p Z K w.O.$.1.,.,.1.$.O.o.o.w.w.9.I I I H G G G G G G V M w ; * * * * * * * * * = = # & % % # ",
"@ @ @ # = - - , , 4 - - , , , , , l g V G ( { { ` [ [ { ..G ..G G G G C C V B B B B B M M p 9 , , - , , , - , - , , * # & # # + ",
"    + @ = - 4 7 7 7 7 7 4 7 7 7 7 9 9 j k j N U N E Y j N q N N N N N N U q N q N q q N 9 9 9 7 7 7 7 7 7 4 4 7 7 4 , = # .     ",
"+   + @ = - 4 4 7 4 4 7 q U E ! ! ! W W M M M W M M W ! ! ! ! ! N M N N N q q q q q q q 9 q 9 N q q 7 7 7 4 7 7 4 7 , = + + +   ",
"@ @ # # = * , - - - - , U ) ;.3.6.3.,.+.......O...+.&.<.6.6.6.,.+.....G { ! ! N E E E E E E E E E q 9 7 - - - - , - - = # # @ + ",
"# % % % # = * * * @ * * E *.6.OX+X`.A.n.s.g.f.g.S.S.Z.A. X+XOXA.A.A.s.%.+...' ' ' ' ' ' ' ' ' ' ! Y 0 , * * * * * * = # % & % # ",
"% 3 3 2 % @ @ o . @ + + E 3.].4X7X=XXXG.S.S.F.D.L.T.oX&X6X7X6X&XG.G.S.f.s.&.@.] ] ] ] ] ] ] ] ] [ W 0 > @   o + @ + @ # & & & & ",
"& 5 3 & % @ +     .   . Q 5.@X7X8X8X<XR.H.K.L.U.~.~.:X3X8X9X8X3X&XR.S.S.S.n.&.:.:.:.:.:.:.:.:.:.] W h >           o @ > & 5 5 & ",
"2 2 2 & % # # + + +   . T ,. X=X2X<X>XR.H.K.I.U.Y.!.:X,X3X2X2X<XR.R.D.F.S.n.<.<.<.<.:.:.@.:.:.] ] W h =       + + # % % & 2 2 2 ",
"2 3 3 2 3 % % % + +     v #.Z.oX<X>XR.T.H.K.I.U.Q.!.!.,X<X<X,X;XR.T.D.D.S.S.S.n.b.<.&.:.:.:.:.:.] ^ h >   X + # % % % 2 3 5 3 2 ",
"2 5 5 5 5 3 & & # # + . l ..m.G.R.R.T.P.D.K.I.U.Y.Q.!.!.R.R.R.T.T.P.D.D.F.F.S.S.g.<.<.:.:.:.@.-.] Q h >   . @ % % & 3 5 5 5 5 2 ",
"2 5 5 5 5 5 5 5 & # + . u } a.z.D.K.H.H.H.J.I.U.Y.Q.U.U.L.L.H.H.D.K.D.K.P.D.D.S.S.b.<.:.@.@.@.@.] Q h ;   . $ & & f 5 5 5 5 5 2 ",
"2 5 5 5 5 5 5 5 & # +   u  .a.c.L.K.K.K.K.I.U.U.~.U.U.U.I.K.K.K.L.L.K.K.K.K.D.C.g.s.#./ / / / / Q Y f & + # & & U 5 5 5 5 5 5 & ",
"2 5 5 5 5 5 5 5 & # +   i  .d.H.U.I.L.U.I.U.U.~.~.~.~.Y.U.U.I.I.I.I.I.L.K.D.D.C.g.O.( j h Y Y j h 5 5 & % & & 3 5 5 5 5 5 5 5 & ",
"2 5 5 5 5 5 5 5 & # +   a  .d.H.Y.U.Y.Y.U.U.U.~.~.~.~.Y.Y.U.U.U.Y.Y.Y.I.I.K.K.S.f. .x 1 , , 6 , , 1 & & & & 5 5 5 5 5 5 5 5 5 & ",
"2 5 5 5 5 5 5 & & % + + s o.x.L.Q.Q.Q.Q.~.~.~.~.~.~.~.~.~.~.~.Y.Q.Q.Y.Y.I.K.D.C.i.H p . X X . . @ # & & 5 5 5 5 5 5 5 5 5 5 5 & ",
"2 5 5 5 5 5 5 5 & % + + i } i.z.D.K.I.U.~.~.~.~.~.~.~.~.~.~.~.~.~.Y.Y.K.D.C.S.a.w.F z e : O O     @ % & 5 5 5 5 5 5 5 5 5 5 5 & ",
"2 5 5 5 f 5 5 & & & & % f R  .r.a.C.D.K.~.~.~.~.~.~.~.~.~.~.~.~.Y.U.I.C.C.a.r.I L J S n d t O .   # % 3 5 5 5 5 5 5 5 5 5 5 5 5 ",
"2 5 5 5 U 5 5 5 & & & & f i c m K i.S.H.~.~.~.~.~.~.~.~.~.~.~.U.U.I.J.C.d.o.A A m P 8.9.m b e O   @ % & 5 5 5 5 5 5 5 5 5 5 5 & ",
"2 5 5 5 5 5 5 5 5 5 5 5 3 3 & 1 a K a.C.~.~.~.~.~.~.~.~.~.~.~.U.I.K.C.S.o.A r u b 8.0.u.0.m i $ + @ % 3 T 5 5 5 5 5 5 5 5 5 5 & ",
"& 5 5 5 5 5 5 5 & U 5 & % % @   : c q.x.J.I.W.W.W.:XW.I.I.J.J.H.H.H.C.j.I A e t b P 0.j.0.m i O   O O % 5 & 5 5 5 5 5 5 5 5 5 3 ",
"5 5 5 5 5 5 5 5 & & & % % @ @   $ a D w.d.c.V.G.-X;X-XG.V.x.x.z.C.C.C.x.t.L b b S J 8.8.J d t O     # $ & & & 5 5 5 5 5 5 5 5 2 ",
"& 5 5 5 5 5 5 5 5 & % # # .     @ : s n  .s.V.XXoX<XXXN.s.o.q.t.j.k.C.k.u.0.I P J J S b i t O O   + . $ # % & 3 5 5 5 5 5 5 5 & ",
"& 5 5 5 5 5 5 5 & & @ + +       . $ $ 1 r ( 5.[.#X=X.XM.#.a c P 0.j.l.l.k.j.j.0.P S i e : O O         + + @ % 2 5 5 5 5 5 5 5 2 ",
"& 5 5 5 5 5 5 5 & # +         o   . @ @ + U >.^.$X4X{.5.T & 3 b L u.k.k.l.k.k.j.I A e                     @ # 2 3 5 5 5 5 5 5 2 ",
"5 5 5 5 5 5 5 5 & # +   o o o o * 4 8 Y T *.^.^.%X*X{.^.-.T R m K I 0.0.0.y.y.w.J d e X o o o       o @ * @ # > & & & 5 5 5 5 2 ",
"& 5 5 5 5 5 5 & % # +   o @ * * 4 Y ` *.^.^./.}.#X#X[.^.^.` #.| H F J J K L X.H Z M w * = o o o   + @ * * * * # % # & & 3 5 5 2 ",
"& 5 5 5 5 5 5 & & # +   o * * , U ) 2.^.OX+X@X@X@X@X+X/./.^.2.#.B Z t a s x B B N l 7 4 - = o     + * * 4 - - = @ @ # % 3 5 5 2 ",
"3 5 5 5 5 5 5 5 2 $ +   @ * , 7 E ;.(.@X5X4X$X%X+X X}.}.}.}.^.>.! < o X - , 7 9 7 7 9 7 4 - *   o * - 4 7 4 - @ +   @ # & & Y & ",
"& 5 5 5 5 & & % % % : : : 1 , , U ` 3.^.OX@X@X@X@X+X}..X/.^.2.*.N 4 * * - , 7 7 7 9 q 7 4 - *   X ; , l M h < ; +   + % & 5 5 & ",
"& 5 5 5 3 & % % 1 r u s a p < , 4 Y ` =.5.^._.OX@X%X[.^.5.-.` T h , * - 4 7 7 7 9 7 7 7 4 - X   X ; p g V x f 1 @   # % & 5 & & ",
"3 5 5 3 & % # $ f z c F c a y ; = 4 0 Y _ *.^.].%X$X].^.-.T Y f 8 7 - 7 7 7 7 7 9 7 q 7 4 - * o X : a A H C z r O   + % 5 5 5 & ",
"& 5 5 3 % + + $ u c F q.F d r $     + + # Y >.(.%X4X].2.! > * > , 7 7 7 7 7 7 9 7 9 7 7 4 - * o O r c F q.J c t O . + % & 5 5 & ",
"& 5 5 & % + . O r z A L n s e $         + U =.^.%X4X].2.Q @ @ ; < l M k M j j j j U N N w , * o O e s A X.F z f O + + % & 5 5 3 ",
"3 5 5 & & + . + : t s n z u $ .           U =.^.$X4X].2.T @ O u z D } H G C V V B V B V g w ; X X : y s b s t : +   + & & 5 5 & ",
"& 5 5 & % + . . $ : r u e % +             Y =._.%X4X].2.Q @ O u A I r.q.o.X.H } H } } G Z a : O   X : r t t : O . . + % 3 5 5 & ",
"& 5 5 3 % + .   . O O O O + .             7 ;.).$X4X_.3.Q @ : d P t.j.h.p.r.i.o.o.I o.o.F s e O     O O $ $ . .     + % & 5 5 & ",
"& 5 5 & % # + .     . .                 o 9 ] ^.+X%X_.>.Y @ : d L t.k.p.p.i.9.o.o.I i.o.F c < X                 + + # & & 5 5 & ",
"& 5 5 3 & % # # + + + + + +       o o * * q ' 3.)._.3.` h X : a A 8.i.i.I I K H K ..H H Z a < o       @ + # # @ + + & & & 3 5 & ",
"1 5 5 3 & & & & & & & & % + +     o * * * 9 ! ] ;.3.*.Q , o O y Z D K G G C V V V C V Z M p - o     # $ % % % % & & & & 5 5 Y & ",
"3 5 5 5 5 3 5 3 3 3 3 3 & + + +   o * - 7 9 q E ) ) E 6 * @ X < w M M M N N N N N N N N 7 , * o + @ % % 3 & & 5 & 5 5 5 5 5 5 & ",
"& 5 5 5 5 5 5 5 5 5 5 5 & & + + o * - 4 7 7 7 7 7 7 4 * @ X X * - , 7 7 7 7 7 9 9 7 7 7 4 - * o   @ % & 5 5 5 5 5 5 5 5 5 5 5 & ",
"3 3 5 5 5 5 5 5 5 5 5 5 & & + + o * - 4 7 7 7 4 4 4 4 y u u u u < 4 , 4 4 7 7 7 9 7 7 9 4 - - - @ # % & & & 5 5 5 5 5 5 5 5 5 & ",
"& 5 5 5 5 5 5 5 5 5 5 5 2 & + + o o - 7 7 7 7 - - - < z c J m s u < ; , 4 7 9 9 7 7 7 9 7 4 - - = # = # % & & 3 5 5 5 5 5 5 5 & ",
"& 5 5 5 5 5 5 5 5 5 5 5 2 & + . o o - 4 7 7 - - * $ t A P 0.8.S s e * * - 4 7 7 7 q 7 7 7 7 7 7 , - * @ + + % 3 5 5 5 5 5 5 5 & ",
"& 5 5 5 5 f 3 5 3 5 5 2 & # +   o * - 4 7 4 * * o O i J 0.k.u.8.A : o X * 4 7 9 7 q 7 q 7 7 7 7 7 , * @ . + % % & 5 5 5 5 5 5 3 ",
"& 5 U & 5 5 2 5 3 3 3 & % # # + * * - 4 7 4 - * o O i S 9.j.y.L d :   X * 4 7 7 7 7 7 7 7 U 7 7 7 - $ @   + + % 3 5 5 5 5 5 5 & ",
"& 5 5 5 5 5 2 3 3 3 & & % # % % - - 4 7 7 7 - * o X t S 9.u.t.J d $   O - , 7 7 7 q 7 7 7 7 7 7 7 , % +   + % % 3 & 5 5 5 5 5 & ",
"& 5 5 5 5 5 & 5 2 % # @ $ = > - 4 4 7 7 7 4 - * o O t A L t.w.S i : o o * , 7 7 7 7 7 7 7 7 7 9 7 , * @   + # & & 3 5 5 5 5 5 & ",
"& 5 & 5 2 & 2 & % @ @   + % * 7 7 7 7 7 9 4 - X X X e d J w.I A u ;   * * 4 7 9 q q 7 q 9 7 9 9 7 * * @   + + % & & 3 3 5 3 3 & ",
"+ # % % # # # # + +     @ * , 7 7 9 7 7 7 4 - * o X e Z K w.K A a :   o * 4 7 7 7 q 7 7 7 q 9 7 7 - * @     + + $ + $ # # # # # ",
"                        o * , 7 7 7 9 9 9 4 - * o O : d J w.K A u O   * - , 7 7 7 q 7 7 7 7 7 7 7 - - o                         "
};
