/* XPM */
static char *result[] = {
/* columns rows colors chars-per-pixel */
"64 64 212 2 ",
"   c #26141B",
".  c #29161E",
"X  c #2B191E",
"o  c #27181E",
"O  c #311B1F",
"+  c #2A1721",
"@  c #2C1B24",
"#  c #2F1C28",
"$  c #331D21",
"%  c #321D2C",
"&  c #351F30",
"*  c #2D2226",
"=  c #2F2529",
"-  c #2F282B",
";  c #342225",
":  c #3B2324",
">  c #32232B",
",  c #322B2D",
"<  c #3B2C2C",
"1  c #3A232B",
"2  c #372131",
"3  c #392235",
"4  c #332F31",
"5  c #3D253A",
"6  c #3A2B34",
"7  c #363536",
"8  c #3A3435",
"9  c #3A3837",
"0  c #3D363A",
"q  c #3C3A3A",
"w  c #3F302F",
"e  c #422625",
"r  c #432827",
"t  c #492926",
"y  c #432B2A",
"u  c #4B2D2A",
"i  c #522E29",
"p  c #44302E",
"a  c #4D322D",
"s  c #54332D",
"d  c #5B352D",
"f  c #442A31",
"g  c #4D3A35",
"h  c #41363D",
"j  c #443D3B",
"k  c #4A3E3A",
"l  c #463533",
"z  c #523631",
"x  c #543A34",
"c  c #5B3A32",
"v  c #583D39",
"b  c #62382E",
"n  c #623C32",
"m  c #6A3E31",
"M  c #4C423C",
"N  c #46413D",
"B  c #53433C",
"V  c #5A453C",
"C  c #5F483E",
"Z  c #5C4037",
"A  c #644136",
"S  c #6D4135",
"D  c #63443A",
"F  c #6C463A",
"G  c #644A3E",
"H  c #6B4A3D",
"J  c #734334",
"K  c #734B3C",
"L  c #7A4C3B",
"P  c #784738",
"I  c #7F503E",
"U  c #3F3F40",
"Y  c #443E44",
"T  c #493E46",
"R  c #513D40",
"E  c #454545",
"W  c #4A4643",
"Q  c #4B444B",
"!  c #4A4B4C",
"~  c #484647",
"^  c #544A45",
"/  c #524D4E",
"(  c #5C4B47",
")  c #4C4D50",
"_  c #4E4750",
"`  c #524E56",
"'  c #515152",
"]  c #595959",
"[  c #585458",
"{  c #5D504C",
"}  c #6C4D40",
"|  c #624C46",
" . c #714F41",
".. c #6B5649",
"X. c #755141",
"o. c #7B5442",
"O. c #775A4C",
"+. c #6C5C53",
"@. c #605F5E",
"#. c #675858",
"$. c #775D53",
"%. c #766356",
"&. c #6C635C",
"*. c #5D5B64",
"=. c #5F5F68",
"-. c #615B65",
";. c #5D6468",
":. c #616060",
">. c #63626C",
",. c #6C6768",
"<. c #746A62",
"1. c #746763",
"2. c #676772",
"3. c #656B72",
"4. c #6B6B75",
"5. c #6B6B76",
"6. c #6E7377",
"7. c #77747C",
"8. c #834C3A",
"9. c #89523E",
"0. c #94563F",
"q. c #835643",
"w. c #855944",
"e. c #8C5B45",
"r. c #885C46",
"t. c #945B43",
"y. c #995C43",
"u. c #A25E43",
"i. c #8E624B",
"p. c #9A6047",
"a. c #95664D",
"s. c #886956",
"d. c #9C6C52",
"f. c #946B56",
"g. c #99745A",
"h. c #A36449",
"j. c #A96649",
"k. c #B66C4B",
"l. c #BA6E4C",
"z. c #AC7B5B",
"x. c #A57355",
"c. c #B77A58",
"v. c #B86F50",
"b. c #856D61",
"n. c #8A7364",
"m. c #957664",
"M. c #897873",
"N. c #997F71",
"B. c #A67C64",
"V. c #A47D72",
"C. c #B7835F",
"Z. c #988278",
"A. c #8D837A",
"S. c #AD8263",
"D. c #BE8963",
"F. c #B68664",
"G. c #B49076",
"H. c #C48C64",
"J. c #C98F66",
"K. c #CB9167",
"L. c #CE9369",
"P. c #C4916B",
"I. c #D1966A",
"U. c #D6996C",
"Y. c #DA9C6E",
"T. c #C59572",
"R. c #C49B7C",
"E. c #DE9F70",
"W. c #D49C73",
"Q. c #DFA071",
"!. c #DAA37A",
"~. c #E1A171",
"^. c #797A86",
"/. c #827D86",
"(. c #7B828D",
"). c #778289",
"_. c #7E8691",
"`. c #8E8B8A",
"'. c #968A89",
"]. c #858D99",
"[. c #8A8F9C",
"{. c #848793",
"}. c #8E919C",
"|. c #85929B",
" X c #92929A",
".X c #908B94",
"XX c #AB9688",
"oX c #B7A393",
"OX c #8D96A2",
"+X c #929AA6",
"@X c #949DA9",
"#X c #97A1AD",
"$X c #9BA8B5",
"%X c #98A5B2",
"&X c #B8ACA2",
"*X c #A5B1BB",
"=X c #AEB1B3",
"-X c #C59F82",
";X c #C8A388",
":X c #D7AB88",
">X c #C6AB96",
",X c #D4B399",
"<X c #C7B3A3",
"1X c #CBBFB4",
"2X c #C8C3BC",
"3X c #D5C1B0",
"4X c #A3B5C2",
"5X c #AABECB",
"6X c #B1BCC1",
"7X c #B4C6CF",
"8X c #CBD0D0",
"9X c #CBDDE5",
/* pixels */
"                                                                                                                          .     ",
"# # # # % & # # # # % % # + # % # + o                     o                                 + # % # @ # % % # # % + + # % + + % ",
"2 2 2 3 5 & & 5 & & 5 & 3 3 & & 2 % $ o         o o           o   o o o o o         o o   @ % 2 & & & 5 5 & 5 & & 5 & 5 3 3 3 3 ",
"2 5 5 5 5 5 5 5 5 5 5 5 3 3 & % & > # * + @ * * X X o o * X * *   o o * X X o o @ * @ @ @ * > % & % & 5 5 5 5 5 5 5 5 5 5 5 3 3 ",
"2 5 5 5 5 5 5 5 5 5 5 5 3 & % # * ; * = - - - - - - - - - - - - - - - - - - - - - - - - = = = ; % % & & f Y 5 5 5 5 5 5 5 5 5 3 ",
"2 5 5 5 f 5 5 & 5 5 & 5 3 % + O X * - , 4 4 4 4 4 4 4 4 4 , 4 4 4 4 4 7 4 4 4 4 4 4 4 4 , = @ X X @ % & 5 & 5 5 5 5 5 5 5 5 5 & ",
"2 5 5 5 U 5 5 5 5 & 3 5 & % + + o * - 4 7 7 9 9 9 9 9 9 9 9 9 9 7 9 q q 9 9 9 9 9 9 9 9 4 > *     + % & & 5 & 5 3 5 5 5 5 5 5 & ",
"2 5 5 5 & & & & 3 & & & % # +   o ; < w M M M M M M M B B V V V B B C B C ! ' ! ^ ^ ^ V g p : X . + # % & & & & & 3 3 3 5 5 5 3 ",
"& 5 5 5 & & % % % % & % # + + . X : p M A Z G C C G G H H I I I o.I O.O.+.#.-.-.$.+.X.o.D s y X   . @ # % % % % % % % & 5 5 5 & ",
"& 5 5 5 & # # + + + + + . . .   X e M A K K ..K K I o.w.i.p.a.p.a.p.a.f.b.M./.7.M.b.f.y.L A u O   o . o + + + + + O % % & 5 f & ",
"& 5 5 & % # o   .               X y Z F r.r.w.r.r.r.p.h.j.l.l.l.l.l.k.z.V.'..X'./.V.z.k.0.P s $         o         + # % & 5 5 & ",
"% 3 & > # # @ + + + + + + + . . O e Z D X.o.I X.o.o.w.r.p.h.h.j.h.h.h.f.m.M././.V.m.d.u.9.S s : + . o @ + o @ o + + # % & & & & ",
"# % % % # = = * * = * @ ; * * * - w M Z G G G G G G K O.o.o.r.w.r.w.w.$.%.1.3.,.$.$.w.w.} v p > * * * * * * * = * = # = & & % # ",
"+ # # @ = - - , , - , - , , , , 4 7 p M B B V B B B V V C C G G G G G | { { [ [ [ { | G V g l < , , , , , - , - , - - # % # + + ",
"  o o @ * - 7 7 7 7 7 7 7 7 7 7 7 7 9 9 9 q N 9 9 N q N N N N N k j j N Y N U N T Y j j j 9 0 7 7 7 7 7 7 4 4 7 7 4 , = + + +   ",
"  . o @ = - , , 7 7 4 7 7 7 9 9 N q q q N q q q q q q N N M M N ! ! ! ! ! W W M R k k M W W ! ! ! E U 9 7 4 7 7 7 4 - = # + . . ",
"+ # $ # = = - , - - - - 7 9 q E ~ ~ ~ ~ ~ E E ~ N ! ! ^ ....+.&.<.6.6.6.&.%.+...O.H ....+.<.,.6.3.;.) q , - , - - - = = # @ # + ",
"% % % % % = * @ * * * = 4 9 E ^ ' ) ) ) ' ) ' ' ' ' ..+.%.%.s.A.A.OX+X`.A.A.S.S.S.g.f.s.n.A..XOX_.^.*.U = * * * * * # = % % % % ",
"% & 3 & % @ + + o + . + > 0 W ' ] ] ] ] ] ] ] ] ] @.<.%.S.S.S.oX=X6X7X1X<XoXP.H.S.C.S.S.G.oX=X6X4X|.3.E + o + + + + @ # % 2 3 % ",
"& 5 5 % % @ o o         > h Q ] :.:.:.:.:.:.:.:.&.&.b.n.S.D.R.oX1X8X9X8X3X,X!.Q.U.L.K.P.;X&X1X9X7X@X5.Q .       o o # % 2 5 5 & ",
"2 3 2 & & # # + + .     ; h Q ] :.:.@.;.:.:.<.<.<.n.g.S.F.D.T.;X<X1X8X3X,X:X!.Q.U.L.K.H.R.>X<X2X=X X1.T + + + + + # # & % 2 2 2 ",
"& 3 3 3 2 % % # @ . .   > h Q ] :.@.@.:.:.&.<.<.s.Z.S.S.F.H.T.R.oX,X<X>X,X!.!.Q.U.L.K.H.T.-X>X<XoXZ.#.k   . + + % % % & 3 5 5 2 ",
"2 5 5 5 3 5 & & % # o   > j ^ ] @.;.:.:.:.&.n.g.S.S.F.F.D.H.J.T.R.R.R.R.!.W.Q.Y.U.I.K.H.K.T.R.R.G.m...l   + + % % & 3 5 5 5 5 1 ",
"2 5 5 5 5 5 5 5 2 @ +   ; h Q ] @.@.@.@.:.<.b.S.F.H.H.H.H.H.H.H.H.H.P.I.I.Y.Q.Q.U.I.K.H.H.H.H.H.S.a.H u . + # & & f 5 5 5 5 5 & ",
"2 5 5 5 5 5 5 5 & % # + > 6 Y Q ! ) / / / +.s.g.F.H.J.J.K.K.K.K.L.K.K.I.U.Y.Q.Q.Y.I.I.J.J.L.J.L.F.t. .u   + # & U 5 5 5 5 5 5 5 ",
"2 5 5 5 5 5 5 5 5 & % % 2 6 8 h N j Y j j ( $.f.S.H.J.K.K.I.I.I.I.I.I.U.Y.Y.Q.Q.Y.U.U.I.I.I.I.I.H.d. .a   + # & & 5 5 5 5 5 5 & ",
"2 5 5 5 5 5 5 5 5 & & & & 3 & & , < , , , v  .f.z.J.K.I.I.Y.Y.Y.Y.Y.Y.Y.Q.~.~.Q.E.E.Y.Y.Y.Y.Y.Y.H.d.X.i   + # & 5 5 5 5 5 5 5 & ",
"2 5 5 5 5 5 5 5 5 5 5 5 & & # + . o . . o y H i.z.J.K.I.U.E.E.E.Q.Q.Q.Q.Q.~.~.~.~.~.E.~.E.E.E.E.J.x.o.i   + % & & 5 5 5 5 5 5 & ",
"2 5 5 5 5 5 5 5 5 5 5 5 5 & + + . O O : e d F w.d.z.C.C.I.Y.E.E.~.~.~.~.~.~.~.~.~.~.~.~.U.I.K.H.c.i.} u + # % & 5 5 5 5 5 5 5 & ",
"2 5 5 5 5 5 5 5 5 5 5 5 & % #   O $ t d b m P L I r.d.S.C.I.U.Y.Q.~.~.~.~.~.~.~.~.~.~.~.L.H.z.d.r. .v f % & & & 5 5 5 5 5 5 5 & ",
"2 5 5 5 f 5 5 5 5 5 5 5 & & #   O t d m 8.8.P m A D q.a.C.J.I.U.Y.Q.~.~.~.~.~.~.~.~.~.E.H.x.i. .n v z f & & & 5 5 5 5 5 5 5 5 5 ",
"2 5 5 5 U 5 5 5 5 5 5 5 & & + + O i m 9.j.0.8.b y y A w.x.D.K.I.U.Y.~.~.~.~.~.~.~.~.~.E.D.a.K u & f & & 5 5 5 5 5 5 5 5 5 5 5 & ",
"& 5 5 & 5 5 5 5 & U 5 & % % o   O i m 0.j.0.P b t e n o.h.H.H.H.J.K.D.K.U.W.!.!.W.W.L.J.x.q.c ; . + % & 5 5 5 5 5 5 5 5 5 5 5 & ",
"& 5 5 U 5 5 5 5 5 & & & % @ o   O t b m 8.8.P m b n L t.x.c.c.z.C.x.S.S.G.R.>XR.T.G.B.d.w.m a O   + @ % & & & 5 5 5 5 5 U & 5 & ",
"& 5 5 5 5 5 5 5 & & % @ + +     O O t i b m J J P 8.y.h.k.c.v.h.r.o.o.s.Z.XX&XoX'.m.s. .v s e X   + + @ # % & 3 3 5 5 5 5 5 5 & ",
"& 5 5 5 5 5 5 5 & & @ + + .       O O : e i m P 0.j.j.l.l.l.j.t.J d a ..n.`.=X=X'.,.( 6 r % $ o     . . + + % & 3 5 5 5 5 5 5 & ",
"& 5 5 5 5 5 5 & & # +   o o               e b 8.u.l.k.l.k.k.u.8.b r % Q 6.|.*X$X^.2.U % + + + o           o # & 5 5 5 5 5 5 5 & ",
"5 5 5 5 5 & & & & % # + X o o         O * y x K 9.y.t.t.t.t.8. .| v T -.6.|.$X%X_.^.=.T U U 4 # + + o     + # % & 5 5 5 5 5 5 5 ",
"& 5 5 & & & % # % = % = * * o     X O X - < g Z } L K K J S F } | [ -.4.^.|.%X#XOX_.^.^.*.` U 7 = @ + o   + # & 5 5 5 5 5 5 5 & ",
"& 5 5 5 & # @ @ # = - 4 , * X X   X * - 4 7 l k B V x z u t z ( #.2.^.^..X|.+X@X@X@X_.OX^.>.) U , = * o   o # % 5 5 Y 5 5 5 5 & ",
"& 5 5 & % + . . * - 4 9 , - X o o * - , 7 7 9 7 7 7 4 - *   < Q -./..X}.OX X}.+X#X*X4X5X@X).;.E 7 , = +   + # & 3 5 5 5 5 5 5 & ",
"& 5 5 3 % # . . ; < l N l , $ o   * - 4 9 9 9 7 9 7 4 - * o , N -.2.^./.{.[.@X@X@X+X+X+X^.2.` U , < > 1 : e $ & & & 3 3 5 5 5 & ",
"& 5 5 & % # . . : p B C M p ; o   * - 4 7 7 7 7 7 7 4 4 , - 4 N T T -.5.^.[.#X@XOX/.^.5.*.` U 3 , < f a s i f & % % & 3 3 5 5 & ",
"3 5 5 & % + . O < a D H A a < O   * - , q 7 q 7 7 7 7 4 4 , 4 7 T T T -.^.[.$X%X].^.-._ Y U 6 + ; r s v m c s t % + % & 3 5 5 3 ",
"& 5 5 & % +   $ u Z H I H d e O   * - , 7 7 7 7 7 7 7 7 7 4 4 - & % > _ 5.].4X%X^.2.T + + #     X y c F q.J v f O + + % 3 5 5 & ",
"& 5 5 3 % +   $ e s S L A a e O X * , w U N N N N N N N M M N < > + + Q 2.].4X$X^.=.U           X y s A  .m d 1 O + + % & 5 5 & ",
"3 5 5 & % +   + e y s A s t : X X ; w M B C B B C C C G G H D Z r $ # T 2.].4X%X_.=.Y           X : t s b d t : + + + % & 5 5 2 ",
"3 3 5 3 % +   . X : e u e ; O   X e a V H H H H H H K I w.e.L A u $ @ Q 2.].4X%X_.=.U             O ; r t t : O . . O % 2 5 5 2 ",
"& 5 5 3 % + +   . . O O O + .   O r Z A o.o.o.o.o.w.r.p.h.j.t.P d ; @ T 3._.4X$X(.*.q               X O + + O       + & 3 5 5 & ",
"& 5 5 & % # +     . . +         X r Z A o.w.w.o.r.w.i.p.h.k.y.P d % @ U >._.%X@X^.*.9 o                 + + + +   + + & & 5 5 3 ",
"& 5 5 3 & & # O + + % + + + .   X e u Z H K H G H H I o.w.e.L A i ; + U [ 3._.).3.) 9 * o o o     . X X + + # # + + & & 3 5 5 & ",
"& 5 5 3 & & % & & % % % # + +   X ; p M V V C C V C G G H K A Z t O + 6 E *.3.;.[ ! 7 - * * o     + @ $ % % % & & & & 3 3 5 5 & ",
"& 5 5 5 5 5 3 3 5 & & & & # + + o * - 7 U U U U M N N M M M M p > @ X > 8 Y ) ) E U q 4 - * *     + % % & & & 5 3 3 5 5 5 5 5 & ",
"3 5 5 5 5 5 5 5 5 & Y f & % + + o * - 4 7 q 7 7 9 9 7 7 7 7 4 - ; X X * = < 7 7 7 7 7 7 4 - *     # & & 5 5 5 5 5 5 5 5 5 5 5 3 ",
"& 5 5 5 5 5 5 5 5 & & & % % % + * - - 7 7 9 7 q 7 7 7 7 4 , 4 < y y t u < < 4 4 4 7 7 7 4 - *   . # % & 5 5 5 5 5 5 5 5 5 5 5 & ",
"1 5 5 5 5 5 5 5 5 & % % % % % % - - 7 7 7 9 7 q 9 7 7 , , - < u c m J b z < - - , 7 7 7 4 - o o   # % & Y & 5 5 5 5 5 5 5 5 5 & ",
"2 5 5 5 5 5 5 5 & & # + + # 2 - 7 7 7 7 7 7 7 7 9 7 4 - * X e s S 8.0.P c u $ * - - 7 7 4 - *     # % & 5 5 5 5 5 5 5 5 5 5 5 3 ",
"2 5 5 5 5 5 3 3 & # +   + % - 7 7 7 7 7 7 7 7 q 7 7 , - *   : b 8.u.k.0.J i O o * - 4 7 4 - * o   + % % 3 5 5 3 5 5 5 5 5 5 3 3 ",
"2 5 5 5 5 5 3 2 & # +   + * 4 7 7 q q 7 7 q 7 7 7 7 , - X o : d P p.j.0.S i O X o - 7 7 4 - - o + # # % & 3 3 3 3 3 5 5 5 5 5 3 ",
"2 5 5 5 5 5 3 3 & + +   + * - 7 7 7 7 7 7 7 q 7 7 7 , * X o : d P 0.h.8.S u X   * - 7 7 7 4 - - $ % % % % & & 5 3 3 5 5 5 5 5 & ",
"2 5 5 5 5 5 & 2 = # o   + * - 7 7 7 q q 9 9 7 9 7 7 , - X   : i F 9.t.L d t X o * - , 7 7 7 4 , > = # @ + % % & 3 & 5 5 5 5 5 & ",
"2 3 3 3 5 & & & % +     * * - 7 7 7 7 7 7 9 7 7 9 7 , * *   ; a A I 9.K c t O o * - 4 7 7 7 7 7 7 , = @   + + & & 3 & 3 3 3 3 & ",
"# # $ # # @ # @ @ +     + * , 7 7 q 7 q 7 7 9 9 7 7 , - X o $ a Z L w.H d e X o * - 7 7 7 7 7 9 7 , = +     + + O % # # # O $ % ",
"                        * = - 7 7 q 7 7 7 9 7 9 7 7 , * X o $ a Z L 9.H d e O o * - 4 q 7 7 7 7 7 , * +                         "
};
