/* XPM */
static char *result[] = {
/* columns rows colors chars-per-pixel */
"64 64 196 2 ",
"   c #25131A",
".  c #25131B",
"X  c #26131B",
"o  c #26141B",
"O  c #27141C",
"+  c #27141D",
"@  c #27151D",
"#  c #27151E",
"$  c #28151D",
"%  c #28151E",
"&  c #28151F",
"*  c #28161E",
"=  c #28161F",
"-  c #29161F",
";  c #291620",
":  c #2A1620",
">  c #2A1621",
",  c #2A1721",
"<  c #2A1722",
"1  c #2B1722",
"2  c #2B1822",
"3  c #2C1823",
"4  c #2C1824",
"5  c #2E1925",
"6  c #2F1A25",
"7  c #2E1A26",
"8  c #2E1A27",
"9  c #311B25",
"0  c #321D25",
"q  c #351F25",
"w  c #361F25",
"e  c #301B29",
"r  c #301B2A",
"t  c #311B2A",
"y  c #301C2A",
"u  c #321C2B",
"i  c #321D2C",
"p  c #341E2E",
"a  c #341E2F",
"s  c #341F2F",
"d  c #351F30",
"f  c #361F31",
"g  c #362025",
"h  c #382228",
"j  c #3C252E",
"k  c #362031",
"l  c #362032",
"z  c #372133",
"x  c #382134",
"c  c #392235",
"v  c #3A2236",
"b  c #3A2336",
"n  c #3A2237",
"m  c #3A2337",
"M  c #3B2337",
"N  c #3B2338",
"B  c #3B2438",
"V  c #3C253A",
"C  c #3D253B",
"Z  c #3F273D",
"A  c #412834",
"S  c #452B3B",
"D  c #44293F",
"F  c #462B3F",
"G  c #4A2F3F",
"H  c #4D313F",
"J  c #4E313F",
"K  c #54363F",
"L  c #5B3C3E",
"P  c #5C3C3E",
"I  c #5E3E3E",
"U  c #5F3F3F",
"Y  c #432940",
"T  c #462B44",
"R  c #4B2E48",
"E  c #4B2F48",
"W  c #4C2F48",
"Q  c #4C2F49",
"!  c #4D2F49",
"~  c #4D3042",
"^  c #4F3245",
"/  c #4D3048",
"(  c #4D3049",
")  c #4F3148",
"_  c #4E3049",
"`  c #4F3149",
"'  c #4F3249",
"]  c #513348",
"[  c #503249",
"{  c #513349",
"}  c #50324A",
"|  c #51324A",
" . c #51334A",
".. c #533448",
"X. c #523449",
"o. c #533549",
"O. c #52344A",
"+. c #53344A",
"@. c #543548",
"#. c #543549",
"$. c #543649",
"%. c #553649",
"&. c #563649",
"*. c #563749",
"=. c #54354A",
"-. c #54364A",
";. c #55364A",
":. c #56374A",
">. c #56374B",
",. c #573848",
"<. c #57384A",
"1. c #583849",
"2. c #593949",
"3. c #59394B",
"4. c #5A3A4B",
"5. c #5B3A4B",
"6. c #5B3B4B",
"7. c #5C3B49",
"8. c #5D3C49",
"9. c #5E3D48",
"0. c #5E3E48",
"q. c #5D3C4B",
"w. c #603F41",
"e. c #603F4A",
"r. c #603F4C",
"t. c #614042",
"y. c #624042",
"u. c #624144",
"i. c #634144",
"p. c #644245",
"a. c #654346",
"s. c #654347",
"d. c #6A4747",
"f. c #6D4947",
"g. c #614048",
"h. c #634148",
"j. c #63414B",
"k. c #644248",
"l. c #654349",
"z. c #664448",
"x. c #674448",
"c. c #674549",
"v. c #61404C",
"b. c #64414C",
"n. c #694548",
"m. c #684549",
"M. c #694648",
"N. c #6A4748",
"B. c #6B4748",
"V. c #69464A",
"C. c #69464B",
"Z. c #6A464A",
"A. c #68444D",
"S. c #69464D",
"D. c #6A464C",
"F. c #6B474C",
"G. c #6B474E",
"H. c #6C474D",
"J. c #6B4848",
"K. c #6B484B",
"L. c #6D4948",
"P. c #6D4A48",
"I. c #6E4A48",
"U. c #6E4A49",
"Y. c #6F4A49",
"T. c #6F4B49",
"R. c #6D494B",
"E. c #6E494A",
"W. c #6F4A4B",
"Q. c #6B484C",
"!. c #6D494D",
"~. c #6E494D",
"^. c #6E4A4C",
"/. c #6E494E",
"(. c #6E4A4E",
"). c #704B49",
"_. c #704B4A",
"`. c #704C4A",
"'. c #714C4A",
"]. c #724C4A",
"[. c #724D4B",
"{. c #724C4D",
"}. c #734E4C",
"|. c #714C4E",
" X c #744E4C",
".X c #744E4D",
"XX c #744F4D",
"oX c #754F4D",
"OX c #744D4E",
"+X c #754F4E",
"@X c #744E4F",
"#X c #76504E",
"$X c #77504E",
"%X c #77504F",
"&X c #77514F",
"*X c #78514F",
/* pixels */
"Q Q Q Q Q Q Q Q Q Q Q Q Q Q Q Q Q Q Q Q Q Q Q Q Q Q Q Q Q Q Q Q Q Q Q Q Q Q Q Q Q Q Q Q Q Q Q Q Q Q Q Q Q Q Q Q Q Q Q Q Q Q Q Q ",
"Q Q Q Q Q Q Q Q Q Q Q Q Q Q Q Q Q Q Q Q Q Q Q Q Q Q Q Q Q Q Q Q Q Q Q Q Q Q Q Q Q Q Q Q Q Q Q Q Q Q Q Q Q Q Q Q Q Q Q Q Q Q Q Q ",
"Q Q Q _  .+.+.+.+.+.+. ._ Q Q Q Q Q Q _  .+.+.+.+.+.+. ._ Q Q Q Q Q Q _  .+.+.+.+.+.+. ._ Q Q Q Q Q Q _  .+.+.+.+.+.+. ._ Q Q Q ",
"Q Q Q | 3.q.q.q.q.q.q.3.| Q Q Q Q Q Q | 3.q.q.q.q.q.q.3.| Q Q Q Q Q Q  .3.q.q.q.q.q.q.3.| Q Q Q Q Q Q  .3.q.q.q.q.q.q.3.| Q Q Q ",
"Q Q Q =.r.A.A.A.A.A.A.r.=.Q Q Q Q Q Q =.r.A.A.A.A.A.A.r.=.Q Q Q Q Q Q =.r.A.A.A.A.A.A.r.=.Q Q Q Q Q Q =.r.A.A.A.A.A.A.r.=.Q Q Q ",
"Q Q Q <.S.OXOXOXOXOXOXS.<.Q Q Q Q Q Q <.S.OXOXOXOXOXOXS.<.Q Q Q Q Q Q <.S.OXOXOXOXOXOXS.<.Q Q Q Q Q Q <.S.OXOXOXOXOXOXS.<.Q Q Q ",
"Q ( } 6.!.&X&X&X&X&X*X/.6.} ( Q Q ! ` 5.!.&X&X&X&X&X*X/.6.} ( Q Q ( } 6./.*X&X&X&X&X&X!.4.` ! Q Q ( } 6./.*X&X&X&X&X&X!.6.} ( Q ",
"Q } 3.j.^.oXoXoXoXoX$X|.b.3.} Q Q ` *.e.R.oXoXoXoXoX$X|.b.3.} Q Q } 3.b.|.$XoXoXoXoXoXR.e.*.` Q Q } 3.b.|.$XoXoXoXoXoX^.j.3.} Q ",
"Q O.v.D.W.].].].].}.#X@XH.v.O.Q Q { 8.l.E.].].].].}.#X@XH.v.O.Q Q O.v.H.@X#X}.].].].].E.l.8.{ Q Q O.v.H.@X#X}.].].].].W.D.v.O.Q ",
"Q ;.G.{.`.T.T.T.T.[.oX%X@XG.;.Q Q o.k.J.U.T.T.T.T.[.oX%X@XG.;.Q Q ;.G.@X%XoX[.T.T.T.T.U.J.k.o.Q Q ;.G.@X%XoX[.T.T.T.T.`.{.G.;.Q ",
"Q >./..X'.I.I.I.I.'.oX$X%X/.>.Q Q #.z.P.I.I.I.I.I.'.oX$X%X/.>.Q Q >./.%X$XoX'.I.I.I.I.I.P.z.#.Q Q >./.%X$XoX'.I.I.I.I.'..X/.>.Q ",
"Q >.(.XX'.I.I.I.I.`.[.oX#X(.>.Q Q #.x.I.I.I.I.I.I.`.[.oX#X(.>.Q Q >.(.#XoX[.`.I.I.I.I.I.I.x.#.Q Q >.(.#XoX[.`.I.I.I.I.'.XX(.>.Q ",
"Q >.(.XX'.I.I.I.I.T.'.}.+X(.>.Q Q #.x.I.I.I.I.I.I.T.'.}.+X(.>.Q Q >.(.+X}.'.T.I.I.I.I.I.I.x.#.Q Q >.(.+X}.'.T.I.I.I.I.'.XX(.>.Q ",
"Q >.(.XX'.I.I.I.I.I.T.[.oX(.>.Q Q #.x.I.I.I.I.I.I.I.T.[.oX(.>.Q Q >.(.oX[.T.I.I.I.I.I.I.I.x.#.Q Q >.(.oX[.T.I.I.I.I.I.'.XX(.>.Q ",
"Q :.!..X`.I.I.I.I.I.I.`..X!.:.Q Q #.x.I.I.I.I.I.I.I.I.`..X!.:.Q Q :.!..X`.I.I.I.I.I.I.I.I.x.#.Q Q :.!..X`.I.I.I.I.I.I.`..X!.:.Q ",
"Q ;.F.[.).I.I.I.I.I.I.).[.F.;.Q Q #.x.I.I.I.I.I.I.I.I.).[.F.;.Q Q ;.F.[.).I.I.I.I.I.I.I.I.x.#.Q Q ;.F.[.).I.I.I.I.I.I.).[.F.;.Q ",
"Q -.Z._.T.I.I.I.I.I.I.T._.Z.-.Q Q #.x.I.I.I.I.I.I.I.I.T._.Z.-.Q Q -.Z._.T.I.I.I.I.I.I.I.I.x.#.Q Q -.Z._.T.I.I.I.I.I.I.T._.Z.-.Q ",
"Q #.m.Y.I.I.I.I.I.I.I.I.Y.m.#.Q Q #.x.I.I.I.I.I.I.I.I.I.Y.m.#.Q Q #.m.Y.I.I.I.I.I.I.I.I.I.x.#.Q Q #.m.Y.I.I.I.I.I.I.I.I.Y.m.#.Q ",
"Q #.x.I.I.I.I.I.I.I.I.I.Y.m.#.Q Q #.x.I.I.I.I.I.I.I.I.I.I.x.#.Q Q #.x.I.I.I.I.I.I.I.I.I.I.x.#.Q Q #.m.Y.I.I.I.I.I.I.I.I.I.x.#.Q ",
"Q #.x.I.I.I.I.I.I.I.I.T.`.C.$.Q Q #.x.I.I.I.I.I.I.I.I.I.I.x.#.Q Q #.x.I.I.I.I.I.I.I.I.I.I.x.#.Q Q $.C.`.T.I.I.I.I.I.I.I.I.x.#.Q ",
"Q #.x.I.I.I.I.I.I.I.I.).[.Q.;.Q Q #.x.I.I.I.I.I.I.I.I.I.I.x.#.Q Q #.x.I.I.I.I.I.I.I.I.I.I.x.#.Q Q ;.Q.[.).I.I.I.I.I.I.I.I.x.#.Q ",
"Q #.x.I.I.I.I.I.I.I.I.'. X!.>.Q Q #.z.L.I.I.I.I.I.I.I.I.L.z.#.Q Q #.z.L.I.I.I.I.I.I.I.I.L.z.#.Q Q >.!. X'.I.I.I.I.I.I.I.I.x.#.Q ",
"Q #.x.I.I.I.I.I.I.I.I.`. X~.:.Q Q o.k.N.B.B.B.B.B.B.B.B.N.k.o.Q Q o.k.N.B.B.B.B.B.B.B.B.N.k.o.Q Q :.~. X`.I.I.I.I.I.I.I.I.x.#.Q ",
"Q #.x.I.I.I.I.I.I.I.I.).[.K.;.Q Q { 8.g.g.g.g.g.g.g.g.g.g.8.{ Q Q { 8.g.g.g.g.g.g.g.g.g.g.8.{ Q Q ;.K.[.).I.I.I.I.I.I.I.I.x.#.Q ",
"Q #.x.I.I.I.I.I.I.I.I.T.`.V.$.Q Q ` *.2.2.2.2.2.2.2.2.2.2.*.` Q Q ` *.2.2.2.2.2.2.2.2.2.2.*.` Q Q $.V.`.T.I.I.I.I.I.I.I.I.x.#.Q ",
"Q #.x.I.I.I.I.I.I.I.I.I.U.c.#.Q Q ! ` [ [ [ [ [ [ [ [ [ [ ` ! Q Q ! ` [ [ [ [ [ [ [ [ [ [ ` ! Q Q #.c.U.I.I.I.I.I.I.I.I.I.x.#.Q ",
"Q #.x.I.I.I.I.I.I.I.I.I.I.z...R R R R R E E E E E E E E R R R R R R R R E E E E E E E E R R R R R ..z.I.I.I.I.I.I.I.I.I.I.x.#.Q ",
"Q #.x.I.I.I.I.I.I.I.I.I.I.s.^ T T T T T T T T T T T T T T T T T T T T T T T T T T T T T T T T T T ^ s.I.I.I.I.I.I.I.I.I.I.x.#.Q ",
"Q #.x.I.I.I.I.I.I.I.I.I.P.a.~ Y Y Y Y Y Y Y Y Y Y Y Y Y Y Y Y Y Y Y Y Y Y Y Y Y Y Y Y Y Y Y Y Y Y ~ a.P.I.I.I.I.I.I.I.I.I.x.#.Q ",
"Q #.x.I.I.I.I.I.I.I.I.I.P.p.G Z Z Z Z Z Z Z Z Z Z Z Z Z Z Z Z Z Z Z Z Z Z Z Z Z Z Z Z Z Z Z Z Z Z G p.P.I.I.I.I.I.I.I.I.I.x.#.Q ",
"Q #.x.I.I.I.I.I.I.I.I.I.L.u.S n n n n n n n n n n n n N V C C C C C C V N n n n n n n n n n n n n S i.P.I.I.I.I.I.I.I.I.I.x.#.Q ",
"Q #.x.I.I.I.I.I.I.I.I.I.L.t.A p p p p p p p p p p p p l m C C C C C C m l p p p p p p p p p p p p A y.L.I.I.I.I.I.I.I.I.I.x.#.Q ",
"Q #.x.I.I.I.I.I.I.I.I.I.L.w.j 8 8 8 8 8 8 8 8 8 8 8 8 i c C C C C C C c i 8 8 8 8 8 8 8 8 8 8 8 8 j w.L.I.I.I.I.I.I.I.I.I.x.#.Q ",
"Q #.x.I.I.I.I.I.I.I.I.I.f.U h = = = = = = = = = = = = 7 z C C C C C C z 7 = = = = = = = = = = = = h U f.I.I.I.I.I.I.I.I.I.x.#.Q ",
"Q #.x.I.I.I.I.I.I.I.I.I.f.I w                         < a M V C C V M a <                         g I f.I.I.I.I.I.I.I.I.I.x.#.Q ",
"Q #.x.I.I.I.I.I.I.I.I.I.f.I w                         ; e k B C C B k e ;                         g I f.I.I.I.I.I.I.I.I.I.x.#.Q ",
"Q #.x.I.I.I.I.I.I.I.I.I.f.I w                         $ 3 u n C C n u 3 $                         g I f.I.I.I.I.I.I.I.I.I.x.#.Q ",
"Q #.x.I.I.I.I.I.I.I.I.I.f.I w                         . @ 4 x C C x 4 @ .                         g I f.I.I.I.I.I.I.I.I.I.x.#.Q ",
"Q #.x.I.I.I.I.I.I.I.I.I.f.I w                           . , f B B f , .                           g I f.I.I.I.I.I.I.I.I.I.x.#.Q ",
"Q #.x.I.I.I.I.I.I.I.I.I.f.I w                             * r a a r *                             g I f.I.I.I.I.I.I.I.I.I.x.#.Q ",
"Q #.x.I.I.I.I.I.I.I.I.I.f.I w                             + 4 7 7 4 +                             g I f.I.I.I.I.I.I.I.I.I.x.#.Q ",
"Q #.x.I.I.I.I.I.I.I.I.I.f.I w                             X O # # O X                             g I f.I.I.I.I.I.I.I.I.I.x.#.Q ",
"Q #.x.I.I.I.I.I.I.I.I.I.f.I w o @ # # # # # # # # # # + o . @ # # @ . o + # # # # # # # # # # @ o g I f.I.I.I.I.I.I.I.I.I.x.#.Q ",
"Q #.x.I.I.I.I.I.I.I.I.I.f.I w @ 4 8 8 8 8 8 8 8 8 8 8 4 % @ 4 8 8 4 + % 4 8 8 8 8 8 8 8 8 8 8 4 @ g I f.I.I.I.I.I.I.I.I.I.x.#.Q ",
"Q #.x.I.I.I.I.I.I.I.I.I.f.I w - e p p p p p p p p p p e ; = y p p y & ; e p p p p p p p p p p e - g I f.I.I.I.I.I.I.I.I.I.x.#.Q ",
"Q #.x.I.I.I.I.I.I.I.I.I.f.I w < a b m m m m m m m m m s 2 > d m m d > 2 s m m m m m m m m m b a < g I f.I.I.I.I.I.I.I.I.I.x.#.Q ",
"Q #.x.I.I.I.I.I.I.I.I.I.f.I w , s v n n n n n n n n n s 1 ; d n n d ; 1 s n n n n n n n n n v s , g I f.I.I.I.I.I.I.I.I.I.x.#.Q ",
"Q #.x.I.I.I.I.I.I.I.I.I.f.I w - e p p p p p p p p p p e : * t p p t * : e p p p p p p p p p p e - g I f.I.I.I.I.I.I.I.I.I.x.#.Q ",
"Q #.x.I.I.I.I.I.I.I.I.I.f.I w @ 3 8 8 8 8 8 8 8 8 8 8 3 % + 4 8 8 4 + % 3 8 8 8 8 8 8 8 8 8 8 3 @ g I f.I.I.I.I.I.I.I.I.I.x.#.Q ",
"Q #.x.I.I.I.I.I.I.I.I.I.f.I w o $ * = = = = = = = = = # o o $ = = $ o o # = = = = = = = = = * $ o g I f.I.I.I.I.I.I.I.I.I.x.#.Q ",
"Q #.x.I.I.I.I.I.I.I.I.I.f.I w                                                                     g I f.I.I.I.I.I.I.I.I.I.x.#.Q ",
"Q #.x.I.I.I.I.I.I.I.I.I.f.I w                                                                     g I f.I.I.I.I.I.I.I.I.I.x.#.Q ",
"Q #.x.I.I.I.I.I.I.I.I.I.f.I w                                                                     g I f.I.I.I.I.I.I.I.I.I.x.#.Q ",
"Q #.z.P.I.I.I.I.I.I.I.I.f.I w                                                                     g I f.I.I.I.I.I.I.I.I.P.z.#.Q ",
"Q o.k.J.P.I.I.I.I.I.I.P.d.L q                                                                     q P d.P.I.I.I.I.I.I.P.J.k.o.Q ",
"Q { 8.k.B.I.I.I.I.I.I.B.k.K 0                                                                     0 K k.B.I.I.I.I.I.I.B.k.8.{ Q ",
"Q ` *.0.M.I.I.I.I.I.I.M.9.H 9                                                                     9 J 9.M.I.I.I.I.I.I.n.0.*.` Q ",
"Q ! ` 1.z.I.I.I.I.I.I.z.,.F 6                                                                     6 F ,.z.I.I.I.I.I.I.z.1.` ! Q ",
"Q Q Q %.h.N.N.N.N.N.N.h.@.D 5                                                                     5 D @.h.N.N.N.N.N.N.h.%.Q Q Q ",
"Q Q Q X.7.g.g.g.g.g.g.7.] D 5                                                                     5 D ] 7.g.g.g.g.g.g.7.X.Q Q Q ",
"Q Q Q ' &.2.2.2.2.2.2.&.) D 5                                                                     5 D ) &.2.2.2.2.2.2.&.' Q Q Q ",
"Q Q Q ( [ { { { { { { [ / D 5                                                                     5 D / [ { { { { { { [ ( Q Q Q ",
"Q Q Q Q Q Q Q Q Q Q Q Q W D 5                                                                     5 D W Q Q Q Q Q Q Q Q Q Q Q Q ",
"Q Q Q Q Q Q Q Q Q Q Q Q W D 5                                                                     5 D W Q Q Q Q Q Q Q Q Q Q Q Q "
};
